<svg width="80" height="80" viewBox="0 0 80 80" fill="none" xmlns="http://www.w3.org/2000/svg">
<path d="M79.2612 42.6493L74.5874 35.277L77.3597 27.0031C77.5425 26.4559 77.5306 25.8623 77.326 25.3229C77.1213 24.7834 76.7364 24.3313 76.2366 24.0431L68.6735 19.6831L67.2828 11.0678C67.1892 10.4981 66.9022 9.97817 66.4701 9.59539C66.038 9.21262 65.4872 8.99042 64.9104 8.96622L56.1874 8.62469L50.9535 1.64007C50.6078 1.17786 50.1125 0.849804 49.552 0.711788C48.9915 0.573772 48.4005 0.63433 47.8797 0.883147L39.9997 4.63084L32.1166 0.88007C31.595 0.633935 31.0045 0.575131 30.4445 0.713568C29.8846 0.852004 29.3896 1.17922 29.0427 1.64007L23.8089 8.62469L15.0858 8.96622C14.5095 8.98927 13.9589 9.21074 13.5272 9.59314C13.0954 9.97555 12.8091 10.4954 12.7166 11.0647L11.3258 19.6801L3.76275 24.0401C3.26236 24.3278 2.87686 24.7797 2.67161 25.3192C2.46636 25.8586 2.45399 26.4525 2.63659 27.0001L5.4089 35.2739L0.738131 42.6493C0.430019 43.1375 0.300008 43.7171 0.370093 44.2901C0.440179 44.8632 0.706058 45.3944 1.12275 45.7939L7.42121 51.8339L6.71352 60.5293C6.66644 61.1047 6.81958 61.6787 7.14702 62.1541C7.47446 62.6296 7.9561 62.9773 8.51044 63.1385L16.8951 65.5539L20.3074 73.5878C20.5314 74.1202 20.9334 74.5583 21.4447 74.8271C21.956 75.096 22.5448 75.1789 23.1104 75.0616L31.6643 73.3078L38.4151 78.837C38.8735 79.2093 39.4366 79.4032 39.9997 79.4032C40.5627 79.4032 41.1227 79.2093 41.5843 78.837L48.3351 73.3078L56.8889 75.0616C58.0489 75.3078 59.2274 74.6832 59.692 73.5878L63.1043 65.5539L71.4889 63.1385C72.0436 62.9779 72.5255 62.6302 72.8531 62.1546C73.1806 61.6791 73.3335 61.1048 73.2858 60.5293L72.5781 51.8339L78.8766 45.7939C79.2933 45.3944 79.5592 44.8632 79.6292 44.2901C79.6993 43.7171 79.5693 43.1375 79.2612 42.6493ZM58.0828 30.6155L40.572 56.8493C39.9104 57.8278 38.8858 58.4832 37.8674 58.4832C36.852 58.4832 35.7166 57.9139 34.9935 57.1878L22.1381 44.1262C21.7168 43.6941 21.4809 43.1144 21.4809 42.5108C21.4809 41.9073 21.7168 41.3276 22.1381 40.8955L25.3104 37.6647C25.5183 37.4556 25.7655 37.2898 26.0377 37.1766C26.3099 37.0634 26.6018 37.0051 26.8966 37.0051C27.1914 37.0051 27.4833 37.0634 27.7555 37.1766C28.0277 37.2898 28.2749 37.4556 28.4827 37.6647L36.8489 46.1631L50.6458 25.4924C50.8094 25.2459 51.0203 25.0344 51.2665 24.8703C51.5126 24.7063 51.789 24.5928 52.0794 24.5367C52.3698 24.4806 52.6685 24.4828 52.9581 24.5434C53.2476 24.6039 53.5222 24.7215 53.7658 24.8893L57.4858 27.4462C58.5104 28.1539 58.7751 29.5785 58.0828 30.6155Z" fill="#0D9488"/>
</svg>
