<svg width="8" height="14" viewBox="0 0 8 14" fill="none" xmlns="http://www.w3.org/2000/svg">
<path d="M0.999939 13.9991C1.13155 13.9998 1.26201 13.9746 1.38385 13.9248C1.50568 13.8751 1.6165 13.8017 1.70994 13.7091L7.70994 7.70905C7.89619 7.52169 8.00073 7.26824 8.00073 7.00405C8.00073 6.73987 7.89619 6.48641 7.70994 6.29905L1.70994 0.299051C1.51864 0.135224 1.27256 0.0496184 1.02089 0.0593395C0.769209 0.0690607 0.53047 0.173393 0.352376 0.351487C0.174282 0.529582 0.0699487 0.768321 0.0602274 1.02C0.0505061 1.27167 0.136113 1.51775 0.299939 1.70905L5.58994 6.99905L0.299939 12.2891C0.159518 12.4283 0.0635467 12.6061 0.0241613 12.7999C-0.0152235 12.9937 0.00374603 13.1949 0.0786715 13.3779C0.153597 13.5609 0.281114 13.7176 0.445097 13.8282C0.609081 13.9388 0.802166 13.9982 0.999939 13.9991Z" fill="#0D9488"/>
</svg>
