<svg width="13" height="8" viewBox="0 0 13 8" fill="none" xmlns="http://www.w3.org/2000/svg">
<path d="M1.23938 1.23938C1.3927 1.08611 1.60063 1 1.81742 1C2.03422 1 2.24214 1.08611 2.39547 1.23938L6.44258 5.28649L10.4897 1.23938C10.6439 1.09045 10.8504 1.00804 11.0648 1.0099C11.2792 1.01177 11.4842 1.09775 11.6358 1.24934C11.7874 1.40093 11.8734 1.60599 11.8752 1.82037C11.8771 2.03474 11.7947 2.24126 11.6458 2.39547L7.02062 7.02062C6.8673 7.17389 6.65937 7.26 6.44258 7.26C6.22578 7.26 6.01786 7.17389 5.86453 7.02062L1.23938 2.39547C1.08611 2.24214 1 2.03422 1 1.81742C1 1.60063 1.08611 1.3927 1.23938 1.23938V1.23938Z" fill="#0D9488" stroke="#0D9488"/>
</svg>
