<svg width="46" height="46" viewBox="0 0 46 46" fill="none" xmlns="http://www.w3.org/2000/svg">
<path d="M41.8428 26.6324L40.0417 22.6569L41.9901 18.7531C42.1187 18.4949 42.1541 18.2002 42.0903 17.9188C42.0265 17.6375 41.8674 17.3869 41.64 17.2094L38.1987 14.5243L38.1096 10.1618C38.1029 9.87322 37.9969 9.59579 37.8096 9.37619C37.6223 9.1566 37.3651 9.00826 37.0812 8.95614L32.7859 8.18003L30.6804 4.3575C30.5414 4.10458 30.319 3.90769 30.0511 3.80035C29.7832 3.69301 29.4863 3.68187 29.2111 3.76882L25.0487 5.07609L21.4065 2.6704C21.1654 2.51223 20.8771 2.44203 20.5902 2.47161C20.3033 2.50119 20.0355 2.62875 19.8317 2.8328L16.7542 5.92692L12.4113 5.48902C12.1244 5.46033 11.8363 5.53167 11.5959 5.69097C11.3556 5.85026 11.1776 6.08773 11.0922 6.36317L9.80407 10.5322L5.75593 12.1647C5.48815 12.2723 5.26583 12.4692 5.12667 12.7221C4.9875 12.9749 4.94005 13.2681 4.99236 13.5519L5.78928 17.8415L2.96339 21.1683C2.77686 21.3885 2.67216 21.6665 2.66698 21.9551C2.66181 22.2437 2.75649 22.5252 2.93501 22.752L5.63329 26.1809L4.6778 30.4371C4.61445 30.7187 4.65034 31.0135 4.77938 31.2717C4.90842 31.5299 5.12269 31.7356 5.38595 31.854L9.36938 33.6334L10.4999 37.8487C10.5738 38.1279 10.7423 38.3728 10.9768 38.5415C11.2112 38.7102 11.497 38.7922 11.7852 38.7735L16.1426 38.5003L19.1003 41.7078C19.3014 41.9241 19.5667 42.0592 19.8455 42.0984C20.1243 42.1376 20.4151 42.0806 20.6695 41.9284L24.3968 39.6604L28.5101 41.124C29.0673 41.3266 29.6943 41.0994 30.0005 40.5893L32.2491 36.849L36.5687 36.2365C36.8545 36.1955 37.1174 36.0569 37.3126 35.8442C37.5079 35.6315 37.6236 35.3579 37.64 35.0696L37.8947 30.715L41.4336 28.1626C41.6677 27.9938 41.8363 27.7493 41.9109 27.4704C41.9855 27.1916 41.9614 26.8956 41.8428 26.6324ZM32.1941 19.2003L21.6984 30.9711C21.3027 31.4095 20.7498 31.6627 20.2455 31.5918C19.7428 31.5212 19.2202 31.1603 18.9127 30.7505L13.4565 23.3887C13.2779 23.1454 13.2015 22.842 13.2435 22.5431C13.2855 22.2443 13.4426 21.9737 13.6813 21.789L15.4768 20.4101C15.5943 20.3211 15.7282 20.2561 15.8709 20.219C16.0135 20.1819 16.1621 20.1734 16.3081 20.1939C16.4541 20.2144 16.5945 20.2636 16.7214 20.3386C16.8483 20.4135 16.9592 20.5129 17.0476 20.6308L20.5985 25.4209L28.8683 16.1462C28.9664 16.0355 29.0856 15.9455 29.2189 15.8814C29.3522 15.8173 29.4969 15.7803 29.6446 15.7727C29.7923 15.7652 29.94 15.7871 30.0792 15.8372C30.2183 15.8873 30.3461 15.9646 30.4551 16.0647L32.119 17.5896C32.5771 18.0113 32.609 18.7351 32.1941 19.2003Z" fill="#0D9488"/>
</svg>
