<svg width="23" height="23" viewBox="0 0 23 23" fill="none" xmlns="http://www.w3.org/2000/svg">
<path d="M0.958325 0C0.704161 0 0.460408 0.100967 0.280687 0.28069C0.100966 0.460412 0 0.704168 0 0.958333C0 1.2125 0.100966 1.45625 0.280687 1.63598C0.460408 1.8157 0.704161 1.91667 0.958325 1.91667H1.42982C1.63791 1.91703 1.84023 1.98511 2.00621 2.11063C2.17219 2.23615 2.2928 2.41229 2.34981 2.61242L5.38962 13.2499C5.56155 13.8502 5.92425 14.3782 6.42289 14.7541C6.92153 15.13 7.52899 15.3333 8.15343 15.3333H16.9106C17.4853 15.3334 18.0468 15.1613 18.5227 14.8391C18.9987 14.5169 19.3671 14.0595 19.5805 13.5259L22.4056 6.46108C22.5218 6.17037 22.5649 5.85564 22.5314 5.5444C22.4978 5.23316 22.3885 4.93487 22.213 4.67563C22.0375 4.41638 21.8012 4.20407 21.5247 4.05724C21.2483 3.91041 20.94 3.83353 20.627 3.83333H4.69196L4.19171 2.08533C4.02022 1.48498 3.65796 0.956773 3.15967 0.580552C2.66139 0.20433 2.05418 0.000545039 1.42982 0H0.958325Z" fill="#fff"/>
<path d="M8.62497 23C9.00252 23 9.37637 22.9256 9.72518 22.7812C10.074 22.6367 10.3909 22.4249 10.6579 22.1579C10.9249 21.891 11.1366 21.574 11.2811 21.2252C11.4256 20.8764 11.4999 20.5026 11.4999 20.125C11.4999 19.7474 11.4256 19.3736 11.2811 19.0248C11.1366 18.676 10.9249 18.359 10.6579 18.0921C10.3909 17.8251 10.074 17.6133 9.72518 17.4688C9.37637 17.3244 9.00252 17.25 8.62497 17.25C7.86248 17.25 7.13122 17.5529 6.59206 18.0921C6.0529 18.6312 5.75 19.3625 5.75 20.125C5.75 20.8875 6.0529 21.6188 6.59206 22.1579C7.13122 22.6971 7.86248 23 8.62497 23V23Z" fill="#fff"/>
<path d="M16.292 23C16.6695 23 17.0434 22.9256 17.3922 22.7812C17.741 22.6367 18.0579 22.4249 18.3249 22.1579C18.5918 21.891 18.8036 21.574 18.9481 21.2252C19.0926 20.8764 19.1669 20.5026 19.1669 20.125C19.1669 19.7474 19.0926 19.3736 18.9481 19.0248C18.8036 18.676 18.5918 18.359 18.3249 18.0921C18.0579 17.8251 17.741 17.6133 17.3922 17.4688C17.0434 17.3244 16.6695 17.25 16.292 17.25C15.5295 17.25 14.7982 17.5529 14.2591 18.0921C13.7199 18.6312 13.417 19.3625 13.417 20.125C13.417 20.8875 13.7199 21.6188 14.2591 22.1579C14.7982 22.6971 15.5295 23 16.292 23V23Z" fill="#fff"/>
</svg>
