<svg width="19" height="15" viewBox="0 0 19 15" fill="none" xmlns="http://www.w3.org/2000/svg">
<path d="M13.0625 4.53125C13.0625 4.37378 13.1251 4.22276 13.2364 4.11141C13.3478 4.00006 13.4988 3.9375 13.6562 3.9375H16.0312C16.1887 3.9375 16.3397 4.00006 16.4511 4.11141C16.5624 4.22276 16.625 4.37378 16.625 4.53125V5.71875C16.625 5.87622 16.5624 6.02724 16.4511 6.13859C16.3397 6.24994 16.1887 6.3125 16.0312 6.3125H13.6562C13.4988 6.3125 13.3478 6.24994 13.2364 6.13859C13.1251 6.02724 13.0625 5.87622 13.0625 5.71875V4.53125Z" fill="#A3A3A3"/>
<path d="M2.375 0.375C1.74511 0.375 1.14102 0.625222 0.695621 1.07062C0.250223 1.51602 0 2.12011 0 2.75L0 12.25C0 12.8799 0.250223 13.484 0.695621 13.9294C1.14102 14.3748 1.74511 14.625 2.375 14.625H16.625C17.2549 14.625 17.859 14.3748 18.3044 13.9294C18.7498 13.484 19 12.8799 19 12.25V2.75C19 2.12011 18.7498 1.51602 18.3044 1.07062C17.859 0.625222 17.2549 0.375 16.625 0.375H2.375ZM17.8125 2.75V8.6875H1.1875V2.75C1.1875 2.43506 1.31261 2.13301 1.53531 1.91031C1.75801 1.68761 2.06006 1.5625 2.375 1.5625H16.625C16.9399 1.5625 17.242 1.68761 17.4647 1.91031C17.6874 2.13301 17.8125 2.43506 17.8125 2.75ZM16.625 13.4375H2.375C2.06006 13.4375 1.75801 13.3124 1.53531 13.0897C1.31261 12.867 1.1875 12.5649 1.1875 12.25V11.0625H17.8125V12.25C17.8125 12.5649 17.6874 12.867 17.4647 13.0897C17.242 13.3124 16.9399 13.4375 16.625 13.4375Z" fill="#A3A3A3"/>
</svg>
