<svg width="20" height="20" viewBox="0 0 20 20" fill="none" xmlns="http://www.w3.org/2000/svg">
<rect x="1" y="1" width="18" height="18" rx="1" fill="#0D9488" stroke="#0D9488" stroke-width="2"/>
<path d="M14.7546 5C14.9972 5 15.2224 5.04331 15.4303 5.12993C15.6382 5.21656 15.823 5.34071 15.9846 5.50241C16.1463 5.6641 16.2676 5.84601 16.3485 6.04813C16.4293 6.25025 16.4755 6.47835 16.4871 6.73244C16.4871 6.96343 16.4437 7.18576 16.3571 7.39943C16.2705 7.6131 16.1463 7.80078 15.9846 7.96247L9.10686 14.8489C8.94516 15.0106 8.75748 15.1348 8.54381 15.2214C8.33015 15.308 8.10782 15.3542 7.87682 15.36C7.64583 15.36 7.4235 15.3167 7.20983 15.2301C6.99617 15.1434 6.80848 15.0164 6.64679 14.8489L3.51107 11.7132C3.34938 11.5515 3.22522 11.3638 3.1386 11.1502C3.05197 10.9365 3.00577 10.7142 3 10.4832C3 10.2406 3.0462 10.0154 3.1386 9.80752C3.23099 9.59963 3.35515 9.41484 3.51107 9.25314C3.66699 9.09145 3.8489 8.97018 4.05679 8.88933C4.26468 8.80848 4.49279 8.76229 4.7411 8.75074C4.9721 8.75074 5.19443 8.79405 5.40809 8.88067C5.62176 8.96729 5.80944 9.09145 5.97114 9.25314L7.87682 11.1588L13.5246 5.50241C13.6863 5.34071 13.874 5.21656 14.0876 5.12993C14.3013 5.04331 14.5236 5 14.7546 5Z" fill="white"/>
</svg>
