<svg width="75" height="74" viewBox="0 0 75 74" fill="none" xmlns="http://www.w3.org/2000/svg">
<rect x="0.0999756" width="74" height="74" rx="37" fill="white"/>
<path opacity="0.4" d="M51.1 30.4375V47.5C51.1 52.75 47.9675 54.5 44.1 54.5H30.1C26.2325 54.5 23.1 52.75 23.1 47.5V30.4375C23.1 24.75 26.2325 23.4375 30.1 23.4375C30.1 24.5225 30.5374 25.5025 31.2549 26.22C31.9724 26.9375 32.9525 27.375 34.0375 27.375H40.1625C42.3325 27.375 44.1 25.6075 44.1 23.4375C47.9675 23.4375 51.1 24.75 51.1 30.4375Z" fill="#0D9488"/>
<path d="M44.1 23.4375C44.1 25.6075 42.3325 27.375 40.1625 27.375H34.0375C32.9525 27.375 31.9724 26.9375 31.2549 26.22C30.5374 25.5025 30.1 24.5225 30.1 23.4375C30.1 21.2675 31.8675 19.5 34.0375 19.5H40.1625C41.2475 19.5 42.2275 19.9375 42.945 20.655C43.6625 21.3725 44.1 22.3525 44.1 23.4375Z" fill="#0D9488"/>
<path d="M37.1 40.0625H30.1C29.3825 40.0625 28.7875 39.4675 28.7875 38.75C28.7875 38.0325 29.3825 37.4375 30.1 37.4375H37.1C37.8175 37.4375 38.4125 38.0325 38.4125 38.75C38.4125 39.4675 37.8175 40.0625 37.1 40.0625Z" fill="#0D9488"/>
<path d="M44.1 47.0625H30.1C29.3825 47.0625 28.7875 46.4675 28.7875 45.75C28.7875 45.0325 29.3825 44.4375 30.1 44.4375H44.1C44.8175 44.4375 45.4125 45.0325 45.4125 45.75C45.4125 46.4675 44.8175 47.0625 44.1 47.0625Z" fill="#0D9488"/>
</svg>
