<svg width="57" height="56" viewBox="0 0 57 56" fill="none" xmlns="http://www.w3.org/2000/svg">
<rect x="4.5" y="4" width="48" height="48" rx="24" fill="white"/>
<path d="M24.1925 27.2699C24.1925 30.1081 26.4933 32.4089 29.3315 32.4089C32.1697 32.4089 34.4706 30.1081 34.4706 27.2699C34.4706 24.4317 32.1697 22.1309 29.3315 22.1309C26.4947 22.134 24.1957 24.4331 24.1925 27.2699ZM29.3315 27.5946C28.4787 27.5994 27.7561 26.9678 27.647 26.122C27.5379 25.2763 28.0765 24.4818 28.9027 24.2701V23.8357C28.9027 23.6389 29.062 23.4795 29.2588 23.4795C29.4555 23.4795 29.6149 23.6389 29.6149 23.8357V24.2484C30.423 24.3852 31.0129 25.0877 31.0077 25.9075C31.0077 26.1019 30.8501 26.2595 30.6557 26.2595C30.4614 26.2595 30.3038 26.1019 30.3038 25.9075C30.3032 25.3695 29.8667 24.9339 29.3288 24.9345C28.7908 24.9351 28.3551 25.3717 28.3559 25.9097C28.3565 26.4475 28.7931 26.8831 29.3311 26.8823C30.2034 26.8873 30.9278 27.5567 31.0016 28.426C31.0753 29.2951 30.4739 30.0769 29.6149 30.2287V30.6532C29.6149 30.85 29.4555 31.0094 29.2588 31.0094C29.062 31.0094 28.9027 30.85 28.9027 30.6532V30.2069C28.1584 30.0103 27.6383 29.3394 27.6333 28.5697C27.6333 28.3707 27.7947 28.2093 27.9936 28.2093C28.1926 28.2093 28.3539 28.3707 28.3539 28.5697C28.3551 29.0671 28.7299 29.4843 29.2244 29.5385C29.2427 29.5355 29.2614 29.5341 29.2801 29.5339C29.3069 29.5339 29.3335 29.5371 29.3598 29.5431C29.894 29.53 30.3179 29.0892 30.3101 28.5549C30.3024 28.0205 29.8657 27.5922 29.3315 27.5946Z" fill="#0D9488"/>
<path d="M37.579 34.8578C37.5764 34.8592 37.5736 34.8606 37.5707 34.862L34.2646 36.4239C34.3002 36.6069 34.3157 36.7931 34.3107 36.9795C34.3056 37.1723 34.1478 37.326 33.955 37.326C33.9516 37.326 33.9482 37.326 33.9448 37.326L29.1063 37.1928C28.9096 37.1874 28.7545 37.0237 28.7599 36.8269C28.7653 36.6302 28.9292 36.4751 29.1258 36.4805L33.5734 36.6029C33.4259 35.741 32.691 35.1026 31.8169 35.0772L28.8736 34.9963C28.2923 34.9796 27.7223 34.8324 27.2058 34.5654L26.9063 34.4104C25.4354 33.6441 23.663 33.7439 22.2875 34.6706L22.1697 38.9524L22.6755 38.6816C23.1781 38.4113 23.7662 38.3469 24.3155 38.5021L29.3106 39.9042C30.2733 40.1014 31.2738 39.9897 32.1693 39.5846L39.0896 35.1082C38.6947 34.704 38.0832 34.6024 37.579 34.8578Z" fill="#0D9488"/>
<path d="M18.9191 39.6968L19.0946 33.3262L21.6102 33.3955L21.4347 39.7662L18.9191 39.6968Z" fill="#0D9488"/>
<path d="M29.6654 20.2228V16.3561C29.6654 16.1594 29.506 16 29.3093 16C29.1125 16 28.9531 16.1594 28.9531 16.3561V20.2228C28.9531 20.4196 29.1125 20.579 29.3093 20.579C29.506 20.579 29.6654 20.4196 29.6654 20.2228Z" fill="#ABE2DD"/>
<path d="M32.7181 20.2229V18.3913C32.7181 18.1945 32.5588 18.0352 32.362 18.0352C32.1652 18.0352 32.0059 18.1945 32.0059 18.3913V20.2229C32.0059 20.4196 32.1652 20.579 32.362 20.579C32.5588 20.579 32.7181 20.4196 32.7181 20.2229Z" fill="#ABE2DD"/>
<path d="M26.6127 20.2229V18.3913C26.6127 18.1945 26.4533 18.0352 26.2565 18.0352C26.0598 18.0352 25.9004 18.1945 25.9004 18.3913V20.2229C25.9004 20.4196 26.0598 20.579 26.2565 20.579C26.4533 20.579 26.6127 20.4196 26.6127 20.2229Z" fill="#ABE2DD"/>
<rect x="4.5" y="4" width="48" height="48" rx="24" stroke="#E7FBF9" stroke-width="8"/>
</svg>
