<svg width="21" height="21" viewBox="0 0 21 21" fill="none" xmlns="http://www.w3.org/2000/svg">
<path d="M10.315 0C4.62747 0 0 4.62747 0 10.315C0 16.0025 4.62747 20.63 10.315 20.63C16.0025 20.63 20.63 16.0025 20.63 10.315C20.63 4.62747 16.0025 0 10.315 0ZM10.315 1.58692C15.1448 1.58692 19.0431 5.4852 19.0431 10.315C19.0431 15.1448 15.1448 19.0431 10.315 19.0431C5.4852 19.0431 1.58692 15.1448 1.58692 10.315C1.58692 5.4852 5.4852 1.58692 10.315 1.58692ZM7.31572 6.17313L6.17313 7.31572L9.17559 10.315L6.17472 13.3143L7.3173 14.4569L10.315 11.4552L13.3143 14.4545L14.4569 13.3143L11.4552 10.315L14.4545 7.31572L13.3143 6.17313L10.315 9.17559L7.31572 6.17472V6.17313Z" fill="#667085"/>
</svg>
