<svg width="75" height="74" viewBox="0 0 75 74" fill="none" xmlns="http://www.w3.org/2000/svg">
<rect x="0.0999756" width="74" height="74" rx="37" fill="#F1FBF5"/>
<path d="M28.6868 35.7218C28.6868 40.6887 32.7132 44.7151 37.6801 44.7151C42.6469 44.7151 46.6734 40.6887 46.6734 35.7218C46.6734 30.7549 42.6469 26.7285 37.6801 26.7285C32.7156 26.7341 28.6923 30.7574 28.6868 35.7218ZM37.6801 36.2901C36.1877 36.2985 34.9231 35.1932 34.7322 33.7129C34.5412 32.2331 35.4837 30.8426 36.9295 30.4722V29.7119C36.9295 29.3676 37.2085 29.0887 37.5528 29.0887C37.8971 29.0887 38.176 29.3676 38.176 29.7119V30.4343C39.5902 30.6736 40.6224 31.903 40.6134 33.3377C40.6134 33.6778 40.3376 33.9536 39.9974 33.9536C39.6573 33.9536 39.3815 33.6778 39.3815 33.3377C39.3804 32.3962 38.6167 31.6338 37.6752 31.6349C36.7337 31.6359 35.9713 32.4 35.9727 33.3415C35.9738 34.2826 36.7379 35.045 37.6794 35.0436C39.2059 35.0523 40.4736 36.2237 40.6026 37.7449C40.7316 39.2659 39.6792 40.6341 38.176 40.8998V41.6427C38.176 41.987 37.8971 42.2659 37.5528 42.2659C37.2085 42.2659 36.9295 41.987 36.9295 41.6427V40.8615C35.627 40.5176 34.7169 39.3434 34.7082 37.9964C34.7082 37.6483 34.9906 37.3658 35.3387 37.3658C35.6869 37.3658 35.9693 37.6483 35.9693 37.9964C35.9713 38.8669 36.6273 39.597 37.4926 39.6919C37.5246 39.6867 37.5573 39.6843 37.59 39.6839C37.6369 39.6839 37.6835 39.6895 37.7295 39.6999C38.6643 39.677 39.4062 38.9055 39.3926 37.9707C39.3791 37.0354 38.6149 36.2859 37.6801 36.2901Z" fill="#0D9488"/>
<path d="M52.1133 49.0031C52.1088 49.0055 52.1039 49.008 52.0987 49.0104L46.3131 51.7437C46.3754 52.064 46.4025 52.3899 46.3938 52.7162C46.3848 53.0535 46.1086 53.3224 45.7713 53.3224C45.7653 53.3224 45.7594 53.3224 45.7535 53.3224L37.2861 53.0893C36.9418 53.08 36.6705 52.7934 36.6799 52.4491C36.6893 52.1047 36.9762 51.8335 37.3202 51.8428L45.1035 52.0571C44.8454 50.5487 43.5593 49.4316 42.0297 49.3871L36.8788 49.2455C35.8615 49.2163 34.864 48.9586 33.9601 48.4915L33.436 48.2202C30.862 46.8791 27.7603 47.0537 25.3532 48.6755L25.147 56.1687L26.0321 55.6947C26.9117 55.2217 27.9408 55.109 28.9021 55.3806L37.6436 57.8343C39.3283 58.1793 41.0791 57.9839 42.6463 57.2751L54.7569 49.4413C54.0658 48.7339 52.9957 48.5562 52.1133 49.0031Z" fill="#0D9488"/>
<path d="M19.4584 57.4689L19.7655 46.3203L24.1679 46.4417L23.8608 57.5903L19.4584 57.4689Z" fill="#0D9488"/>
<path d="M38.2654 23.39V16.6232C38.2654 16.2789 37.9865 16 37.6422 16C37.2979 16 37.0189 16.2789 37.0189 16.6232V23.39C37.0189 23.7343 37.2979 24.0132 37.6422 24.0132C37.9865 24.0132 38.2654 23.7343 38.2654 23.39Z" fill="#ABE2DD"/>
<path d="M43.6072 23.3891V20.1838C43.6072 19.8395 43.3283 19.5605 42.984 19.5605C42.6396 19.5605 42.3607 19.8395 42.3607 20.1838V23.3891C42.3607 23.7334 42.6396 24.0123 42.984 24.0123C43.3283 24.0123 43.6072 23.7334 43.6072 23.3891Z" fill="#ABE2DD"/>
<path d="M32.9226 23.391V20.1857C32.9226 19.8414 32.6437 19.5625 32.2994 19.5625C31.9551 19.5625 31.6761 19.8414 31.6761 20.1857V23.391C31.6761 23.7354 31.9551 24.0143 32.2994 24.0143C32.6437 24.0143 32.9226 23.7354 32.9226 23.391Z" fill="#ABE2DD"/>
</svg>
