<svg width="75" height="74" viewBox="0 0 75 74" fill="none" xmlns="http://www.w3.org/2000/svg">
<rect x="0.5" width="74" height="74" rx="37" fill="#F1FBF5"/>
<g clip-path="url(#clip0_556_1436)">
<path d="M41.4375 16H21.3125C18.6525 16 16.5 18.1525 16.5 20.8125V47.9375C16.5 50.5975 18.6525 52.75 21.3125 52.75H35.5575C34.0175 50.65 33.125 48.095 33.125 45.3125C33.125 38.3125 38.8125 32.625 45.8125 32.625C45.9525 32.625 46.11 32.625 46.25 32.6425V20.8125C46.25 18.1525 44.0975 16 41.4375 16ZM23.5 23H30.5C31.4625 23 32.25 23.7875 32.25 24.75C32.25 25.7125 31.4625 26.5 30.5 26.5H23.5C22.5375 26.5 21.75 25.7125 21.75 24.75C21.75 23.7875 22.5375 23 23.5 23ZM32.25 40.5H23.5C22.5375 40.5 21.75 39.7125 21.75 38.75C21.75 37.7875 22.5375 37 23.5 37H32.25C33.2125 37 34 37.7875 34 38.75C34 39.7125 33.2125 40.5 32.25 40.5ZM39.25 33.5H23.5C22.5375 33.5 21.75 32.7125 21.75 31.75C21.75 30.7875 22.5375 30 23.5 30H39.25C40.2125 30 41 30.7875 41 31.75C41 32.7125 40.2125 33.5 39.25 33.5Z" fill="#0D9488"/>
<path d="M45.8125 54.5C40.7463 54.5 36.625 50.3787 36.625 45.3125C36.625 40.2463 40.7463 36.125 45.8125 36.125C50.8787 36.125 55 40.2463 55 45.3125C55 50.3787 50.8787 54.5 45.8125 54.5ZM45.8125 39.625C42.6765 39.625 40.125 42.1765 40.125 45.3125C40.125 48.4485 42.6765 51 45.8125 51C48.9485 51 51.5 48.4485 51.5 45.3125C51.5 42.1765 48.9485 39.625 45.8125 39.625Z" fill="#96D2C9"/>
<path d="M56.7504 58.0004C56.3024 58.0004 55.8544 57.8289 55.5132 57.4877L49.8257 51.8002C49.1414 51.1159 49.1414 50.0099 49.8257 49.3257C50.5099 48.6414 51.6159 48.6414 52.3002 49.3257L57.9877 55.0132C58.6719 55.6974 58.6719 56.8034 57.9877 57.4877C57.6464 57.8289 57.1984 58.0004 56.7504 58.0004Z" fill="#96D2C9"/>
</g>
<defs>
<clipPath id="clip0_556_1436">
<rect width="42" height="42" fill="white" transform="translate(16.5 16)"/>
</clipPath>
</defs>
</svg>
