<svg width="75" height="74" viewBox="0 0 75 74" fill="none" xmlns="http://www.w3.org/2000/svg">
<rect x="0.5" width="74" height="74" rx="37" fill="#F1FBF5"/>
<path opacity="0.4" d="M53.25 19.5V40.675C53.25 44 51.5 45.75 48.175 45.75H26.825C23.5 45.75 21.75 44 21.75 40.675V19.5H53.25Z" fill="#0D9488"/>
<path d="M55 20.8125H20C19.2825 20.8125 18.6875 20.2175 18.6875 19.5C18.6875 18.7825 19.2825 18.1875 20 18.1875H55C55.7175 18.1875 56.3125 18.7825 56.3125 19.5C56.3125 20.2175 55.7175 20.8125 55 20.8125Z" fill="#0D9488"/>
<path d="M45.6725 55.095C45.445 55.55 44.9725 55.8125 44.5 55.8125C44.3075 55.8125 44.0975 55.76 43.9225 55.6725L37.5 52.47L31.0775 55.6725C30.9025 55.76 30.6925 55.8125 30.5 55.8125C30.0275 55.8125 29.555 55.55 29.3275 55.095C28.995 54.43 29.2575 53.6425 29.9225 53.3275L36.1875 50.195V45.75H38.8125V50.195L45.0775 53.3275C45.7425 53.6425 46.005 54.43 45.6725 55.095Z" fill="#0D9488"/>
<path d="M29.625 36.5631C29.2575 36.5631 28.8725 36.4056 28.61 36.0906C28.1375 35.5306 28.225 34.7081 28.785 34.2356L34.2975 29.6331C34.805 29.2131 35.4525 29.0381 36.065 29.1431C36.695 29.2481 37.2375 29.6331 37.57 30.1931L39.4075 33.2556L44.535 28.9856C45.095 28.5131 45.9175 28.6006 46.39 29.1606C46.8625 29.7206 46.775 30.5431 46.215 31.0156L40.7025 35.6181C40.195 36.0381 39.5475 36.2131 38.935 36.1081C38.305 36.0031 37.7625 35.6181 37.43 35.0581L35.5925 31.9956L30.465 36.2656C30.22 36.4581 29.9225 36.5631 29.625 36.5631Z" fill="#0D9488"/>
</svg>
