<svg width="75" height="74" viewBox="0 0 75 74" fill="none" xmlns="http://www.w3.org/2000/svg">
<rect x="0.299927" width="74" height="74" rx="37" fill="#F1FBF5"/>
<g clip-path="url(#clip0_556_1455)">
<path fill-rule="evenodd" clip-rule="evenodd" d="M33.0898 51.5468C33.3134 52.163 33.3026 52.84 33.0595 53.4488C32.8164 54.0576 32.358 54.5557 31.7715 54.8485L30.1498 55.6652L25.4831 49.0618L18.8331 44.3602L19.6498 42.7268C19.9385 42.1369 20.437 41.6761 21.0477 41.4344C21.6584 41.1927 22.3372 41.1876 22.9515 41.4202L26.6731 42.8318L33.4515 34.9102L36.7881 36.4968C37.3447 36.7592 37.7909 37.2095 38.0481 37.7685L39.6348 41.1052L31.7248 47.8835L33.0898 51.5468Z" fill="#0D9488"/>
<path fill-rule="evenodd" clip-rule="evenodd" d="M56.1665 22.9992C56.1654 23.613 56.0433 24.2206 55.807 24.7872C55.5708 25.3537 55.2251 25.8681 54.7898 26.3009L49.9831 31.1659L49.6098 29.9992C49.221 28.805 48.5554 27.7197 47.6674 26.8316C46.7794 25.9436 45.694 25.278 44.4998 24.8892L43.3331 24.5042L48.1515 19.7092C48.8008 19.0403 49.6356 18.5812 50.5483 18.391C51.4609 18.2009 52.4096 18.2885 53.2721 18.6425C54.1345 18.9965 54.8711 19.6007 55.387 20.3772C55.9029 21.1538 56.1744 22.067 56.1665 22.9992Z" fill="#0D9488"/>
<path fill-rule="evenodd" clip-rule="evenodd" d="M51.5001 48.8399L47.5918 51.4415L40.4751 36.5665C39.9554 35.4578 39.0638 34.5662 37.9551 34.0465L23.0568 26.9299L25.6584 22.9982C25.9928 22.4992 26.4849 22.1268 27.0561 21.9407C27.6272 21.7545 28.2442 21.7654 28.8084 21.9715C28.8084 21.9715 42.4818 26.9882 43.6951 27.3849C44.4845 27.6446 45.2019 28.0861 45.7896 28.6737C46.3772 29.2614 46.8187 29.9788 47.0784 30.7682C47.0784 30.7682 51.5001 43.0999 52.4918 45.6899C52.7013 46.2503 52.7176 46.8648 52.5379 47.4355C52.3582 48.0062 51.9929 48.5006 51.5001 48.8399Z" fill="#96D2C9"/>
</g>
<defs>
<clipPath id="clip0_556_1455">
<rect width="42" height="42" fill="white" transform="translate(16.2999 16)"/>
</clipPath>
</defs>
</svg>
