<svg width="57" height="56" viewBox="0 0 57 56" fill="none" xmlns="http://www.w3.org/2000/svg">
<rect x="4.5" y="4" width="48" height="48" rx="24" fill="white"/>
<g clip-path="url(#clip0_556_1338)">
<path d="M28.6522 34.9783C28.6526 33.792 28.9726 32.6278 29.5787 31.6081C30.1848 30.5884 31.0545 29.7509 32.0964 29.1837C33.1382 28.6165 34.3137 28.3405 35.4991 28.3849C36.6845 28.4293 37.836 28.7923 38.8325 29.4358C38.8396 28.9469 38.8433 28.4252 38.8433 27.8622C38.8433 24.9677 38.7449 23.1611 38.5504 21.2898H38.578C38.4704 20.2471 38.0722 19.2556 37.4287 18.4281C36.7852 17.6006 35.9223 16.9704 34.9382 16.6094C34.8861 16.5897 34.8341 16.5709 34.7816 16.5531C34.3927 16.4224 33.9906 16.3348 33.5825 16.292L33.5436 16.2878C31.9869 16.128 31.7371 16 28.4544 16C25.1718 16 24.6407 16.128 23.0854 16.2902L23.0464 16.2944C22.6181 16.3394 22.1964 16.4337 21.7897 16.5756V16.5545C20.7757 16.8993 19.8819 17.5275 19.2141 18.3648C18.5463 19.2021 18.1325 20.2133 18.0219 21.2786C17.8269 23.1536 17.7275 24.962 17.7275 27.8622C17.7275 30.7623 17.8269 32.5708 18.0219 34.4458C18.1551 35.7253 18.7242 36.92 19.6339 37.8296C20.5435 38.7392 21.7384 39.3082 23.0179 39.4412L23.0568 39.4455C24.6135 39.6077 24.8629 39.7356 28.1455 39.7356C29.233 39.7356 30.0205 39.7216 30.6388 39.6967C30.0092 39.0829 29.509 38.3491 29.1677 37.5386C28.8265 36.7282 28.6512 35.8576 28.6522 34.9783ZM23.1679 22.2414H33.4011C33.6973 22.2414 33.9813 22.359 34.1907 22.5684C34.4001 22.7778 34.5177 23.0618 34.5177 23.358C34.5177 23.6541 34.4001 23.9381 34.1907 24.1475C33.9813 24.3569 33.6973 24.4745 33.4011 24.4745H23.1702C22.8741 24.4745 22.5901 24.3569 22.3807 24.1475C22.1713 23.9381 22.0536 23.6541 22.0536 23.358C22.0536 23.0618 22.1713 22.7778 22.3807 22.5684C22.5901 22.359 22.8741 22.2414 23.1702 22.2414H23.1679ZM23.1679 29.2525C22.8756 29.2465 22.5974 29.1262 22.3928 28.9174C22.1883 28.7086 22.0737 28.428 22.0737 28.1357C22.0737 27.8434 22.1883 27.5628 22.3928 27.354C22.5974 27.1452 22.8756 27.0249 23.1679 27.0189H29.0043C29.1528 27.0159 29.3005 27.0425 29.4387 27.0973C29.5769 27.152 29.7027 27.2338 29.8089 27.3378C29.915 27.4418 29.9994 27.5659 30.0569 27.703C30.1145 27.84 30.1442 27.9871 30.1442 28.1357C30.1442 28.2843 30.1145 28.4314 30.0569 28.5685C29.9994 28.7055 29.915 28.8296 29.8089 28.9336C29.7027 29.0376 29.5769 29.1194 29.4387 29.1742C29.3005 29.2289 29.1528 29.2555 29.0043 29.2525H23.1679Z" fill="#0D9488"/>
<path d="M35.2512 29.957C34.258 29.957 33.2871 30.2515 32.4613 30.8033C31.6355 31.3551 30.9918 32.1394 30.6118 33.057C30.2317 33.9746 30.1322 34.9843 30.326 35.9584C30.5197 36.9326 30.998 37.8273 31.7003 38.5296C32.4026 39.2319 33.2974 39.7102 34.2715 39.904C35.2456 40.0977 36.2553 39.9983 37.1729 39.6182C38.0905 39.2381 38.8748 38.5945 39.4266 37.7687C39.9784 36.9429 40.2729 35.972 40.2729 34.9788C40.2729 33.6469 39.7439 32.3696 38.8021 31.4279C37.8603 30.4861 36.5831 29.957 35.2512 29.957ZM37.2415 35.7137H35.1514C34.9929 35.7137 34.8408 35.6508 34.7288 35.5387C34.6167 35.4266 34.5537 35.2746 34.5537 35.1161V31.9052C34.5537 31.7466 34.6167 31.5946 34.7288 31.4826C34.8408 31.3705 34.9929 31.3075 35.1514 31.3075C35.3099 31.3075 35.4619 31.3705 35.574 31.4826C35.6861 31.5946 35.749 31.7466 35.749 31.9052V34.5184H37.2415C37.4 34.5184 37.5521 34.5814 37.6641 34.6935C37.7762 34.8056 37.8392 34.9576 37.8392 35.1161C37.8392 35.2746 37.7762 35.4266 37.6641 35.5387C37.5521 35.6508 37.4 35.7137 37.2415 35.7137Z" fill="#96D2C9"/>
</g>
<rect x="4.5" y="4" width="48" height="48" rx="24" stroke="#E7FBF9" stroke-width="8"/>
<defs>
<clipPath id="clip0_556_1338">
<rect width="24" height="24" fill="white" transform="translate(17 16)"/>
</clipPath>
</defs>
</svg>
