<svg width="75" height="74" viewBox="0 0 75 74" fill="none" xmlns="http://www.w3.org/2000/svg">
<rect x="0.699951" width="74" height="74" rx="37" fill="white"/>
<g clip-path="url(#clip0_556_1413)">
<g clip-path="url(#clip1_556_1413)">
<path d="M53.5394 49.7207H36.5294C34.614 49.7207 32.8831 50.8789 32.164 52.6671L31.9985 53.068V54.1243C31.9985 54.8752 32.6094 55.4862 33.3604 55.4862H56.6958C57.4467 55.4862 58.0576 54.8752 58.0576 54.1243V53.068C57.4404 51.0762 55.6076 49.7207 53.5394 49.7207Z" fill="#96D2C9"/>
<path d="M38.1963 44.8145C37.0699 44.8145 36.1599 45.7245 36.1599 46.8508V48.4608H53.8826V46.8508C53.8826 45.7245 52.9726 44.8145 51.8463 44.8145H38.1963Z" fill="#96D2C9"/>
<path d="M33.8708 29.9258L40.6639 23.1135L47.7419 30.1716L40.9489 36.9839L33.8708 29.9258Z" fill="#0D9488"/>
<path d="M32.3804 40.2401L30.6495 38.5155C30.2485 38.1146 29.5995 38.1146 29.1985 38.5155L18.2467 49.4992C17.8458 49.9001 17.8458 50.5492 18.2467 50.9501L19.9776 52.6746C20.3785 53.0755 21.0276 53.0755 21.4285 52.6746L32.3804 41.691C32.7876 41.2901 32.7813 40.641 32.3804 40.2401Z" fill="#0D9488"/>
<path d="M30.8595 29.3255C31.3686 29.8346 32.1958 29.8346 32.7113 29.3255L40.0549 21.9564C40.564 21.4473 40.564 20.62 40.0549 20.1046L38.8458 18.8955C38.3367 18.3864 37.5095 18.3864 36.994 18.8955L29.6504 26.2709C29.1413 26.78 29.1413 27.6073 29.6504 28.1228L30.8595 29.3255Z" fill="#0D9488"/>
<path d="M41.5691 39.9973L42.7782 41.2064C43.2873 41.7154 44.1145 41.7154 44.63 41.2064L51.9736 33.8373C52.4827 33.3282 52.4827 32.5009 51.9736 31.9854L50.7645 30.7763C50.2554 30.2673 49.4282 30.2673 48.9127 30.7763L41.5691 38.1518C41.06 38.6609 41.06 39.4882 41.5691 39.9973Z" fill="#0D9488"/>
<path d="M35.3009 33.2656L31.2664 37.4084C31.3554 37.4784 31.4509 37.542 31.5336 37.6247L33.2645 39.3493C33.3473 39.432 33.4173 39.5211 33.4809 39.6165L37.5154 35.4738L35.3009 33.2656Z" fill="#0D9488"/>
</g>
</g>
<defs>
<clipPath id="clip0_556_1413">
<rect width="42" height="42" fill="white" transform="translate(16.7 16)"/>
</clipPath>
<clipPath id="clip1_556_1413">
<rect width="42" height="42" fill="white" transform="translate(16.9998 16)"/>
</clipPath>
</defs>
</svg>
