<svg width="75" height="74" viewBox="0 0 75 74" fill="none" xmlns="http://www.w3.org/2000/svg">
<rect x="0.899902" width="74" height="74" rx="37" fill="white"/>
<g clip-path="url(#clip0_556_1398)">
<path d="M37.888 21.5361C28.7332 13.529 17.0931 20.5643 16.9023 30.1017C16.8536 32.5324 17.5553 34.9 18.9519 37.0828H28.0045L29.6147 34.3991C30.0822 33.62 31.2137 33.5949 31.7077 34.3716L35.1049 39.7101L40.057 29.2559C40.4889 28.3437 41.7759 28.3147 42.2523 29.1993L46.4972 37.0828H56.824C64.4738 25.1268 49.3552 11.5065 37.888 21.5361Z" fill="#0D9488"/>
<path d="M44.6787 38.896L41.2389 32.5078L36.3748 42.7765C35.9609 43.6502 34.7438 43.726 34.2248 42.9104L30.7002 37.3718L29.7558 38.9457C29.5335 39.3163 29.133 39.543 28.7008 39.543H20.8979C21.1425 39.799 19.8389 38.498 37.0198 55.5899C37.4996 56.0674 38.2754 56.0674 38.7553 55.5899C55.6718 38.761 54.633 39.7985 54.8771 39.543H45.762C45.3093 39.5431 44.8933 39.2946 44.6787 38.896Z" fill="#9ED4CF"/>
</g>
<defs>
<clipPath id="clip0_556_1398">
<rect width="42" height="42" fill="white" transform="translate(16.8999 16)"/>
</clipPath>
</defs>
</svg>
