<svg width="57" height="56" viewBox="0 0 57 56" fill="none" xmlns="http://www.w3.org/2000/svg">
<rect x="4.5" y="4" width="48" height="48" rx="24" fill="white"/>
<path d="M33.1797 29.7699L39.7497 25.1699V34.9999C39.7497 35.6899 39.5497 36.3299 39.2197 36.8899L33.1797 29.7699Z" fill="#0D9488"/>
<path d="M28.86 30.7609C28.95 30.8209 29.06 30.8209 29.15 30.7609L39.01 23.8609L30 17.5709C29.4 17.1509 28.59 17.1509 27.99 17.5709L19 23.8609L28.86 30.7609Z" fill="#ABE2DD"/>
<path d="M18.25 25.1699V34.9999C18.25 35.6899 18.45 36.3299 18.78 36.8899L24.82 29.7699L18.25 25.1699Z" fill="#0D9488"/>
<path d="M32.14 31L30.2 32.36C29.9 32.57 29.55 32.68 29.2 32.68C28.85 32.68 28.5 32.57 28.2 32.36L26.26 31L20 38.38C20.62 38.84 21.38 39.11 22.21 39.11H36.21C37.04 39.11 37.8 38.83 38.42 38.38L32.16 31H32.14Z" fill="#0D9488"/>
<rect x="4.5" y="4" width="48" height="48" rx="24" stroke="#E7FBF9" stroke-width="8"/>
</svg>
