<svg width="75" height="74" viewBox="0 0 75 74" fill="none" xmlns="http://www.w3.org/2000/svg">
<rect x="0.899902" width="74" height="74" rx="37" fill="white"/>
<path d="M34.7915 19.2285C34.7915 19.1423 34.7745 19.057 34.7416 18.9774C34.7086 18.8977 34.6603 18.8254 34.5993 18.7644C34.5384 18.7035 34.466 18.6551 34.3864 18.6222C34.3068 18.5892 34.2214 18.5722 34.1352 18.5723H24.5831C22.4653 18.5723 20.7427 20.027 20.7427 21.8151V46.8154C20.7427 46.9894 20.8118 47.1563 20.9349 47.2794C21.058 47.4025 21.2249 47.4716 21.3989 47.4716C21.573 47.4716 21.7399 47.4025 21.863 47.2794C21.986 47.1563 22.0552 46.9894 22.0552 46.8154V21.8151C22.0552 20.7506 23.1892 19.8848 24.5831 19.8848H34.1352C34.2214 19.8848 34.3068 19.8678 34.3864 19.8349C34.466 19.8019 34.5384 19.7535 34.5993 19.6926C34.6603 19.6317 34.7086 19.5593 34.7416 19.4797C34.7745 19.4 34.7915 19.3147 34.7915 19.2285Z" fill="#96D2C9"/>
<path d="M47.8881 41.082C45.9866 41.0846 44.1636 41.8411 42.819 43.1857C41.4744 44.5303 40.7179 46.3533 40.7153 48.2548C41.1065 57.7705 54.6672 57.768 55.061 48.2548C55.0573 46.3536 54.3004 44.5313 52.956 43.1869C51.6117 41.8426 49.7894 41.0857 47.8881 41.082ZM44.5216 45.0786C46.1034 43.5128 48.7056 45.6549 47.1269 47.3755C45.5466 48.9482 42.9545 46.803 44.5216 45.0786ZM45.2894 51.3392C45.1567 51.449 44.9862 51.5023 44.8145 51.4875C44.6429 51.4727 44.484 51.3911 44.3721 51.2602C44.2601 51.1293 44.2041 50.9596 44.2161 50.7878C44.2281 50.6159 44.3072 50.4557 44.4363 50.3417L50.4869 45.1705C50.6197 45.0613 50.7899 45.0086 50.9612 45.0236C51.1324 45.0387 51.2909 45.1203 51.4026 45.2509C51.5143 45.3815 51.5703 45.5507 51.5586 45.7222C51.5469 45.8937 51.4684 46.0537 51.34 46.168L45.2894 51.3392ZM51.1694 51.3589C49.544 52.9427 46.9506 50.7117 48.6166 49.0029C50.2323 47.53 52.7222 49.6675 51.1694 51.3589Z" fill="#96D2C9"/>
<path d="M49.87 49.8281C49.287 49.8301 49.2287 50.5589 49.87 50.5762C50.4525 50.5829 50.5051 49.8479 49.87 49.8281Z" fill="#0D9488"/>
<path d="M45.8279 46.5998C46.4104 46.6064 46.463 45.8714 45.8279 45.8517C45.2479 45.8422 45.1848 46.5807 45.8279 46.5998Z" fill="#0D9488"/>
<path d="M44.9809 26.1375C46.0239 26.1275 48.9447 26.0981 48.9447 26.0981L44.5347 22.2656V25.7897C44.5566 26.0285 44.7536 26.1309 44.9809 26.1375Z" fill="#0D9488"/>
<path d="M39.4031 48.2534C39.4081 47.0179 39.6819 45.7983 40.2056 44.6792C40.7292 43.5602 41.4901 42.5685 42.4354 41.773C43.3808 40.9775 44.4879 40.3973 45.68 40.0726C46.8721 39.7479 48.1206 39.6866 49.3388 39.8928L49.3387 27.4109C48.4772 27.4219 45.8653 27.4422 44.9615 27.4503C44.5119 27.4568 44.0777 27.2864 43.7524 26.9759C43.4271 26.6653 43.2368 26.2395 43.2225 25.79V21.8984H27.5709C26.8167 21.8706 26.0822 22.1431 25.5286 22.6561C24.975 23.1692 24.6474 23.8808 24.6178 24.635V48.8769C24.6489 49.63 24.9771 50.3401 25.5306 50.8517C26.084 51.3634 26.8177 51.6349 27.5709 51.6069H40.0987C39.6376 50.5491 39.4008 49.4073 39.4031 48.2534ZM40.5712 29.5503C40.4735 29.4083 40.4356 29.2336 40.4655 29.0639C40.4955 28.8942 40.591 28.7431 40.7314 28.6432C40.8718 28.5433 41.0459 28.5026 41.2161 28.5299C41.3862 28.5572 41.5388 28.6503 41.6409 28.7891L43.0059 30.6987L44.3709 28.789C44.4727 28.6472 44.6267 28.5516 44.799 28.5233C44.9713 28.495 45.1478 28.5363 45.2897 28.6381C45.4315 28.7399 45.5271 28.8939 45.5554 29.0662C45.5837 29.2385 45.5424 29.415 45.4406 29.5569L43.8131 31.834L45.434 34.1112C45.4849 34.181 45.5215 34.2601 45.5416 34.3441C45.5617 34.428 45.565 34.5152 45.5513 34.6004C45.5375 34.6856 45.5071 34.7673 45.4616 34.8407C45.4161 34.9141 45.3566 34.9778 45.2864 35.028C45.2162 35.0783 45.1368 35.1142 45.0526 35.1335C44.9685 35.1529 44.8814 35.1555 44.7963 35.141C44.7111 35.1266 44.6297 35.0954 44.5567 35.0493C44.4837 35.0032 44.4206 34.9431 44.3709 34.8725L43.0059 32.9562L41.6344 34.8725C41.5309 35.01 41.3777 35.1015 41.2076 35.1275C41.0375 35.1535 40.8639 35.1118 40.7241 35.0115C40.5843 34.9111 40.4894 34.76 40.4596 34.5905C40.4298 34.4211 40.4675 34.2466 40.5647 34.1046L42.1987 31.8275L40.5712 29.5503ZM36.2531 28.9072C36.305 28.7913 36.3893 28.6929 36.4958 28.6239C36.6024 28.5549 36.7266 28.5181 36.8536 28.5181C36.9805 28.5181 37.1048 28.5549 37.2113 28.6239C37.3179 28.6929 37.4022 28.7913 37.454 28.9072L38.7075 31.7553C38.7022 31.7624 39.7903 34.2228 39.7903 34.2294C39.8248 34.3082 39.8434 34.3931 39.845 34.4791C39.8467 34.5652 39.8314 34.6507 39.8 34.7308C39.7687 34.811 39.7218 34.8841 39.6621 34.9462C39.6025 35.0082 39.5312 35.0579 39.4523 35.0923C39.3735 35.1268 39.2886 35.1454 39.2026 35.1471C39.1165 35.1487 39.031 35.1335 38.9508 35.1021C38.8707 35.0707 38.7975 35.0238 38.7355 34.9642C38.6735 34.9045 38.6238 34.8332 38.5894 34.7544L37.6772 32.674H36.0365L35.1244 34.7544C35.0529 34.9108 34.9229 35.033 34.7622 35.0944C34.6015 35.1559 34.4232 35.1517 34.2656 35.0828C34.108 35.0139 33.9838 34.8858 33.9197 34.7261C33.8557 34.5665 33.8571 34.388 33.9234 34.2294C34.5001 32.9175 35.6772 30.2287 36.2531 28.9072ZM29.0409 28.0934H33.6019C33.7759 28.0934 33.9428 28.1626 34.0659 28.2856C34.189 28.4087 34.2581 28.5756 34.2581 28.7497C34.2581 28.9237 34.189 29.0906 34.0659 29.2137C33.9428 29.3368 33.7759 29.4059 33.6019 29.4059H31.9809V34.4919C31.9777 34.6638 31.9072 34.8276 31.7845 34.9481C31.6617 35.0686 31.4966 35.1361 31.3247 35.1361C31.1527 35.1361 30.9876 35.0686 30.8648 34.9481C30.7421 34.8276 30.6716 34.6638 30.6684 34.4918V29.4059H29.0409C28.8686 29.4034 28.7041 29.3331 28.5831 29.2103C28.4622 29.0875 28.3943 28.9221 28.3943 28.7497C28.3943 28.5773 28.4622 28.4118 28.5831 28.289C28.7041 28.1662 28.8686 28.096 29.0409 28.0934ZM36.0365 46.4881H28.1615C27.9875 46.4881 27.8206 46.419 27.6975 46.2959C27.5744 46.1728 27.5053 46.0059 27.5053 45.8319C27.5053 45.6578 27.5744 45.4909 27.6975 45.3678C27.8206 45.2447 27.9875 45.1756 28.1615 45.1756H36.0365C36.2089 45.1782 36.3733 45.2484 36.4943 45.3712C36.6153 45.494 36.6831 45.6595 36.6831 45.8319C36.6831 46.0042 36.6153 46.1697 36.4943 46.2925C36.3733 46.4153 36.2089 46.4855 36.0365 46.4881ZM38.6615 43.2134H28.1615C27.9893 43.2108 27.8249 43.1404 27.704 43.0177C27.5831 42.8949 27.5154 42.7295 27.5154 42.5572C27.5154 42.3849 27.5831 42.2195 27.704 42.0967C27.8249 41.9739 27.9893 41.9036 28.1615 41.9009H38.6615C38.8338 41.9036 38.9982 41.9739 39.1191 42.0967C39.2399 42.2195 39.3077 42.3849 39.3077 42.5572C39.3077 42.7295 39.2399 42.8949 39.1191 43.0177C38.9982 43.1404 38.8338 43.2108 38.6615 43.2134ZM38.6615 39.9387H28.1615C27.9893 39.9361 27.8249 39.8657 27.704 39.743C27.5831 39.6202 27.5154 39.4548 27.5154 39.2825C27.5154 39.1102 27.5831 38.9448 27.704 38.822C27.8249 38.6992 27.9893 38.6289 28.1615 38.6262H38.6615C38.8338 38.6289 38.9982 38.6992 39.1191 38.822C39.2399 38.9448 39.3077 39.1102 39.3077 39.2825C39.3077 39.4548 39.2399 39.6202 39.1191 39.743C38.9982 39.8657 38.8338 39.9361 38.6615 39.9387Z" fill="#0D9488"/>
<path d="M36.8566 30.8047L36.6138 31.3625H37.0994L36.8566 30.8047Z" fill="#0D9488"/>
</svg>
