<svg width="75" height="74" viewBox="0 0 75 74" fill="none" xmlns="http://www.w3.org/2000/svg">
<rect x="0.699951" width="74" height="74" rx="37" fill="white"/>
<path opacity="0.4" d="M55.2 29.6675V42.53C54.6925 42.285 54.1324 42.11 53.5024 42.005L52.96 41.9175L52.5049 40.9725C51.5424 39.0125 49.9675 37.875 48.2 37.875C46.4325 37.875 44.8575 39.0125 43.895 40.9725L43.4224 41.9175L42.8975 42.005C40.815 42.355 39.3099 43.51 38.7674 45.155C38.2424 46.8175 38.785 48.6375 40.2725 50.1425L40.8149 50.685L40.7625 50.895C40.4125 52.4525 40.5525 53.6425 40.885 54.5H30.3674C23.9974 54.5 20.2 50.7025 20.2 44.3325V29.6675C20.2 23.2975 23.9974 19.5 30.3674 19.5H45.0325C51.4025 19.5 55.2 23.2975 55.2 29.6675Z" fill="#0D9488"/>
<path d="M50.1599 42.1445L50.7199 43.282C50.9999 43.842 51.7174 44.367 52.3124 44.472L53.0649 44.5945C55.3574 44.9795 55.8824 46.6595 54.2549 48.3045L53.5549 49.0045C53.0824 49.477 52.8374 50.387 52.9774 51.052L53.0649 51.472C53.6949 54.237 52.2249 55.3045 49.8274 53.852L49.3199 53.537C48.7074 53.1695 47.6924 53.1695 47.0799 53.537L46.5724 53.852C44.1574 55.3045 42.7049 54.237 43.3349 51.472L43.4224 51.052C43.5624 50.4045 43.3174 49.477 42.8449 49.0045L42.1449 48.3045C40.5174 46.642 41.0424 44.9795 43.3349 44.5945L44.0874 44.472C44.6999 44.367 45.3999 43.842 45.6799 43.282L46.2399 42.1445C47.3249 39.957 49.0749 39.957 50.1599 42.1445Z" fill="#0D9488"/>
<path fill-rule="evenodd" clip-rule="evenodd" d="M44.9266 29.8553C45.4995 30.2994 45.6039 31.1239 45.1598 31.6968L41.1095 36.9217C40.0685 38.2383 38.149 38.4785 36.8099 37.4437L36.8008 37.4366L33.6043 34.9213C33.4068 34.7713 33.1314 34.8087 32.9814 35.0021C32.9813 35.0023 32.9815 35.0019 32.9814 35.0021L28.8172 40.4085C28.3749 40.9828 27.5508 41.0898 26.9765 40.6475C26.4022 40.2051 26.2953 39.381 26.7376 38.8067L30.9039 33.3976C31.9432 32.0526 33.8703 31.8095 35.2124 32.8466L35.2216 32.8536L38.4181 35.369C38.6177 35.5205 38.8988 35.4815 39.0477 35.2969L43.0851 30.0885C43.5292 29.5156 44.3537 29.4112 44.9266 29.8553Z" fill="#0D9488"/>
</svg>
