<svg width="75" height="74" viewBox="0 0 75 74" fill="none" xmlns="http://www.w3.org/2000/svg">
<rect x="0.299927" width="74" height="74" rx="37" fill="#F1FBF5"/>
<path d="M29.439 30.3428C29.677 30.4618 29.964 30.4338 30.174 30.2728L33.24 27.9418L36.299 30.2728C36.425 30.3708 36.579 30.4198 36.726 30.4198C36.831 30.4198 36.936 30.3918 37.034 30.3428C37.279 30.2238 37.426 29.9858 37.426 29.7198V19.8008H29.054V29.7198C29.054 29.9858 29.201 30.2238 29.439 30.3428Z" fill="#0D9488"/>
<path d="M23.3699 46.6738H35.4379C34.9199 45.5398 34.6259 44.2938 34.6259 42.9708C34.6259 38.0358 38.6439 34.0178 43.5789 34.0178C44.6709 34.0178 45.7069 34.2208 46.6729 34.5778V23.3638C46.6729 21.3968 45.0769 19.8008 43.1099 19.8008H38.8259V29.7198C38.8259 30.5248 38.3709 31.2458 37.6429 31.6028C37.3629 31.7428 37.0479 31.8198 36.7259 31.8198C36.2639 31.8198 35.8089 31.6658 35.4379 31.3788L33.2399 29.6988L31.0209 31.3858C30.6639 31.6658 30.2089 31.8128 29.7469 31.8128C29.4249 31.8128 29.1029 31.7428 28.8159 31.5958C28.0949 31.2388 27.6539 30.5178 27.6539 29.7198V19.8008H23.3699C21.4029 19.8008 19.7999 21.3968 19.7999 23.3638V43.1038C19.7999 45.0708 21.4029 46.6738 23.3699 46.6738ZM24.3639 38.1198H27.6329C28.0179 38.1198 28.3329 38.4348 28.3329 38.8198C28.3329 39.2048 28.0179 39.5198 27.6329 39.5198H24.3639C23.9789 39.5198 23.6639 39.2048 23.6639 38.8198C23.6639 38.4348 23.9789 38.1198 24.3639 38.1198ZM24.3639 41.4028H27.6329C28.0179 41.4028 28.3329 41.7108 28.3329 42.1028C28.3329 42.4878 28.0179 42.8028 27.6329 42.8028H24.3639C23.9789 42.8028 23.6639 42.4878 23.6639 42.1028C23.6639 41.7108 23.9789 41.4028 24.3639 41.4028Z" fill="#0D9488"/>
<path d="M36.0255 42.971C36.0255 47.136 39.4135 50.524 43.5785 50.524C45.4125 50.524 47.0925 49.873 48.4015 48.781L53.6095 53.989C53.7425 54.122 53.9245 54.192 54.0995 54.192C54.2815 54.192 54.4635 54.122 54.5965 53.989C54.8695 53.716 54.8695 53.268 54.5965 52.995L49.3955 47.794C50.4805 46.485 51.1385 44.805 51.1385 42.971C51.1385 38.806 47.7505 35.418 43.5785 35.418C39.4135 35.418 36.0255 38.806 36.0255 42.971ZM49.7385 42.971C49.7385 46.366 46.9735 49.124 43.5785 49.124C40.1905 49.124 37.4255 46.366 37.4255 42.971C37.4255 39.576 40.1905 36.818 43.5785 36.818C46.9735 36.818 49.7385 39.576 49.7385 42.971Z" fill="#9ED4CF"/>
</svg>
