<svg width="16" height="15" viewBox="0 0 16 15" fill="none" xmlns="http://www.w3.org/2000/svg">
<g clip-path="url(#clip0_868_987)">
<path opacity="0.2" d="M5.79303 2.88963L6.39335 3.92923C6.19173 3.85158 5.971 3.83836 5.76156 3.89137C5.55212 3.94439 5.36426 4.06104 5.22387 4.22526C5.08348 4.38948 4.99746 4.59319 4.97766 4.80833C4.95786 5.02347 5.00526 5.23946 5.11331 5.42655L4.64903 4.62235C4.52983 4.41517 4.34292 4.25535 4.11974 4.16979L3.98371 3.93428C3.91511 3.81547 3.87059 3.68432 3.85269 3.54831C3.83478 3.4123 3.84384 3.27409 3.87935 3.14158C3.95105 2.87396 4.12614 2.6458 4.36607 2.50727C4.60601 2.36874 4.89115 2.3312 5.15877 2.40291C5.42639 2.47462 5.65456 2.6497 5.79308 2.88963H5.79303ZM12.3717 5.92693L11.3851 4.21807C11.2465 3.97812 11.0184 3.80304 10.7507 3.73132C10.4831 3.65961 10.198 3.69715 9.95802 3.83567C9.71807 3.9742 9.54298 4.20237 9.47127 4.47C9.39955 4.73762 9.43709 5.02277 9.57562 5.26271L8.06669 2.64914C7.92718 2.41116 7.6992 2.23803 7.43251 2.16752C7.16581 2.09701 6.88206 2.13485 6.64316 2.27278C6.40427 2.41071 6.22962 2.63753 6.15735 2.90375C6.08507 3.16997 6.12103 3.45397 6.25737 3.69378L6.39329 3.92929L6.39335 3.92934C6.61655 4.0149 6.80347 4.17472 6.92269 4.38191L8.43162 6.99542C8.32359 6.80834 8.27623 6.59237 8.29604 6.37726C8.31585 6.16214 8.40186 5.95845 8.54224 5.79425C8.68261 5.63004 8.87044 5.5134 9.07986 5.46037C9.28928 5.40734 9.50999 5.42055 9.7116 5.49816L9.71171 5.49834V5.49822C9.9349 5.58379 10.1218 5.7436 10.241 5.95078L11.2276 7.65964C11.5276 8.17796 11.7124 8.75482 11.7694 9.35096C11.8265 9.9471 11.7544 10.5485 11.5581 11.1143C12.2661 10.4728 12.733 9.60816 12.881 8.66431C13.029 7.72045 12.8493 6.75437 12.3717 5.92693Z" fill="#0F766E"/>
<path d="M11.684 4.04365C11.5619 3.83173 11.3861 3.65572 11.1744 3.53337C10.9626 3.41101 10.7223 3.34664 10.4777 3.34673C10.2332 3.34682 9.99295 3.41136 9.78127 3.53387C9.56959 3.65638 9.39394 3.83251 9.27202 4.04452L8.36567 2.47472C8.2424 2.26061 8.06434 2.0832 7.84979 1.96071C7.63524 1.83822 7.39194 1.77507 7.1449 1.77775C6.89786 1.78043 6.65599 1.84885 6.44415 1.97597C6.23231 2.1031 6.05814 2.28434 5.93955 2.50106C5.7337 2.26288 5.45325 2.10145 5.1439 2.04309C4.83455 1.98473 4.51455 2.03288 4.23608 2.17969C3.9576 2.3265 3.73707 2.56332 3.61043 2.85153C3.48379 3.13974 3.45852 3.46235 3.53873 3.76676C3.31385 3.7997 3.10046 3.8872 2.9172 4.02161C2.73394 4.15603 2.58638 4.33328 2.48741 4.53788C2.38844 4.74247 2.34108 4.96819 2.34945 5.19531C2.35783 5.42243 2.42169 5.64404 2.53546 5.84079L2.74526 6.20421C2.5007 6.20385 2.26037 6.26795 2.04847 6.39005C1.83656 6.51214 1.66058 6.68792 1.53823 6.89968C1.41588 7.11144 1.3515 7.3517 1.35156 7.59626C1.35162 7.84082 1.41613 8.08104 1.53859 8.29274L3.68591 12.012C4.11607 12.7572 4.74974 13.3644 5.51264 13.7624C6.27555 14.1603 7.13608 14.3326 7.99339 14.2589C8.8507 14.1853 9.66925 13.8688 10.3531 13.3466C11.037 12.8244 11.5578 12.118 11.8546 11.3104C12.5933 10.6091 13.0752 9.68019 13.2231 8.67246C13.3711 7.66473 13.1765 6.63651 12.6706 5.75251L11.684 4.04365ZM6.48671 2.99089C6.52235 2.85783 6.59666 2.73833 6.70022 2.64751C6.80378 2.55668 6.93195 2.49861 7.06852 2.48063C7.20509 2.46265 7.34393 2.48558 7.46747 2.54651C7.59101 2.60743 7.6937 2.70363 7.76257 2.82293L9.07928 5.10356C8.88133 5.14013 8.69371 5.21933 8.52943 5.33567C8.36516 5.45202 8.22816 5.60271 8.12796 5.7773L7.22162 4.20743C7.08506 3.97037 6.88133 3.77909 6.63615 3.65772L6.55664 3.52005L6.55635 3.51936C6.51039 3.44025 6.48057 3.35281 6.46862 3.26209C6.45666 3.17138 6.46281 3.0792 6.48671 2.99089ZM4.21305 3.23133C4.24869 3.09827 4.32299 2.97877 4.42656 2.88795C4.53012 2.79712 4.65829 2.73905 4.79486 2.72107C4.93143 2.70309 5.07026 2.72602 5.1938 2.78695C5.31734 2.84788 5.42004 2.94407 5.4889 3.06337L5.76092 3.53462C5.55818 3.57213 5.36633 3.65426 5.19926 3.77508C5.03219 3.89589 4.89409 4.05236 4.79497 4.23314C4.67455 4.09385 4.52756 3.97997 4.3626 3.89816L4.28263 3.7598C4.23666 3.68069 4.20683 3.59325 4.19489 3.50254C4.18295 3.41182 4.18912 3.31964 4.21305 3.23133ZM9.5214 13.0658C8.64134 13.5725 7.59623 13.7095 6.61531 13.4466C5.6344 13.1838 4.79779 12.5426 4.28901 11.6637L2.14169 7.94447C2.04934 7.7845 2.02432 7.59441 2.07212 7.41599C2.11993 7.23758 2.23665 7.08547 2.39661 6.99311C2.55658 6.90076 2.74667 6.87574 2.92509 6.92354C3.1035 6.97135 3.25561 7.08807 3.34796 7.24804L3.34802 7.24815L4.74088 9.66058C4.76358 9.7005 4.79395 9.73554 4.83024 9.76368C4.86653 9.79181 4.90804 9.81249 4.95235 9.82452C4.99667 9.83656 5.04293 9.8397 5.08847 9.83378C5.13401 9.82786 5.17793 9.813 5.2177 9.79003C5.25747 9.76707 5.2923 9.73647 5.3202 9.69999C5.34809 9.66351 5.3685 9.62188 5.38024 9.57748C5.39197 9.53308 5.39481 9.4868 5.38859 9.4413C5.38237 9.3958 5.36721 9.35198 5.34399 9.31237L3.13863 5.49251C3.09218 5.41328 3.06186 5.32564 3.04942 5.23464C3.03698 5.14365 3.04266 5.05108 3.06613 4.96229C3.08961 4.8735 3.13042 4.79022 3.18621 4.71726C3.242 4.64431 3.31167 4.5831 3.39121 4.53718C3.47074 4.49125 3.55858 4.46152 3.64966 4.44968C3.74074 4.43784 3.83326 4.44414 3.9219 4.4682C4.01053 4.49226 4.09354 4.53362 4.16612 4.5899C4.23871 4.64617 4.29945 4.71624 4.34484 4.79609L6.5502 8.61594C6.59638 8.69592 6.67244 8.75429 6.76164 8.77819C6.85085 8.8021 6.94591 8.78959 7.02589 8.74341C7.10588 8.69724 7.16424 8.62118 7.18815 8.53197C7.21205 8.44276 7.19954 8.34771 7.15337 8.26772L5.41229 5.25207C5.36584 5.17284 5.33553 5.0852 5.32308 4.9942C5.31064 4.9032 5.31632 4.81064 5.3398 4.72185C5.36327 4.63305 5.40408 4.54978 5.45987 4.47682C5.51566 4.40386 5.58533 4.34266 5.66487 4.29674C5.74441 4.25081 5.83225 4.22108 5.92333 4.20924C6.0144 4.1974 6.10693 4.20369 6.19556 4.22776C6.2842 4.25182 6.3672 4.29318 6.43979 4.34945C6.51237 4.40573 6.57311 4.4758 6.61851 4.55564L9.05601 8.77751C9.10251 8.85684 9.17851 8.91455 9.2674 8.93805C9.3563 8.96155 9.45089 8.94894 9.53052 8.90296C9.61015 8.85699 9.66836 8.78138 9.69246 8.69264C9.71655 8.6039 9.70456 8.50923 9.65911 8.4293L8.73054 6.82101V6.82095C8.68482 6.74175 8.65514 6.65431 8.6432 6.56363C8.63126 6.47296 8.6373 6.38082 8.66097 6.29248C8.70878 6.11407 8.8255 5.96195 8.98547 5.8696C9.14543 5.77725 9.33552 5.75222 9.51394 5.80003C9.69235 5.84784 9.84446 5.96456 9.93682 6.12452L10.9234 7.83338C11.1749 8.269 11.3382 8.7499 11.4038 9.24861C11.4695 9.74732 11.4363 10.2541 11.3061 10.74C11.1759 11.2258 10.9513 11.6813 10.6451 12.0804C10.3389 12.4794 9.95703 12.8143 9.5214 13.0658ZM12.1342 9.807C12.1457 8.99232 11.9356 8.18981 11.5266 7.48517L10.54 5.77631C10.4034 5.53928 10.1997 5.34802 9.95452 5.22665L9.87466 5.08824C9.78467 4.92843 9.76135 4.73957 9.80977 4.56267C9.85818 4.38578 9.97443 4.23512 10.1333 4.14341C10.2921 4.0517 10.4807 4.02635 10.6581 4.07286C10.8355 4.11936 10.9874 4.23398 11.0808 4.39181L12.0674 6.10067C12.3893 6.66302 12.5641 7.29745 12.5758 7.94528C12.5875 8.59311 12.4356 9.23343 12.1342 9.807ZM10.3293 1.46019L10.5697 0.563309C10.5936 0.474097 10.6519 0.398031 10.7319 0.351846C10.8119 0.305661 10.907 0.293139 10.9962 0.317035C11.0854 0.340931 11.1614 0.399288 11.2076 0.479267C11.2538 0.559247 11.2663 0.654298 11.2424 0.74351L11.002 1.64045C10.9902 1.68463 10.9698 1.72604 10.9419 1.76232C10.9141 1.7986 10.8794 1.82905 10.8398 1.85192C10.8002 1.87478 10.7565 1.88963 10.7111 1.8956C10.6658 1.90157 10.6197 1.89856 10.5755 1.88673C10.5314 1.87489 10.4899 1.85448 10.4537 1.82664C10.4174 1.79881 10.3869 1.7641 10.3641 1.72449C10.3412 1.68489 10.3264 1.64117 10.3204 1.59583C10.3144 1.5505 10.3174 1.50442 10.3293 1.46025L10.3293 1.46019ZM11.8418 2.03202L12.3744 1.2714C12.4007 1.23394 12.434 1.20202 12.4726 1.17745C12.5111 1.15288 12.5542 1.13614 12.5992 1.1282C12.6442 1.12026 12.6904 1.12127 12.735 1.13117C12.7797 1.14106 12.8219 1.15966 12.8594 1.18589C12.8969 1.21212 12.9288 1.24547 12.9534 1.28403C12.9779 1.3226 12.9947 1.36563 13.0026 1.41066C13.0105 1.4557 13.0095 1.50186 12.9996 1.5465C12.9897 1.59115 12.9712 1.6334 12.9449 1.67086L12.4123 2.43148C12.3594 2.50713 12.2785 2.55864 12.1876 2.57468C12.0966 2.59072 12.003 2.56997 11.9274 2.51699C11.8517 2.46402 11.8002 2.38317 11.7842 2.29222C11.7681 2.20127 11.7889 2.10767 11.8418 2.03202ZM14.2277 3.1246L13.467 3.65719C13.3914 3.71016 13.2978 3.73091 13.2068 3.71488C13.1159 3.69884 13.035 3.64733 12.982 3.57168C12.9291 3.49603 12.9083 3.40243 12.9244 3.31148C12.9404 3.22053 12.9919 3.13967 13.0676 3.0867L13.8282 2.55405C13.9038 2.50108 13.9974 2.48033 14.0884 2.49637C14.1793 2.5124 14.2602 2.56391 14.3131 2.63957C14.3661 2.71522 14.3869 2.80881 14.3708 2.89976C14.3548 2.99071 14.3033 3.07157 14.2276 3.12454L14.2277 3.1246Z" fill="#0F766E"/>
</g>
<defs>
<clipPath id="clip0_868_987">
<rect width="14.8571" height="14.8571" fill="white" transform="translate(0.644531 -0.000488281)"/>
</clipPath>
</defs>
</svg>
