<svg width="26" height="26" viewBox="0 0 26 26" fill="none" xmlns="http://www.w3.org/2000/svg">
<path opacity="0.2" d="M9.00889 5.05686L10.0595 6.87615C9.70663 6.74027 9.32035 6.71712 8.95382 6.8099C8.5873 6.90268 8.25855 7.10683 8.01287 7.39421C7.76719 7.6816 7.61666 8.03809 7.58201 8.41458C7.54736 8.79108 7.63029 9.16906 7.81939 9.49646L7.00689 8.08911C6.79829 7.72654 6.47121 7.44687 6.08064 7.29712L5.84258 6.88498C5.72254 6.67707 5.64463 6.44756 5.6133 6.20954C5.58196 5.97152 5.59781 5.72966 5.65995 5.49777C5.78544 5.02944 6.09183 4.63014 6.51172 4.38772C6.93162 4.14529 7.43061 4.0796 7.89894 4.20509C8.36727 4.33058 8.76657 4.63697 9.00899 5.05686H9.00889ZM20.5215 10.3721L18.7949 7.38162C18.5525 6.96172 18.1532 6.65531 17.6849 6.52982C17.2165 6.40432 16.7175 6.47001 16.2976 6.71243C15.8777 6.95485 15.5713 7.35416 15.4458 7.82249C15.3203 8.29083 15.386 8.78984 15.6284 9.20975L12.9878 4.63599C12.7437 4.21953 12.3447 3.91654 11.878 3.79315C11.4113 3.66976 10.9147 3.73598 10.4966 3.97736C10.0786 4.21874 9.77293 4.61568 9.64645 5.08157C9.51997 5.54745 9.58289 6.04445 9.82149 6.46411L10.0594 6.87625L10.0595 6.87635C10.4501 7.02608 10.7772 7.30576 10.9858 7.66834L13.6264 12.242C13.4374 11.9146 13.3545 11.5367 13.3892 11.1602C13.4238 10.7837 13.5744 10.4273 13.82 10.1399C14.0657 9.85257 14.3944 9.64844 14.7609 9.55565C15.1273 9.46285 15.5136 9.48596 15.8664 9.62179L15.8666 9.62209V9.62189C16.2572 9.77163 16.5842 10.0513 16.7928 10.4139L18.5194 13.4044C19.0444 14.3114 19.3678 15.3209 19.4676 16.3642C19.5674 17.4074 19.4413 18.4599 19.0978 19.4501C20.3368 18.3275 21.1538 16.8143 21.4129 15.1625C21.6719 13.5108 21.3573 11.8201 20.5215 10.3721Z" fill="black"/>
<path d="M19.322 7.07749C19.1083 6.70662 18.8007 6.39861 18.4301 6.18449C18.0595 5.97037 17.6391 5.85772 17.2111 5.85787C16.7831 5.85803 16.3627 5.97099 15.9922 6.18537C15.6218 6.39976 15.3144 6.70799 15.101 7.07901L13.5149 4.33185C13.2992 3.95717 12.9876 3.6467 12.6121 3.43234C12.2367 3.21798 11.8109 3.10747 11.3786 3.11216C10.9463 3.11686 10.523 3.23659 10.1523 3.45905C9.78155 3.68152 9.47675 3.99869 9.26921 4.37796C8.90898 3.96114 8.41818 3.67864 7.87682 3.57651C7.33546 3.47438 6.77547 3.55864 6.28814 3.81556C5.8008 4.07248 5.41487 4.48691 5.19325 4.99127C4.97164 5.49564 4.92741 6.06021 5.06778 6.59294C4.67424 6.65057 4.30081 6.80369 3.9801 7.03892C3.65939 7.27416 3.40116 7.58434 3.22796 7.94238C3.05477 8.30042 2.97188 8.69542 2.98654 9.09288C3.0012 9.49034 3.11296 9.87817 3.31206 10.2225L3.67921 10.8585C3.25123 10.8578 2.83065 10.97 2.45982 11.1837C2.08899 11.3973 1.78101 11.705 1.5669 12.0755C1.3528 12.4461 1.24013 12.8666 1.24023 13.2945C1.24034 13.7225 1.35323 14.1429 1.56752 14.5134L5.32534 21.0221C6.07812 22.3263 7.18704 23.3888 8.52213 24.0852C9.85721 24.7817 11.3631 25.0831 12.8634 24.9542C14.3637 24.8254 15.7962 24.2715 16.993 23.3576C18.1897 22.4437 19.1012 21.2076 19.6206 19.7942C20.9132 18.567 21.7566 16.9414 22.0155 15.1779C22.2744 13.4144 21.9339 11.615 21.0485 10.068L19.322 7.07749ZM10.2267 5.23515C10.2891 5.0023 10.4192 4.79318 10.6004 4.63424C10.7816 4.47529 11.0059 4.37366 11.2449 4.3422C11.4839 4.31074 11.7269 4.35086 11.9431 4.45748C12.1593 4.56411 12.339 4.73245 12.4595 4.94123L14.7637 8.93233C14.4173 8.99632 14.089 9.13493 13.8015 9.33853C13.514 9.54213 13.2743 9.80584 13.0989 10.1114L11.5128 7.3641C11.2739 6.94925 10.9173 6.6145 10.4883 6.4021L10.3491 6.16119L10.3486 6.15998C10.2682 6.02153 10.216 5.86851 10.1951 5.70976C10.1742 5.55102 10.1849 5.38971 10.2267 5.23515ZM6.24783 5.65592C6.31021 5.42307 6.44024 5.21395 6.62147 5.05501C6.80271 4.89606 7.02701 4.79443 7.266 4.76297C7.505 4.73151 7.74796 4.77163 7.96415 4.87826C8.18035 4.98488 8.36006 5.15323 8.48058 5.362L8.9566 6.18669C8.60182 6.25232 8.26608 6.39606 7.97371 6.60749C7.68134 6.81891 7.43967 7.09273 7.2662 7.40909C7.05546 7.16533 6.79823 6.96604 6.50956 6.82287L6.3696 6.58075C6.28915 6.44231 6.23696 6.28928 6.21606 6.13054C6.19515 5.97179 6.20595 5.81047 6.24783 5.65592ZM15.5374 22.8662C13.9974 23.753 12.1684 23.9927 10.4518 23.5327C8.7352 23.0728 7.27113 21.9507 6.38077 20.4126L2.62296 13.9039C2.46135 13.624 2.41755 13.2913 2.50121 12.9791C2.58488 12.6669 2.78914 12.4007 3.06908 12.239C3.34901 12.0774 3.68168 12.0336 3.9939 12.1173C4.30612 12.201 4.57232 12.4052 4.73394 12.6852L4.73404 12.6854L7.17154 16.9071C7.21126 16.977 7.26441 17.0383 7.32792 17.0875C7.39144 17.1368 7.46406 17.173 7.54162 17.194C7.61918 17.2151 7.70013 17.2206 7.77983 17.2102C7.85952 17.1999 7.93638 17.1738 8.00597 17.1337C8.07557 17.0935 8.13653 17.0399 8.18535 16.9761C8.23416 16.9122 8.26987 16.8394 8.29041 16.7617C8.31095 16.684 8.31592 16.603 8.30504 16.5234C8.29415 16.4438 8.26762 16.3671 8.22698 16.2977L4.3676 9.613C4.28632 9.47434 4.23326 9.32097 4.21148 9.16173C4.18971 9.00248 4.19965 8.8405 4.24073 8.68511C4.28181 8.52972 4.35323 8.38399 4.45086 8.25631C4.54849 8.12863 4.67042 8.02153 4.80961 7.94116C4.9488 7.8608 5.10252 7.80876 5.26191 7.78804C5.4213 7.76732 5.58321 7.77834 5.73832 7.82045C5.89344 7.86256 6.03869 7.93494 6.16572 8.03342C6.29274 8.13189 6.39904 8.25452 6.47848 8.39425L10.3379 15.079C10.4187 15.219 10.5518 15.3211 10.7079 15.3629C10.864 15.4048 11.0303 15.3829 11.1703 15.3021C11.3103 15.2213 11.4124 15.0882 11.4543 14.932C11.4961 14.7759 11.4742 14.6096 11.3934 14.4696L8.34652 9.19223C8.26523 9.05357 8.21217 8.9002 8.1904 8.74095C8.16862 8.58171 8.17856 8.41972 8.21965 8.26433C8.26073 8.10894 8.33214 7.96322 8.42977 7.83554C8.52741 7.70786 8.64933 7.60075 8.78852 7.52039C8.92772 7.44002 9.08143 7.38798 9.24082 7.36727C9.40021 7.34655 9.56212 7.35756 9.71724 7.39968C9.87235 7.44179 10.0176 7.51417 10.1446 7.61264C10.2717 7.71112 10.378 7.83375 10.4574 7.97347L14.723 15.3617C14.8044 15.5006 14.9374 15.6016 15.093 15.6427C15.2485 15.6838 15.4141 15.6617 15.5534 15.5813C15.6928 15.5008 15.7946 15.3685 15.8368 15.2132C15.879 15.0579 15.858 14.8923 15.7785 14.7524L14.1535 11.9379V11.9378C14.0734 11.7992 14.0215 11.6461 14.0006 11.4875C13.9797 11.3288 13.9903 11.1675 14.0317 11.0129C14.1154 10.7007 14.3196 10.4345 14.5996 10.2729C14.8795 10.1113 15.2122 10.0675 15.5244 10.1512C15.8366 10.2348 16.1028 10.4391 16.2644 10.719L17.991 13.7095C18.4311 14.4719 18.7168 15.3134 18.8317 16.1862C18.9466 17.0589 18.8885 17.9457 18.6607 18.796C18.4328 19.6463 18.0398 20.4434 17.5039 21.1417C16.968 21.8401 16.2998 22.4261 15.5374 22.8662ZM20.1099 17.1634C20.1299 15.7377 19.7624 14.3333 19.0465 13.1001L17.32 10.1096C17.081 9.69484 16.7244 9.36013 16.2954 9.14774L16.1557 8.90551C15.9982 8.62585 15.9574 8.29535 16.0421 7.98578C16.1268 7.67621 16.3303 7.41255 16.6082 7.25207C16.8862 7.09158 17.2162 7.04721 17.5267 7.1286C17.8371 7.20999 18.103 7.41056 18.2664 7.68676L19.993 10.6773C20.5562 11.6614 20.8622 12.7716 20.8827 13.9053C20.9031 15.039 20.6373 16.1596 20.1099 17.1634ZM16.9513 2.55644L17.372 0.98689C17.4138 0.830768 17.5159 0.697654 17.6559 0.616829C17.7958 0.536005 17.9622 0.514091 18.1183 0.555909C18.2744 0.597728 18.4075 0.699852 18.4884 0.839816C18.5692 0.979781 18.5911 1.14612 18.5493 1.30224L18.1285 2.87189C18.1078 2.94919 18.0721 3.02166 18.0234 3.08516C17.9746 3.14865 17.9139 3.20193 17.8446 3.24195C17.7753 3.28197 17.6988 3.30795 17.6194 3.3184C17.5401 3.32885 17.4595 3.32358 17.3822 3.30287C17.3049 3.28216 17.2324 3.24643 17.1689 3.19772C17.1054 3.14901 17.0521 3.08827 17.0121 3.01896C16.9721 2.94966 16.9461 2.87315 16.9357 2.79381C16.9252 2.71447 16.9305 2.63384 16.9512 2.55654L16.9513 2.55644ZM19.5982 3.55713L20.5303 2.22605C20.5762 2.1605 20.6345 2.10463 20.702 2.06163C20.7695 2.01863 20.8448 1.98935 20.9236 1.97545C21.0024 1.96156 21.0832 1.96332 21.1613 1.98064C21.2395 1.99796 21.3134 2.0305 21.379 2.0764C21.4445 2.1223 21.5004 2.18066 21.5434 2.24816C21.5864 2.31565 21.6157 2.39095 21.6296 2.46976C21.6435 2.54857 21.6417 2.62935 21.6244 2.70747C21.6071 2.7856 21.5745 2.85956 21.5286 2.92511L20.5966 4.25619C20.5039 4.38858 20.3624 4.47872 20.2032 4.50679C20.0441 4.53485 19.8803 4.49854 19.7479 4.40584C19.6155 4.31314 19.5253 4.17164 19.4973 4.01248C19.4692 3.85332 19.5055 3.68952 19.5982 3.55713ZM23.7735 5.46915L22.4423 6.40119C22.3099 6.49389 22.1461 6.5302 21.9869 6.50213C21.8278 6.47407 21.6863 6.38392 21.5936 6.25153C21.5009 6.11914 21.4646 5.95535 21.4926 5.79619C21.5207 5.63702 21.6108 5.49553 21.7432 5.40283L23.0743 4.47069C23.2067 4.37799 23.3705 4.34167 23.5296 4.36974C23.6888 4.3978 23.8303 4.48795 23.923 4.62034C24.0157 4.75273 24.052 4.91652 24.024 5.07569C23.9959 5.23485 23.9057 5.37635 23.7734 5.46905L23.7735 5.46915Z" fill="black"/>
</svg>
