<svg width="65" height="64" viewBox="0 0 65 64" fill="none" xmlns="http://www.w3.org/2000/svg">
<path d="M0.5 32C0.5 5.648 6.148 0 32.5 0C58.852 0 64.5 5.648 64.5 32C64.5 58.352 58.852 64 32.5 64C6.148 64 0.5 58.352 0.5 32Z" fill="url(#paint0_linear_556_1668)"/>
<g clip-path="url(#clip0_556_1668)">
<path fill-rule="evenodd" clip-rule="evenodd" d="M38.1063 37.4662V37.4528C38.1142 36.8659 37.9635 36.2878 37.6703 35.7794C37.377 35.2709 36.952 34.851 36.44 34.564L33.9562 33.1308V32.7021C33.9564 32.6857 33.9557 32.6693 33.9541 32.653C34.3316 32.3577 34.637 31.9803 34.847 31.5494C35.0571 31.1185 35.1662 30.6454 35.1663 30.1661V28.8311C35.1625 27.9938 34.8273 27.192 34.2339 26.6013C33.6405 26.0105 32.8373 25.6788 32 25.6788C31.1626 25.6788 30.3594 26.0105 29.766 26.6013C29.1726 27.192 28.8374 27.9938 28.8337 28.8311V30.1661C28.8343 30.6452 28.9435 31.118 29.1533 31.5487C29.363 31.9795 29.6678 32.3571 30.0446 32.653C30.0446 32.6575 30.0441 32.6665 30.0441 32.6754V33.1308L27.5603 34.564C27.0482 34.8509 26.623 35.2708 26.3297 35.7792C26.0364 36.2877 25.8858 36.8659 25.8938 37.4528V37.4662C24.544 35.9661 23.7981 34.0191 23.8 32.0011C23.8 27.4782 27.4781 23.7991 32 23.7991C36.5219 23.7991 40.2 27.4782 40.2 32.0011C40.2017 34.019 39.4558 35.966 38.1063 37.4662ZM32 32.3315C32.5741 32.3306 33.1245 32.1022 33.5306 31.6963C33.9366 31.2904 34.1653 30.7402 34.1664 30.166V28.831C34.166 28.2567 33.9376 27.706 33.5314 27.2999C33.1252 26.8939 32.5744 26.6658 32 26.6656C31.4256 26.6658 30.8748 26.8939 30.4686 27.3C30.0624 27.706 29.834 28.2567 29.8336 28.8311V30.1661C29.8348 30.7402 30.0634 31.2905 30.4695 31.6964C30.8755 32.1022 31.4259 32.3306 32 32.3315ZM26.8938 38.4128C28.3445 39.569 30.1448 40.1987 32 40.1987C33.8552 40.1987 35.6555 39.569 37.1063 38.4128V37.4528C37.112 37.0419 37.0067 36.6371 36.8014 36.2811C36.5961 35.9251 36.2985 35.6311 35.94 35.4302L33.2062 33.8541C33.1304 33.8101 33.0674 33.7469 33.0236 33.6709C32.9798 33.5949 32.9567 33.5087 32.9566 33.421V33.1843C32.3343 33.3808 31.6665 33.3808 31.0441 33.1843V33.421C31.0441 33.5088 31.0209 33.595 30.9771 33.671C30.9332 33.747 30.8701 33.8101 30.7941 33.8541L28.0608 35.4302C27.7021 35.631 27.4044 35.925 27.199 36.281C26.9936 36.637 26.8881 37.0419 26.8938 37.4528V38.4128ZM32 22.799C26.927 22.799 22.8 26.929 22.8 32.0011C22.8 37.0733 26.9271 41.1988 32 41.1988C37.0729 41.1988 41.2 37.0733 41.2 32.0011C41.2 26.929 37.0731 22.799 32 22.799ZM47.3883 28.9115L44.9875 28.2953C44.707 27.3117 44.3149 26.3635 43.8188 25.469L45.0895 23.3259C45.1816 23.171 45.2194 22.9899 45.1968 22.8111C45.1742 22.6324 45.0926 22.4663 44.9649 22.3391L41.6849 19.0575C41.5572 18.93 41.3907 18.8485 41.2116 18.8259C41.0325 18.8032 40.851 18.8407 40.6955 18.9325L38.564 20.2003C37.6692 19.7018 36.7207 19.3064 35.7368 19.0215L35.1224 16.6105C35.0776 16.4358 34.976 16.281 34.8336 16.1703C34.6912 16.0596 34.5161 15.9994 34.3358 15.999H29.6962C29.5159 15.9995 29.3408 16.0598 29.1984 16.1705C29.0561 16.2812 28.9544 16.436 28.9096 16.6107L28.2971 19.0128C27.3128 19.2945 26.3636 19.687 25.4677 20.1826L23.3272 18.9101C23.1717 18.8184 22.9902 18.7809 22.8111 18.8035C22.6321 18.8261 22.4656 18.9076 22.3378 19.0351L19.0577 22.3168C18.93 22.4439 18.8484 22.61 18.8258 22.7888C18.8033 22.9675 18.8411 23.1487 18.9332 23.3035L20.199 25.4378C19.7003 26.3318 19.3058 27.2801 19.0234 28.2641L16.6119 28.8757C16.4369 28.9213 16.2819 29.0235 16.1712 29.1665C16.0605 29.3095 16.0003 29.4852 16 29.666V34.3051C16.0005 34.4854 16.0608 34.6604 16.1716 34.8026C16.2823 34.9449 16.4372 35.0463 16.6119 35.0909L19.0125 35.7026C19.2936 36.6874 19.6857 37.6371 20.1813 38.5333L18.9109 40.672C18.8187 40.8276 18.7808 41.0094 18.8033 41.1889C18.8257 41.3683 18.9073 41.5352 19.035 41.6632L22.3149 44.9449C22.4431 45.0718 22.6099 45.1525 22.789 45.1743C22.9681 45.1961 23.1493 45.1578 23.3043 45.0655L25.4363 43.8019C26.3301 44.3007 27.2784 44.6948 28.2626 44.9761L28.8774 47.3872C28.9217 47.5624 29.0232 47.7177 29.1659 47.8285C29.3086 47.9393 29.4842 47.9993 29.6649 47.9989H34.3043C34.4848 47.9991 34.6603 47.9391 34.8028 47.8283C34.9454 47.7175 35.0468 47.5622 35.0911 47.3872L35.7036 44.9895C36.6879 44.7077 37.6371 44.3153 38.533 43.8197L40.6732 45.0878C40.8281 45.1802 41.0094 45.2185 41.1885 45.1967C41.3676 45.1748 41.5344 45.0941 41.6626 44.9672L44.9425 41.6855C45.0703 41.5576 45.1519 41.3907 45.1745 41.2113C45.197 41.0318 45.1593 40.85 45.0671 40.6943L43.8013 38.5646C44.299 37.6701 44.6934 36.7219 44.9769 35.7383L47.3884 35.1221C47.5634 35.0781 47.7186 34.9769 47.8294 34.8345C47.9403 34.6921 48.0003 34.5168 48 34.3363V29.6973C48.0002 29.5169 47.9401 29.3415 47.8293 29.1992C47.7185 29.0568 47.5633 28.9555 47.3883 28.9115L47.3883 28.9115Z" fill="white"/>
</g>
<defs>
<linearGradient id="paint0_linear_556_1668" x1="60.1706" y1="5.08235" x2="-15.3118" y2="76.6118" gradientUnits="userSpaceOnUse">
<stop stop-color="#F1657D"/>
<stop offset="1" stop-color="#F1C1C9"/>
</linearGradient>
<clipPath id="clip0_556_1668">
<rect width="32" height="32" fill="white" transform="translate(16 16)"/>
</clipPath>
</defs>
</svg>
