<svg width="133" height="132" viewBox="0 0 133 132" fill="none" xmlns="http://www.w3.org/2000/svg">
<rect x="1" y="0.5" width="131" height="131" rx="65.5" fill="white"/>
<path d="M51.125 83.9375H102.375V68.5625H51.125V83.9375ZM92.125 74.9688C92.125 74.2606 92.6981 73.6875 93.4062 73.6875C94.1144 73.6875 94.6875 74.2606 94.6875 74.9688V77.5312C94.6875 78.2394 94.1144 78.8125 93.4062 78.8125C92.6981 78.8125 92.125 78.2394 92.125 77.5312V74.9688ZM87 74.9688C87 74.2606 87.5731 73.6875 88.2812 73.6875C88.9894 73.6875 89.5625 74.2606 89.5625 74.9688V77.5312C89.5625 78.2394 88.9894 78.8125 88.2812 78.8125C87.5731 78.8125 87 78.2394 87 77.5312V74.9688ZM81.875 74.9688C81.875 74.2606 82.4481 73.6875 83.1562 73.6875C83.8644 73.6875 84.4375 74.2606 84.4375 74.9688V77.5312C84.4375 78.2394 83.8644 78.8125 83.1562 78.8125C82.4481 78.8125 81.875 78.2394 81.875 77.5312V74.9688ZM76.75 74.9688C76.75 74.2606 77.3231 73.6875 78.0312 73.6875C78.7394 73.6875 79.3125 74.2606 79.3125 74.9688V77.5312C79.3125 78.2394 78.7394 78.8125 78.0312 78.8125C77.3231 78.8125 76.75 78.2394 76.75 77.5312V74.9688Z" fill="#0D9488"/>
<path d="M94.6875 50.625H58.8125C54.5734 50.625 51.125 54.0734 51.125 58.3125V66H102.375V58.3125C102.375 54.0734 98.9266 50.625 94.6875 50.625ZM79.3125 59.5938C79.3125 60.3019 78.7394 60.875 78.0312 60.875C77.3231 60.875 76.75 60.3019 76.75 59.5938V57.0312C76.75 56.3231 77.3231 55.75 78.0312 55.75C78.7394 55.75 79.3125 56.3231 79.3125 57.0312V59.5938ZM84.4375 59.5938C84.4375 60.3019 83.8644 60.875 83.1562 60.875C82.4481 60.875 81.875 60.3019 81.875 59.5938V57.0312C81.875 56.3231 82.4481 55.75 83.1562 55.75C83.8644 55.75 84.4375 56.3231 84.4375 57.0312V59.5938ZM89.5625 59.5938C89.5625 60.3019 88.9894 60.875 88.2812 60.875C87.5731 60.875 87 60.3019 87 59.5938V57.0312C87 56.3231 87.5731 55.75 88.2812 55.75C88.9894 55.75 89.5625 56.3231 89.5625 57.0312V59.5938ZM94.6875 59.5938C94.6875 60.3019 94.1144 60.875 93.4062 60.875C92.6981 60.875 92.125 60.3019 92.125 59.5938V57.0312C92.125 56.3231 92.6981 55.75 93.4062 55.75C94.1144 55.75 94.6875 56.3231 94.6875 57.0312V59.5938Z" fill="#0D9488"/>
<path d="M51.125 94.1875C51.125 98.4266 54.5734 101.875 58.8125 101.875H94.6875C98.9266 101.875 102.375 98.4266 102.375 94.1875V86.5H51.125V94.1875ZM92.125 92.9062C92.125 92.1981 92.6981 91.625 93.4062 91.625C94.1144 91.625 94.6875 92.1981 94.6875 92.9062V95.4688C94.6875 96.1769 94.1144 96.75 93.4062 96.75C92.6981 96.75 92.125 96.1769 92.125 95.4688V92.9062ZM87 92.9062C87 92.1981 87.5731 91.625 88.2812 91.625C88.9894 91.625 89.5625 92.1981 89.5625 92.9062V95.4688C89.5625 96.1769 88.9894 96.75 88.2812 96.75C87.5731 96.75 87 96.1769 87 95.4688V92.9062ZM81.875 92.9062C81.875 92.1981 82.4481 91.625 83.1562 91.625C83.8644 91.625 84.4375 92.1981 84.4375 92.9062V95.4688C84.4375 96.1769 83.8644 96.75 83.1562 96.75C82.4481 96.75 81.875 96.1769 81.875 95.4688V92.9062ZM76.75 92.9062C76.75 92.1981 77.3231 91.625 78.0312 91.625C78.7394 91.625 79.3125 92.1981 79.3125 92.9062V95.4688C79.3125 96.1769 78.7394 96.75 78.0312 96.75C77.3231 96.75 76.75 96.1769 76.75 95.4688V92.9062Z" fill="#0D9488"/>
<path d="M58.8125 45.5C61.6776 45.5 64.2957 46.4734 66.4296 48.0625H79.9355L82.368 45.6289C83.369 44.6279 83.369 43.0063 82.368 42.0053L75.1197 34.757C74.1187 33.756 72.4971 33.756 71.4961 34.757L68.7372 37.5147C68.009 37.1681 67.2632 36.8591 66.5 36.5888V32.6875C66.5 31.2724 65.3526 30.125 63.9375 30.125H53.6875C52.2724 30.125 51.125 31.2724 51.125 32.6875V36.5888C50.3618 36.8591 49.616 37.1681 48.8878 37.5147L46.1289 34.757C45.1279 33.756 43.5063 33.756 42.5053 34.757L35.257 42.0053C34.256 43.0063 34.256 44.6279 35.257 45.6289L38.0147 48.3878C37.6681 49.116 37.3591 49.8618 37.0888 50.625H33.1875C31.7724 50.625 30.625 51.7724 30.625 53.1875V63.4375C30.625 64.8526 31.7724 66 33.1875 66H37.0888C37.3591 66.7632 37.6681 67.509 38.0147 68.2372L35.257 70.9961C34.256 71.9971 34.256 73.6187 35.257 74.6197L42.5053 81.868C43.5063 82.869 45.1279 82.869 46.1289 81.868L48.5625 79.4355V68.5625V66V65.9296C46.9734 63.7957 46 61.1776 46 58.3125C46 51.2364 51.7364 45.5 58.8125 45.5Z" fill="#98CFCB"/>
<rect x="1" y="0.5" width="131" height="131" rx="65.5" stroke="#EAF4E5"/>
</svg>
