<svg width="16" height="14" viewBox="0 0 16 14" fill="none" xmlns="http://www.w3.org/2000/svg">
<path d="M14.9629 6.706L8.02492 0.406C7.7474 0.154 7.36196 0 6.93797 0H1.54177C0.693797 0 0 0.63 0 1.4V6.3C0 6.685 0.169595 7.035 0.454823 7.294L7.3928 13.594C7.67032 13.846 8.05576 14 8.47975 14C8.90373 14 9.28918 13.846 9.5667 13.587L14.9629 8.687C15.2481 8.435 15.4177 8.085 15.4177 7.7C15.4177 7.315 15.2404 6.958 14.9629 6.706ZM2.6981 3.5C2.05827 3.5 1.54177 3.031 1.54177 2.45C1.54177 1.869 2.05827 1.4 2.6981 1.4C3.33794 1.4 3.85443 1.869 3.85443 2.45C3.85443 3.031 3.33794 3.5 2.6981 3.5Z" fill="#0FA958"/>
</svg>
