<svg width="9" height="6" viewBox="0 0 9 6" fill="none" xmlns="http://www.w3.org/2000/svg">
<path d="M4.3386 5.5204C4.3753 5.56481 4.42441 5.60113 4.48169 5.62621C4.53897 5.6513 4.60271 5.66441 4.66743 5.66441C4.73214 5.66441 4.79588 5.6513 4.85317 5.62621C4.91045 5.60113 4.95955 5.56481 4.99625 5.5204L8.59653 1.18706C8.63821 1.13708 8.66265 1.07854 8.66719 1.0178C8.67174 0.957056 8.65623 0.896437 8.62233 0.842527C8.58844 0.788617 8.53746 0.743479 8.47494 0.712015C8.41242 0.680552 8.34075 0.663967 8.26771 0.664063H1.06714C0.994276 0.664314 0.922869 0.681112 0.860601 0.712651C0.798333 0.744189 0.747561 0.789276 0.713744 0.843061C0.679928 0.896846 0.664347 0.957295 0.668677 1.01791C0.673007 1.07852 0.697084 1.137 0.738319 1.18706L4.3386 5.5204Z" fill="#525252"/>
</svg>
