<svg width="40" height="40" viewBox="0 0 40 40" fill="none" xmlns="http://www.w3.org/2000/svg">
<path d="M26.9667 22.9499L37.9167 15.2832V31.6665C37.9167 32.8165 37.5833 33.8832 37.0333 34.8165L26.9667 22.9499Z" fill="#0D9488"/>
<path d="M19.7663 24.6001C19.9163 24.7001 20.0997 24.7001 20.2497 24.6001L36.683 13.1001L21.6663 2.6168C20.6663 1.9168 19.3163 1.9168 18.3163 2.6168L3.33301 13.1001L19.7663 24.6001Z" fill="#ABE2DD"/>
<path d="M2.08301 15.2832V31.6665C2.08301 32.8165 2.41634 33.8832 2.96634 34.8165L13.033 22.9499L2.08301 15.2832Z" fill="#0D9488"/>
<path d="M24.916 24.3828L21.6826 26.6495C21.1826 26.9995 20.5993 27.1828 20.016 27.1828C19.4326 27.1828 18.8493 26.9995 18.3493 26.6495L15.116 24.3828L4.68262 36.6828C5.71595 37.4495 6.98262 37.8995 8.36595 37.8995H31.6993C33.0826 37.8995 34.3493 37.4328 35.3826 36.6828L24.9493 24.3828H24.916Z" fill="#0D9488"/>
</svg>
