<svg width="25" height="25" viewBox="0 0 25 25" fill="none" xmlns="http://www.w3.org/2000/svg">
<path d="M12.5 12.5C13.7432 12.5 14.9355 12.0061 15.8146 11.1271C16.6936 10.248 17.1875 9.0557 17.1875 7.8125C17.1875 6.5693 16.6936 5.37701 15.8146 4.49794C14.9355 3.61886 13.7432 3.125 12.5 3.125C11.2568 3.125 10.0645 3.61886 9.18544 4.49794C8.30636 5.37701 7.8125 6.5693 7.8125 7.8125C7.8125 9.0557 8.30636 10.248 9.18544 11.1271C10.0645 12.0061 11.2568 12.5 12.5 12.5ZM12.5 14.0625C10.8424 14.0625 9.25268 13.404 8.08058 12.2319C6.90848 11.0598 6.25 9.4701 6.25 7.8125C6.25 6.1549 6.90848 4.56519 8.08058 3.39308C9.25268 2.22098 10.8424 1.5625 12.5 1.5625C14.1576 1.5625 15.7473 2.22098 16.9194 3.39308C18.0915 4.56519 18.75 6.1549 18.75 7.8125C18.75 9.4701 18.0915 11.0598 16.9194 12.2319C15.7473 13.404 14.1576 14.0625 12.5 14.0625ZM20.3125 21.875V19.5312C20.3125 18.9096 20.0656 18.3135 19.626 17.874C19.1865 17.4344 18.5904 17.1875 17.9688 17.1875H7.03125C6.40965 17.1875 5.81351 17.4344 5.37397 17.874C4.93443 18.3135 4.6875 18.9096 4.6875 19.5312V21.875C4.6875 22.0822 4.60519 22.2809 4.45868 22.4274C4.31216 22.5739 4.11345 22.6562 3.90625 22.6562C3.69905 22.6562 3.50034 22.5739 3.35382 22.4274C3.20731 22.2809 3.125 22.0822 3.125 21.875V19.5312C3.125 18.4952 3.53655 17.5017 4.26911 16.7691C5.00168 16.0366 5.99525 15.625 7.03125 15.625H17.9688C19.0048 15.625 19.9983 16.0366 20.7309 16.7691C21.4634 17.5017 21.875 18.4952 21.875 19.5312V21.875C21.875 22.0822 21.7927 22.2809 21.6462 22.4274C21.4997 22.5739 21.301 22.6562 21.0938 22.6562C20.8865 22.6562 20.6878 22.5739 20.5413 22.4274C20.3948 22.2809 20.3125 22.0822 20.3125 21.875Z" fill="#4B5563"/>
</svg>
