<svg width="21" height="21" viewBox="0 0 21 21" fill="none" xmlns="http://www.w3.org/2000/svg">
<path d="M18.8308 11.9845L18.0203 10.1955L18.8971 8.43886C18.955 8.32266 18.9709 8.19003 18.9422 8.06343C18.9135 7.93682 18.8419 7.82404 18.7396 7.74418L17.191 6.53589L17.1509 4.57275C17.1478 4.4429 17.1002 4.31806 17.0159 4.21924C16.9316 4.12042 16.8158 4.05367 16.6881 4.03022L14.7552 3.68096L13.8078 1.96083C13.7452 1.84701 13.6451 1.75841 13.5245 1.71011C13.404 1.66181 13.2704 1.65679 13.1466 1.69592L11.2735 2.28419L9.63449 1.20163C9.52598 1.13046 9.39625 1.09886 9.26716 1.11217C9.13807 1.12549 9.01752 1.18289 8.92581 1.27471L7.54094 2.66707L5.58665 2.47001C5.45753 2.4571 5.32791 2.4892 5.21974 2.56089C5.11156 2.63257 5.03148 2.73943 4.99305 2.86338L4.41339 4.73942L2.59173 5.47405C2.47123 5.52248 2.37119 5.6111 2.30856 5.72488C2.24594 5.83865 2.22459 5.97058 2.24813 6.0983L2.60674 8.02861L1.33509 9.52566C1.25115 9.62479 1.20403 9.74987 1.20171 9.87974C1.19938 10.0096 1.24198 10.1363 1.32231 10.2384L2.53654 11.7814L2.10657 13.6966C2.07807 13.8234 2.09421 13.956 2.15228 14.0722C2.21035 14.1884 2.30678 14.281 2.42524 14.3343L4.21778 15.135L4.72651 17.0319C4.75975 17.1575 4.83561 17.2677 4.94111 17.3436C5.04662 17.4195 5.17521 17.4564 5.30491 17.448L7.26572 17.3251L8.59672 18.7685C8.68721 18.8658 8.8066 18.9266 8.93206 18.9442C9.05752 18.9619 9.18836 18.9362 9.30286 18.8677L10.9801 17.8471L12.8311 18.5058C13.0819 18.5969 13.364 18.4947 13.5018 18.2651L14.5137 16.582L16.4575 16.3064C16.5861 16.2879 16.7044 16.2256 16.7923 16.1299C16.8801 16.0341 16.9322 15.911 16.9396 15.7813L17.0542 13.8217L18.6467 12.6731C18.752 12.5972 18.8279 12.4871 18.8615 12.3617C18.895 12.2362 18.8842 12.103 18.8308 11.9845ZM14.4889 8.64009L9.76582 13.9369C9.58779 14.1342 9.33897 14.2482 9.11205 14.2163C8.88581 14.1845 8.65066 14.0221 8.51229 13.8377L6.05698 10.5249C5.97663 10.4154 5.94223 10.2788 5.96113 10.1444C5.98003 10.0099 6.05073 9.8881 6.15815 9.80501L6.96614 9.1845C7.019 9.14443 7.07927 9.11521 7.14346 9.09851C7.20766 9.08181 7.27452 9.07797 7.34021 9.0872C7.40589 9.09643 7.46911 9.11856 7.52621 9.1523C7.58332 9.18605 7.63319 9.23075 7.67296 9.28383L9.27091 11.4394L12.9923 7.26573C13.0364 7.21593 13.0901 7.17542 13.1501 7.14657C13.21 7.11772 13.2752 7.1011 13.3416 7.09769C13.4081 7.09427 13.4746 7.10413 13.5372 7.12669C13.5998 7.14924 13.6573 7.18404 13.7063 7.22906L14.4551 7.91526C14.6613 8.10502 14.6756 8.43073 14.4889 8.64009Z" fill="#0D9488"/>
</svg>
