<svg width="30" height="30" viewBox="0 0 30 30" fill="none" xmlns="http://www.w3.org/2000/svg">
<rect width="30" height="30" rx="1" fill="white"/>
<path fill-rule="evenodd" clip-rule="evenodd" d="M22.2545 14.305C22.2545 13.7634 22.2059 13.2426 22.1156 12.7427H14.9219V15.6973H19.0326C18.8555 16.652 18.3174 17.461 17.5084 18.0026V19.9191H19.9769C21.4213 18.5893 22.2545 16.6312 22.2545 14.305Z" fill="#4285F4"/>
<path fill-rule="evenodd" clip-rule="evenodd" d="M14.9214 21.7697C16.9837 21.7697 18.7127 21.0857 19.9765 19.9192L17.508 18.0027C16.824 18.461 15.9491 18.7318 14.9214 18.7318C12.932 18.7318 11.2482 17.3881 10.6475 15.5828H8.0957V17.5617C9.35253 20.058 11.9356 21.7697 14.9214 21.7697Z" fill="#34A853"/>
<path fill-rule="evenodd" clip-rule="evenodd" d="M10.6475 15.5826C10.4947 15.1244 10.4079 14.6348 10.4079 14.1314C10.4079 13.628 10.4947 13.1384 10.6475 12.6801V10.7012H8.09563C7.57831 11.7323 7.2832 12.8989 7.2832 14.1314C7.2832 15.3639 7.57831 16.5305 8.09563 17.5616L10.6475 15.5826Z" fill="#FBBC05"/>
<path fill-rule="evenodd" clip-rule="evenodd" d="M14.9214 9.53131C16.0429 9.53131 17.0497 9.91669 17.8413 10.6736L20.0321 8.4828C18.7093 7.25028 16.9803 6.49341 14.9214 6.49341C11.9356 6.49341 9.35253 8.20505 8.0957 10.7013L10.6475 12.6803C11.2482 10.8749 12.932 9.53131 14.9214 9.53131Z" fill="#EA4335"/>
</svg>
