<?xml version="1.0" encoding="UTF-8"?>
<svg width="187px" height="43px" viewBox="0 0 187 43" version="1.1" xmlns="http://www.w3.org/2000/svg" xmlns:xlink="http://www.w3.org/1999/xlink">
    <title>Group</title>
    <defs>
        <rect id="path-1" x="0" y="0" width="185" height="40" rx="2"></rect>
        <filter x="-1.1%" y="-5.0%" width="102.2%" height="112.5%" filterUnits="objectBoundingBox" id="filter-2">
            <feOffset dx="0" dy="1" in="SourceAlpha" result="shadowOffsetOuter1"></feOffset>
            <feGaussianBlur stdDeviation="0.5" in="shadowOffsetOuter1" result="shadowBlurOuter1"></feGaussianBlur>
            <feColorMatrix values="0 0 0 0 0   0 0 0 0 0   0 0 0 0 0  0 0 0 0.24 0" type="matrix" in="shadowBlurOuter1" result="shadowMatrixOuter1"></feColorMatrix>
            <feOffset dx="0" dy="0" in="SourceAlpha" result="shadowOffsetOuter2"></feOffset>
            <feGaussianBlur stdDeviation="0.5" in="shadowOffsetOuter2" result="shadowBlurOuter2"></feGaussianBlur>
            <feColorMatrix values="0 0 0 0 0   0 0 0 0 0   0 0 0 0 0  0 0 0 0.12 0" type="matrix" in="shadowBlurOuter2" result="shadowMatrixOuter2"></feColorMatrix>
            <feMerge>
                <feMergeNode in="shadowMatrixOuter1"></feMergeNode>
                <feMergeNode in="shadowMatrixOuter2"></feMergeNode>
            </feMerge>
        </filter>
    </defs>
    <g id="Google-Button" stroke="none" stroke-width="1" fill="none" fill-rule="evenodd">
        <g id="Group" transform="translate(1.000000, 1.000000)">
            <g id="button-bg">
                <use fill="black" fill-opacity="1" filter="url(#filter-2)" xlink:href="#path-1"></use>
                <use fill="#4285F4" fill-rule="evenodd" xlink:href="#path-1"></use>
            </g>
            <path d="M54.6484375,26.2939453 C55.719401,26.2939453 56.6593424,26.0546875 57.4682617,25.5761719 C58.277181,25.0976562 58.6816406,24.3024089 58.6816406,23.1904297 C58.6816406,22.2972005 58.3626302,21.6158854 57.7246094,21.1464844 C57.3554687,20.8776042 56.8313802,20.6656901 56.1523437,20.5107422 L56.1523437,20.5107422 L54.7441406,20.1894531 C53.796224,19.9707031 53.1878255,19.7884115 52.9189453,19.6425781 C52.5087891,19.4147135 52.3037109,19.0546875 52.3037109,18.5625 C52.3037109,18.1158854 52.4791667,17.7239583 52.8300781,17.3867188 C53.1809896,17.0494792 53.757487,16.8808594 54.5595703,16.8808594 C55.5530599,16.8808594 56.2571615,17.1429036 56.671875,17.6669922 C56.8951823,17.9541016 57.0410156,18.3665365 57.109375,18.9042969 L57.109375,18.9042969 L58.3876953,18.9042969 C58.3876953,17.7877604 58.019694,16.9754232 57.2836914,16.4672852 C56.5476888,15.9591471 55.6533203,15.7050781 54.6005859,15.7050781 C53.4567057,15.7050781 52.5725911,15.9944661 51.9482422,16.5732422 C51.3238932,17.1520182 51.0117187,17.8925781 51.0117187,18.7949219 C51.0117187,19.6289062 51.3307292,20.2555339 51.96875,20.6748047 C52.3378906,20.9163411 52.9667969,21.1373698 53.8554687,21.3378906 L53.8554687,21.3378906 L55.2158203,21.6455078 C55.9541016,21.8141276 56.4964193,22.0123698 56.8427734,22.2402344 C57.1845703,22.4726562 57.3554687,22.8623047 57.3554687,23.4091797 C57.3554687,24.1383464 56.9498698,24.6442057 56.1386719,24.9267578 C55.719401,25.0725911 55.2545573,25.1455078 54.7441406,25.1455078 C53.6048177,25.1455078 52.8095703,24.8128255 52.3583984,24.1474609 C52.1214193,23.7919922 51.9869792,23.3294271 51.9550781,22.7597656 L51.9550781,22.7597656 L50.6767578,22.7597656 C50.6630859,23.844401 51.0094401,24.7034505 51.7158203,25.3369141 C52.4222005,25.9749349 53.3997396,26.2939453 54.6484375,26.2939453 Z M61.7099609,17.3525391 L61.7099609,15.9580078 L60.4589844,15.9580078 L60.4589844,17.3525391 L61.7099609,17.3525391 Z M61.7099609,26 L61.7099609,18.7128906 L60.4589844,18.7128906 L60.4589844,26 L61.7099609,26 Z M66.4199219,29.0966797 C67.8372396,29.0966797 68.8011068,28.5999349 69.3115234,27.6064453 C69.5849609,27.0686849 69.7216797,26.3349609 69.7216797,25.4052734 L69.7216797,25.4052734 L69.7216797,18.7470703 L68.5869141,18.7470703 L68.5869141,19.6699219 C68.3453776,19.3645833 68.1083984,19.1321615 67.8759766,18.9726562 C67.4475911,18.6901042 66.9462891,18.5488281 66.3720703,18.5488281 C65.5244141,18.5488281 64.800944,18.8929036 64.2016602,19.5810547 C63.6023763,20.2692057 63.3027344,21.226237 63.3027344,22.4521484 C63.3027344,23.7509766 63.6000977,24.6818034 64.1948242,25.2446289 C64.7895508,25.8074544 65.4833984,26.0888672 66.2763672,26.0888672 C66.8460286,26.0888672 67.3040365,25.9977214 67.6503906,25.8154297 C67.9967448,25.633138 68.2929688,25.3551432 68.5390625,24.9814453 C68.5527344,25.9886068 68.4729818,26.688151 68.2998047,27.0800781 C68.008138,27.7454427 67.390625,28.078125 66.4472656,28.078125 C65.8502604,28.078125 65.4127604,27.9414062 65.1347656,27.6679688 C64.9570312,27.4902344 64.8385417,27.2373047 64.7792969,26.9091797 L64.7792969,26.9091797 L63.5283203,26.9091797 C63.5921224,27.6611328 63.8929036,28.2137044 64.4306641,28.5668945 C64.9684245,28.9200846 65.6315104,29.0966797 66.4199219,29.0966797 Z M66.4199219,25.0839844 C65.8548177,25.0839844 65.4047852,24.8686523 65.0698242,24.4379883 C64.7348633,24.0073242 64.5673828,23.3795573 64.5673828,22.5546875 C64.5673828,21.8528646 64.6516927,21.2854818 64.8203125,20.8525391 C65.1393229,20.0413411 65.7317708,19.6357422 66.5976562,19.6357422 C67.1764323,19.6357422 67.6526693,19.8544922 68.0263672,20.2919922 C68.4000651,20.7294922 68.5869141,21.4016927 68.5869141,22.3085938 C68.5869141,22.9101562 68.4866536,23.4365234 68.2861328,23.8876953 C67.9261068,24.6852214 67.3040365,25.0839844 66.4199219,25.0839844 Z M73.0234375,26 L73.0234375,22.1650391 C73.0234375,21.6865234 73.0541992,21.3185221 73.1157227,21.0610352 C73.1772461,20.8035482 73.3105469,20.5540365 73.515625,20.3125 C73.7708333,20.0117188 74.0670573,19.8111979 74.4042969,19.7109375 C74.5911458,19.6516927 74.8304036,19.6220703 75.1220703,19.6220703 C75.6962891,19.6220703 76.0927734,19.8499349 76.3115234,20.3056641 C76.4436849,20.5791016 76.5097656,20.9391276 76.5097656,21.3857422 L76.5097656,21.3857422 L76.5097656,26 L77.7607422,26 L77.7607422,21.3037109 C77.7607422,20.5654297 77.6604818,19.9980469 77.4599609,19.6015625 C77.0953776,18.8769531 76.3935547,18.5146484 75.3544922,18.5146484 C74.8805339,18.5146484 74.4498698,18.6080729 74.0625,18.7949219 C73.6751302,18.9817708 73.3082682,19.289388 72.9619141,19.7177734 L72.9619141,19.7177734 L72.9619141,18.6787109 L71.7929688,18.6787109 L71.7929688,26 L73.0234375,26 Z M85.1572266,17.3525391 L85.1572266,15.9580078 L83.90625,15.9580078 L83.90625,17.3525391 L85.1572266,17.3525391 Z M85.1572266,26 L85.1572266,18.7128906 L83.90625,18.7128906 L83.90625,26 L85.1572266,26 Z M88.4658203,26 L88.4658203,22.1650391 C88.4658203,21.6865234 88.496582,21.3185221 88.5581055,21.0610352 C88.6196289,20.8035482 88.7529297,20.5540365 88.9580078,20.3125 C89.2132161,20.0117188 89.5094401,19.8111979 89.8466797,19.7109375 C90.0335286,19.6516927 90.2727865,19.6220703 90.5644531,19.6220703 C91.1386719,19.6220703 91.5351562,19.8499349 91.7539062,20.3056641 C91.8860677,20.5791016 91.9521484,20.9391276 91.9521484,21.3857422 L91.9521484,21.3857422 L91.9521484,26 L93.203125,26 L93.203125,21.3037109 C93.203125,20.5654297 93.1028646,19.9980469 92.9023438,19.6015625 C92.5377604,18.8769531 91.8359375,18.5146484 90.796875,18.5146484 C90.3229167,18.5146484 89.8922526,18.6080729 89.5048828,18.7949219 C89.117513,18.9817708 88.750651,19.289388 88.4042969,19.7177734 L88.4042969,19.7177734 L88.4042969,18.6787109 L87.2353516,18.6787109 L87.2353516,26 L88.4658203,26 Z M101.959961,26 L103.402344,20.3330078 L104.892578,26 L106.170898,26 L108.296875,18.6787109 L107.066406,18.6787109 L105.569336,24.4140625 L104.133789,18.6787109 L102.75293,18.6787109 L101.324219,24.4482422 L99.9160156,18.6787109 L98.5693359,18.6787109 L100.681641,26 L101.959961,26 Z M110.928711,17.3525391 L110.928711,15.9580078 L109.677734,15.9580078 L109.677734,17.3525391 L110.928711,17.3525391 Z M110.928711,26 L110.928711,18.7128906 L109.677734,18.7128906 L109.677734,26 L110.928711,26 Z M114.729492,26.1162109 C114.907227,26.1162109 115.072428,26.1070964 115.225098,26.0888672 C115.377767,26.070638 115.52474,26.0410156 115.666016,26 L115.666016,26 L115.666016,25.0292969 C115.57487,25.0384115 115.495117,25.0441081 115.426758,25.0463867 C115.358398,25.0486654 115.294596,25.0498047 115.235352,25.0498047 C115.012044,25.0498047 114.852539,25.0247396 114.756836,24.9746094 C114.583659,24.8880208 114.49707,24.7171224 114.49707,24.4619141 L114.49707,24.4619141 L114.49707,19.6835938 L115.666016,19.6835938 L115.666016,18.6787109 L114.49707,18.6787109 L114.49707,16.6347656 L113.25293,16.6347656 L113.25293,18.6787109 L112.261719,18.6787109 L112.261719,19.6835938 L113.25293,19.6835938 L113.25293,24.5302734 C113.25293,24.9996745 113.355469,25.3813477 113.560547,25.675293 C113.765625,25.9692383 114.155273,26.1162109 114.729492,26.1162109 Z M118.345703,26 L118.345703,22.1171875 C118.345703,21.1419271 118.55306,20.4788411 118.967773,20.1279297 C119.382487,19.7770182 119.845052,19.6015625 120.355469,19.6015625 C120.970703,19.6015625 121.389974,19.8020833 121.613281,20.203125 C121.75,20.453776 121.818359,20.8479818 121.818359,21.3857422 L121.818359,21.3857422 L121.818359,26 L123.083008,26 L123.083008,21.3037109 C123.083008,20.5836589 122.980469,20.0208333 122.775391,19.6152344 C122.397135,18.8723958 121.677083,18.5009766 120.615234,18.5009766 C120.022786,18.5009766 119.52832,18.6308594 119.131836,18.890625 C118.899414,19.0410156 118.63737,19.3007812 118.345703,19.6699219 L118.345703,19.6699219 L118.345703,15.9238281 L117.115234,15.9238281 L117.115234,26 L118.345703,26 Z M133.473633,26.2666016 C134.394206,26.2666016 135.152995,26.0979818 135.75,25.7607422 C136.105469,25.5647786 136.513346,25.2138672 136.973633,24.7080078 L136.973633,24.7080078 L137.301758,26 L138.176758,26 L138.176758,20.6269531 L133.767578,20.6269531 L133.767578,21.7548828 L136.912109,21.7548828 C136.898438,22.9306641 136.594238,23.7817383 135.999512,24.3081055 C135.404785,24.8344727 134.653971,25.0976562 133.74707,25.0976562 C132.562174,25.0976562 131.707682,24.722819 131.183594,23.9731445 C130.659505,23.2234701 130.397461,22.2516276 130.397461,21.0576172 C130.397461,19.6767578 130.715332,18.6376953 131.351074,17.9404297 C131.986816,17.2431641 132.769531,16.8945312 133.699219,16.8945312 C134.483073,16.8945312 135.132487,17.0620117 135.647461,17.3969727 C136.162435,17.7319336 136.501953,18.266276 136.666016,19 L136.666016,19 L138.012695,19 C137.789388,17.6875 137.178711,16.7692057 136.180664,16.2451172 C135.492513,15.8805339 134.676758,15.6982422 133.733398,15.6982422 C132.357096,15.6982422 131.236003,16.1722005 130.370117,17.1201172 C129.458659,18.1136068 129.00293,19.4511719 129.00293,21.1328125 C129.00293,22.8190104 129.470052,24.1451823 130.404297,25.1113281 C131.261068,25.8815104 132.28418,26.2666016 133.473633,26.2666016 Z M143.125977,26.2666016 C144.333659,26.2666016 145.224609,25.8815104 145.798828,25.1113281 C146.373047,24.3411458 146.660156,23.3658854 146.660156,22.1855469 C146.660156,20.9641927 146.33431,20.0390625 145.682617,19.4101562 C145.030924,18.78125 144.233398,18.4667969 143.290039,18.4667969 C142.237305,18.4667969 141.398763,18.8313802 140.774414,19.5605469 C140.150065,20.2897135 139.837891,21.2695312 139.837891,22.5 C139.837891,23.6484375 140.134115,24.5633138 140.726562,25.2446289 C141.31901,25.925944 142.118815,26.2666016 143.125977,26.2666016 Z M143.242188,25.2070312 C142.499349,25.2070312 141.957031,24.9472656 141.615234,24.4277344 C141.273438,23.9082031 141.102539,23.2587891 141.102539,22.4794922 C141.102539,21.6682943 141.273438,20.9755859 141.615234,20.4013672 C141.957031,19.8271484 142.503906,19.5400391 143.255859,19.5400391 C144.103516,19.5400391 144.700521,19.8772786 145.046875,20.5517578 C145.265625,20.9801432 145.375,21.5361328 145.375,22.2197266 C145.375,22.976237 145.22347,23.6632487 144.92041,24.2807617 C144.61735,24.8982747 144.057943,25.2070312 143.242188,25.2070312 Z M151.130859,26.2666016 C152.338542,26.2666016 153.229492,25.8815104 153.803711,25.1113281 C154.37793,24.3411458 154.665039,23.3658854 154.665039,22.1855469 C154.665039,20.9641927 154.339193,20.0390625 153.6875,19.4101562 C153.035807,18.78125 152.238281,18.4667969 151.294922,18.4667969 C150.242188,18.4667969 149.403646,18.8313802 148.779297,19.5605469 C148.154948,20.2897135 147.842773,21.2695312 147.842773,22.5 C147.842773,23.6484375 148.138997,24.5633138 148.731445,25.2446289 C149.323893,25.925944 150.123698,26.2666016 151.130859,26.2666016 Z M151.24707,25.2070312 C150.504232,25.2070312 149.961914,24.9472656 149.620117,24.4277344 C149.27832,23.9082031 149.107422,23.2587891 149.107422,22.4794922 C149.107422,21.6682943 149.27832,20.9755859 149.620117,20.4013672 C149.961914,19.8271484 150.508789,19.5400391 151.260742,19.5400391 C152.108398,19.5400391 152.705404,19.8772786 153.051758,20.5517578 C153.270508,20.9801432 153.379883,21.5361328 153.379883,22.2197266 C153.379883,22.976237 153.228353,23.6632487 152.925293,24.2807617 C152.622233,24.8982747 152.062826,25.2070312 151.24707,25.2070312 Z M158.978516,29.0966797 C160.395833,29.0966797 161.359701,28.5999349 161.870117,27.6064453 C162.143555,27.0686849 162.280273,26.3349609 162.280273,25.4052734 L162.280273,25.4052734 L162.280273,18.7470703 L161.145508,18.7470703 L161.145508,19.6699219 C160.903971,19.3645833 160.666992,19.1321615 160.43457,18.9726562 C160.006185,18.6901042 159.504883,18.5488281 158.930664,18.5488281 C158.083008,18.5488281 157.359538,18.8929036 156.760254,19.5810547 C156.16097,20.2692057 155.861328,21.226237 155.861328,22.4521484 C155.861328,23.7509766 156.158691,24.6818034 156.753418,25.2446289 C157.348145,25.8074544 158.041992,26.0888672 158.834961,26.0888672 C159.404622,26.0888672 159.86263,25.9977214 160.208984,25.8154297 C160.555339,25.633138 160.851562,25.3551432 161.097656,24.9814453 C161.111328,25.9886068 161.031576,26.688151 160.858398,27.0800781 C160.566732,27.7454427 159.949219,28.078125 159.005859,28.078125 C158.408854,28.078125 157.971354,27.9414062 157.693359,27.6679688 C157.515625,27.4902344 157.397135,27.2373047 157.337891,26.9091797 L157.337891,26.9091797 L156.086914,26.9091797 C156.150716,27.6611328 156.451497,28.2137044 156.989258,28.5668945 C157.527018,28.9200846 158.190104,29.0966797 158.978516,29.0966797 Z M158.978516,25.0839844 C158.413411,25.0839844 157.963379,24.8686523 157.628418,24.4379883 C157.293457,24.0073242 157.125977,23.3795573 157.125977,22.5546875 C157.125977,21.8528646 157.210286,21.2854818 157.378906,20.8525391 C157.697917,20.0413411 158.290365,19.6357422 159.15625,19.6357422 C159.735026,19.6357422 160.211263,19.8544922 160.584961,20.2919922 C160.958659,20.7294922 161.145508,21.4016927 161.145508,22.3085938 C161.145508,22.9101562 161.045247,23.4365234 160.844727,23.8876953 C160.484701,24.6852214 159.86263,25.0839844 158.978516,25.0839844 Z M165.616211,26 L165.616211,15.9580078 L164.385742,15.9580078 L164.385742,26 L165.616211,26 Z M170.538086,26.2597656 C170.911784,26.2597656 171.246745,26.2233073 171.542969,26.1503906 C172.094401,26.0227865 172.556966,25.7766927 172.930664,25.4121094 C173.153971,25.202474 173.355632,24.9324544 173.535645,24.6020508 C173.715658,24.2716471 173.821615,23.9720052 173.853516,23.703125 L173.853516,23.703125 L172.643555,23.703125 C172.552409,24.0266927 172.397461,24.3115234 172.178711,24.5576172 C171.795898,24.9814453 171.283203,25.1933594 170.640625,25.1933594 C169.952474,25.1933594 169.444336,24.9689128 169.116211,24.5200195 C168.788086,24.0711263 168.61263,23.4752604 168.589844,22.7324219 L168.589844,22.7324219 L173.956055,22.7324219 C173.956055,21.9941406 173.919596,21.4563802 173.84668,21.1191406 C173.764648,20.6269531 173.600586,20.1962891 173.354492,19.8271484 C173.099284,19.4397786 172.727865,19.1241862 172.240234,18.8803711 C171.752604,18.636556 171.249023,18.5146484 170.729492,18.5146484 C169.699544,18.5146484 168.86556,18.8815104 168.227539,19.6152344 C167.589518,20.3489583 167.270508,21.3037109 167.270508,22.4794922 C167.270508,23.6735026 167.58724,24.6020508 168.220703,25.2651367 C168.854167,25.9282227 169.626628,26.2597656 170.538086,26.2597656 Z M172.691406,21.7548828 L168.624023,21.7548828 C168.64681,21.1259766 168.849609,20.6075846 169.232422,20.199707 C169.615234,19.7918294 170.089193,19.5878906 170.654297,19.5878906 C171.442708,19.5878906 172.005534,19.8841146 172.342773,20.4765625 C172.525065,20.7955729 172.641276,21.2216797 172.691406,21.7548828 L172.691406,21.7548828 Z" id="SigninwithGoogle" fill="#FFFFFF" fill-rule="nonzero"></path>
            <rect id="button-bg-copy" fill="#FFFFFF" x="1" y="1" width="38" height="38" rx="1"></rect>
            <g id="logo_googleg_48dp" transform="translate(11.000000, 11.000000)">
                <path d="M17.64,9.20454545 C17.64,8.56636364 17.5827273,7.95272727 17.4763636,7.36363636 L9,7.36363636 L9,10.845 L13.8436364,10.845 C13.635,11.97 13.0009091,12.9231818 12.0477273,13.5613636 L12.0477273,15.8195455 L14.9563636,15.8195455 C16.6581818,14.2527273 17.64,11.9454545 17.64,9.20454545 L17.64,9.20454545 Z" id="Shape" fill="#4285F4"></path>
                <path d="M9,18 C11.43,18 13.4672727,17.1940909 14.9563636,15.8195455 L12.0477273,13.5613636 C11.2418182,14.1013636 10.2109091,14.4204545 9,14.4204545 C6.65590909,14.4204545 4.67181818,12.8372727 3.96409091,10.71 L0.957272727,10.71 L0.957272727,13.0418182 C2.43818182,15.9831818 5.48181818,18 9,18 L9,18 Z" id="Shape" fill="#34A853"></path>
                <path d="M3.96409091,10.71 C3.78409091,10.17 3.68181818,9.59318182 3.68181818,9 C3.68181818,8.40681818 3.78409091,7.83 3.96409091,7.29 L3.96409091,4.95818182 L0.957272727,4.95818182 C0.347727273,6.17318182 0,7.54772727 0,9 C0,10.4522727 0.347727273,11.8268182 0.957272727,13.0418182 L3.96409091,10.71 L3.96409091,10.71 Z" id="Shape" fill="#FBBC05"></path>
                <path d="M9,3.57954545 C10.3213636,3.57954545 11.5077273,4.03363636 12.4404545,4.92545455 L15.0218182,2.34409091 C13.4631818,0.891818182 11.4259091,0 9,0 C5.48181818,0 2.43818182,2.01681818 0.957272727,4.95818182 L3.96409091,7.29 C4.67181818,5.16272727 6.65590909,3.57954545 9,3.57954545 L9,3.57954545 Z" id="Shape" fill="#EA4335"></path>
                <polygon id="Shape" points="0 0 18 0 18 18 0 18"></polygon>
            </g>
        </g>
    </g>
</svg>