<svg width="41" height="40" viewBox="0 0 41 40" fill="none" xmlns="http://www.w3.org/2000/svg">
<path d="M29.3493 36.1832V37.759C29.3493 38.062 29.0463 38.3651 28.7433 38.3651H12.2584C11.9554 38.3651 11.6523 38.062 11.6523 37.759V36.1832C11.6523 35.0317 12.622 34.062 13.7736 34.062H15.713L16.319 30.5469H24.6826L25.2887 34.062H27.2281C28.3796 34.062 29.3493 35.0317 29.3493 36.1832Z" fill="#0D9488"/>
<path d="M37.4701 1.63672H3.53069C2.19735 1.63672 1.10645 2.72763 1.10645 4.06096V26.8488C1.10645 28.1822 2.19735 29.2731 3.53069 29.2731H37.4701C38.8034 29.2731 39.8943 28.1822 39.8943 26.8488V4.12157C39.8943 2.78823 38.8034 1.63672 37.4701 1.63672ZM20.5004 27.0913C19.7125 27.0913 19.0458 26.4246 19.0458 25.6367C19.0458 24.8488 19.7125 24.1822 20.5004 24.1822C21.2883 24.1822 21.9549 24.8488 21.9549 25.6367C21.9549 26.4246 21.2883 27.0913 20.5004 27.0913ZM38.6822 21.9397H2.31857V4.12157C2.31857 3.4549 2.86402 2.90945 3.53069 2.90945H37.4701C38.1367 2.90945 38.6822 3.4549 38.6822 4.12157V21.9397Z" fill="#0D9488"/>
<path d="M20.0151 11.3951V20.2436C20.0151 20.5466 19.712 20.8497 19.409 20.8497H15.9544C15.5908 20.8497 15.3484 20.5466 15.3484 20.2436V11.3951C15.3484 11.0315 15.5908 10.7891 15.9544 10.7891H19.409C19.712 10.7891 20.0151 11.0921 20.0151 11.3951Z" fill="#ABE2DD"/>
<path d="M25.7116 13.3951V20.2436C25.7116 20.5466 25.4692 20.8497 25.1055 20.8497H21.651C21.2873 20.8497 21.0449 20.5466 21.0449 20.2436V13.3951C21.0449 13.0315 21.2873 12.7891 21.651 12.7891H25.1055C25.4086 12.7891 25.7116 13.0315 25.7116 13.3951Z" fill="#ABE2DD"/>
<path d="M31.409 9.51622V20.2435C31.409 20.5465 31.1059 20.8495 30.8029 20.8495H27.3484C27.0453 20.8495 26.7423 20.5465 26.7423 20.2435V9.51622C26.7423 9.15258 27.0453 8.91016 27.3484 8.91016H30.8029C31.1059 8.91016 31.409 9.21319 31.409 9.51622Z" fill="#ABE2DD"/>
<path d="M14.2575 15.5162V20.3041C14.2575 20.6071 14.0151 20.9102 13.6514 20.9102H10.1969C9.83324 20.9102 9.59082 20.6071 9.59082 20.3041V15.5162C9.59082 15.1526 9.83324 14.9102 10.1969 14.9102H13.6514C14.0151 14.9102 14.2575 15.1526 14.2575 15.5162Z" fill="#ABE2DD"/>
<path d="M29.2879 6.9697C29.2879 7.33333 29.0455 7.57576 28.6819 7.57576C28.6213 7.57576 28.0758 7.57576 28.0758 7.0303L28.0152 5.87879L23.2879 10.1212C23.1061 10.303 22.8031 10.303 22.6213 10.1818L17.2273 7.27273L11.3485 11.8788C11.1061 12.1212 10.6819 12.0606 10.5001 11.7576C10.3182 11.5152 10.3182 11.0909 10.6213 10.9091L16.8031 6.06061C16.9849 5.87879 17.2879 5.87879 17.4698 6L22.8031 8.90909L26.9243 5.21212L25.6516 5.27273C25.3485 5.27273 25.0455 5.0303 25.0455 4.66667C25.0455 4.30303 25.2879 4.06061 25.6516 4.06061L28.6213 4C28.9243 4 29.2273 4.24242 29.2273 4.60606L29.2879 6.9697Z" fill="#ABE2DD"/>
</svg>
