<svg width="141" height="180" viewBox="0 0 141 180" fill="none" xmlns="http://www.w3.org/2000/svg">
<rect x="0.5" width="140" height="180" rx="70" fill="#F5F6F7"/>
<g clip-path="url(#clip0_556_1563)">
<path fill-rule="evenodd" clip-rule="evenodd" d="M85.1921 119.298L81.9487 113.673C81.8848 113.567 81.8427 113.448 81.8249 113.325C81.8072 113.202 81.8141 113.077 81.8452 112.957C81.8764 112.836 81.9311 112.724 82.0063 112.625C82.0815 112.526 82.1757 112.443 82.2832 112.38C82.3908 112.318 82.5097 112.278 82.633 112.262C82.7562 112.247 82.8814 112.255 83.0012 112.288C83.121 112.322 83.233 112.378 83.3307 112.455C83.4284 112.532 83.5099 112.627 83.5704 112.736L86.8212 118.361C86.9026 118.503 86.9453 118.665 86.945 118.829C86.9447 118.993 86.9014 119.155 86.8194 119.297C86.7374 119.439 86.6196 119.558 86.4777 119.64C86.3357 119.723 86.1746 119.767 86.0104 119.768C85.845 119.768 85.6825 119.724 85.539 119.642C85.3955 119.56 85.2759 119.442 85.1921 119.299V119.298ZM52.6983 63.0155C52.5774 62.7996 52.5465 62.5448 52.6123 62.3064C52.678 62.0679 52.8351 61.8649 53.0495 61.7416C53.2639 61.6182 53.5183 61.5843 53.7576 61.6473C53.9968 61.7102 54.2015 61.865 54.3274 62.078L59.2074 70.5311C59.2888 70.6737 59.3315 70.8352 59.3311 70.9994C59.3308 71.1637 59.2875 71.325 59.2055 71.4673C59.1235 71.6096 59.0057 71.728 58.8637 71.8106C58.7218 71.8933 58.5607 71.9373 58.3965 71.9384C58.231 71.9382 58.0685 71.8947 57.925 71.8123C57.7815 71.7299 57.662 71.6115 57.5783 71.4687L52.6983 63.0155ZM98.6746 108.51C98.6137 108.616 98.5323 108.71 98.4351 108.785C98.338 108.86 98.2269 108.915 98.1085 108.947C97.99 108.979 97.8663 108.987 97.7447 108.971C97.623 108.955 97.5057 108.915 97.3994 108.854L91.2072 105.279C91.0014 105.15 90.8536 104.947 90.7948 104.711C90.7361 104.475 90.7711 104.226 90.8924 104.016C91.0137 103.806 91.212 103.65 91.4453 103.583C91.6786 103.516 91.929 103.542 92.1435 103.656L98.3355 107.229C98.442 107.291 98.5352 107.373 98.6099 107.471C98.6845 107.568 98.7392 107.68 98.7707 107.799C98.8021 107.918 98.8099 108.042 98.7934 108.164C98.7769 108.286 98.7365 108.404 98.6746 108.51ZM42.791 108.51C42.7296 108.403 42.6899 108.285 42.674 108.163C42.6582 108.041 42.6666 107.917 42.6988 107.798C42.731 107.679 42.7863 107.567 42.8615 107.47C42.9368 107.372 43.0305 107.291 43.1374 107.229L49.3221 103.656C49.5374 103.531 49.7937 103.497 50.0345 103.56C50.2753 103.624 50.4809 103.781 50.6061 103.996C50.7313 104.212 50.7658 104.468 50.702 104.709C50.6383 104.95 50.4815 105.155 50.2662 105.28L44.0737 108.853C43.9324 108.935 43.7722 108.978 43.6091 108.978C43.4437 108.978 43.2813 108.935 43.1378 108.853C42.9943 108.77 42.8747 108.652 42.791 108.51ZM82.2662 70.5308L87.146 62.0776C87.2077 61.9709 87.2898 61.8774 87.3877 61.8024C87.4855 61.7274 87.5972 61.6724 87.7163 61.6406C87.8354 61.6087 87.9596 61.6007 88.0819 61.6168C88.2041 61.633 88.3219 61.6731 88.4287 61.7348C88.5357 61.7959 88.6296 61.8777 88.7047 61.9754C88.7799 62.0731 88.8348 62.1848 88.8664 62.304C88.8979 62.4231 88.9055 62.5474 88.8885 62.6695C88.8716 62.7916 88.8305 62.9091 88.7677 63.0151L83.8879 71.4683C83.7636 71.6833 83.5589 71.8402 83.3189 71.9043C83.0789 71.9685 82.8233 71.9347 82.6083 71.8104C82.3932 71.6861 82.2364 71.4814 82.1722 71.2414C82.108 71.0015 82.1418 70.7458 82.2662 70.5308ZM54.9983 119.642C54.7825 119.518 54.6248 119.313 54.5598 119.073C54.4948 118.832 54.5279 118.576 54.6518 118.36L57.9018 112.735C58.0261 112.52 58.2308 112.363 58.4707 112.299C58.7107 112.235 58.9663 112.269 59.1814 112.393C59.3964 112.518 59.5533 112.722 59.6175 112.962C59.6816 113.202 59.6478 113.458 59.5235 113.673L56.2727 119.298C56.1911 119.441 56.0731 119.559 55.9307 119.642C55.7882 119.724 55.6265 119.767 55.4619 119.767C55.2987 119.767 55.1384 119.723 54.9976 119.64L54.9983 119.642ZM69.8004 67.647V57.6144C69.7988 57.4904 69.8218 57.3674 69.8681 57.2524C69.9145 57.1374 69.9832 57.0327 70.0703 56.9445C70.1573 56.8563 70.2611 56.7863 70.3755 56.7384C70.4898 56.6906 70.6126 56.666 70.7365 56.666C70.8605 56.666 70.9832 56.6906 71.0976 56.7384C71.212 56.7863 71.3157 56.8563 71.4028 56.9445C71.4899 57.0327 71.5586 57.1374 71.605 57.2524C71.6513 57.3674 71.6743 57.4904 71.6727 57.6144V67.647C71.6743 67.771 71.6513 67.894 71.605 68.009C71.5586 68.124 71.4899 68.2286 71.4028 68.3168C71.3157 68.4051 71.212 68.4751 71.0976 68.5229C70.9832 68.5707 70.8605 68.5954 70.7365 68.5954C70.6126 68.5954 70.4898 68.5707 70.3755 68.5229C70.2611 68.4751 70.1573 68.4051 70.0703 68.3168C69.9832 68.2286 69.9145 68.124 69.8681 68.009C69.8218 67.894 69.7988 67.771 69.8004 67.647ZM70.7365 123.571C70.4881 123.57 70.25 123.471 70.0745 123.296C69.899 123.12 69.8004 122.882 69.8004 122.633V116.374C69.7988 116.25 69.8218 116.127 69.8681 116.012C69.9145 115.897 69.9832 115.792 70.0703 115.704C70.1573 115.616 70.2611 115.546 70.3755 115.498C70.4898 115.45 70.6126 115.425 70.7365 115.425C70.8605 115.425 70.9832 115.45 71.0976 115.498C71.212 115.546 71.3157 115.616 71.4028 115.704C71.4899 115.792 71.5586 115.897 71.605 116.012C71.6513 116.127 71.6743 116.25 71.6727 116.374V122.633C71.6727 122.881 71.5741 123.12 71.3986 123.295C71.223 123.471 70.9849 123.57 70.7365 123.571ZM91.5612 94.8259L82.789 88.5072C82.61 88.377 82.3904 88.315 82.1698 88.3323C80.0215 88.5013 77.8645 88.1408 75.8879 87.2825C73.9114 86.4241 72.1755 85.0941 70.8324 83.4089C70.6818 83.221 70.4648 83.0979 70.2262 83.0652C69.9876 83.0324 69.7455 83.0924 69.5497 83.2328C64.6033 86.794 63.4165 87.3365 63.1512 87.4147C63.1365 87.4147 63.1143 87.4161 63.0996 87.4169C59.7602 87.5791 58.7651 86.1011 58.3302 84.918L69.874 76.3455L85.8851 78.5983C86.0689 78.6236 86.2561 78.5941 86.4232 78.5134L89.0254 77.253L96.279 91.8537L91.5612 94.8259ZM92.2174 100.035C92.5198 99.6165 92.6468 99.0967 92.5713 98.5862C92.5331 98.3327 92.4451 98.0893 92.3122 97.87C92.1794 97.6507 92.0044 97.46 91.7974 97.3087L81.9637 90.2255C79.7159 90.3489 77.469 89.9669 75.3883 89.1074C73.3076 88.248 71.4461 86.933 69.9407 85.2592C64.3157 89.2723 63.6676 89.2819 63.2326 89.2886H63.1883C58.8538 89.4994 57.1658 87.3026 56.5165 85.423C56.3964 85.0779 56.3895 84.7035 56.4969 84.3543C56.6043 84.0051 56.8203 83.6992 57.1135 83.4812L64.8755 77.7166C61.6886 77.2364 58.4397 77.3632 55.2999 78.0903C55.2323 78.1062 55.163 78.1141 55.0935 78.1139C54.9612 78.1144 54.8304 78.086 54.7102 78.0306L52.5429 77.0561L45.511 91.2065L51.4452 95.1923L53.863 92.7737C54.3817 92.2541 55.0431 91.9002 55.7631 91.7568C56.4832 91.6134 57.2297 91.687 57.9079 91.9683C58.5861 92.2496 59.1655 92.7259 59.5727 93.3369C59.9799 93.9478 60.1966 94.6659 60.1952 95.4001C60.1965 95.4744 60.194 95.5488 60.1877 95.6228C60.2615 95.6184 60.3352 95.6155 60.4163 95.6155C60.9227 95.6145 61.4238 95.7175 61.8888 95.918C62.3538 96.1186 62.7726 96.4124 63.1195 96.7813C63.4664 97.1502 63.7338 97.5863 63.9054 98.0628C64.0769 98.5392 64.1489 99.0457 64.1168 99.5511C64.6405 99.5181 65.1653 99.5971 65.6562 99.7826C66.1471 99.9682 66.5929 100.256 66.9639 100.627C67.3349 100.999 67.6226 101.444 67.8079 101.935C67.9932 102.426 68.0719 102.951 68.0387 103.475C68.1124 103.471 68.1935 103.468 68.2673 103.468C68.8957 103.471 69.5134 103.632 70.0627 103.937C70.612 104.243 71.0749 104.682 71.4083 105.215C71.7417 105.748 71.9348 106.357 71.9694 106.984C72.0041 107.612 71.8792 108.238 71.6065 108.804L73.9212 110.508C74.338 110.812 74.8582 110.939 75.3681 110.86C75.8779 110.782 76.3359 110.504 76.6419 110.089C76.9479 109.674 77.077 109.154 77.0009 108.644C76.9248 108.134 76.6497 107.674 76.2358 107.366C76.2285 107.363 76.2285 107.361 76.2212 107.358L71.3263 103.76C71.126 103.612 70.9925 103.391 70.9553 103.145C70.918 102.899 70.98 102.648 71.1276 102.448C71.2752 102.247 71.4964 102.114 71.7424 102.077C71.9884 102.039 72.2391 102.101 72.4394 102.249L79.413 107.379C79.62 107.531 79.8547 107.64 80.1039 107.7C80.3531 107.761 80.6118 107.772 80.8652 107.732C81.1182 107.694 81.3612 107.606 81.5801 107.474C81.7991 107.342 81.9898 107.168 82.1412 106.961C82.2926 106.755 82.4017 106.521 82.4623 106.273C82.5229 106.024 82.5338 105.766 82.4943 105.513C82.4163 105.007 82.1439 104.551 81.7351 104.242L76.6191 100.482C76.4188 100.336 76.285 100.115 76.247 99.8702C76.2091 99.6249 76.2701 99.3745 76.4168 99.1742C76.5634 98.9739 76.7836 98.8401 77.0289 98.8021C77.2743 98.7642 77.5246 98.8252 77.7249 98.9719L82.8333 102.722V102.726C82.8407 102.728 82.8407 102.73 82.8407 102.732L84.7057 104.102C84.9118 104.256 85.1464 104.368 85.396 104.431C85.6455 104.494 85.9051 104.507 86.1596 104.469C86.4142 104.431 86.6588 104.343 86.8792 104.21C87.0996 104.077 87.2916 103.902 87.4439 103.695C87.5963 103.487 87.706 103.252 87.7669 103.002C87.8277 102.752 87.8384 102.492 87.7983 102.238C87.7583 101.983 87.6682 101.74 87.5334 101.52C87.3987 101.301 87.2218 101.111 87.013 100.96V100.958L81.3958 96.8311C81.2967 96.758 81.2128 96.6661 81.1492 96.5606C81.0855 96.4552 81.0433 96.3382 81.0248 96.2164C81.0063 96.0946 81.0121 95.9703 81.0416 95.8507C81.0712 95.7311 81.124 95.6185 81.1971 95.5194C81.2702 95.4202 81.3621 95.3364 81.4675 95.2727C81.573 95.209 81.69 95.1668 81.8118 95.1483C81.9336 95.1299 82.0578 95.1356 82.1774 95.1651C82.297 95.1947 82.4096 95.2475 82.5088 95.3206L89.4897 100.45C89.695 100.602 89.9285 100.711 90.1766 100.772C90.4247 100.833 90.6824 100.843 90.9346 100.803C91.4471 100.727 91.9087 100.451 92.2174 100.035ZM67.0507 110.991C66.706 111.336 66.2384 111.53 65.7507 111.53C65.263 111.531 64.7951 111.337 64.4501 110.992C64.105 110.648 63.911 110.18 63.9108 109.692C63.9105 109.205 64.104 108.737 64.4487 108.392C64.4487 108.392 64.4487 108.391 64.456 108.391L66.9622 105.879C67.3074 105.535 67.7748 105.342 68.2621 105.342C68.7493 105.343 69.2164 105.536 69.561 105.881C69.9057 106.225 70.0995 106.692 70.1002 107.18C70.1008 107.667 69.9081 108.134 69.5644 108.48L67.0507 110.991ZM61.8243 107.6C61.4612 107.6 61.1063 107.492 60.8045 107.29C60.5027 107.088 60.2676 106.802 60.1288 106.466C59.99 106.13 59.9538 105.761 60.0247 105.405C60.0957 105.049 60.2706 104.722 60.5274 104.465L63.041 101.952C63.3868 101.612 63.8532 101.422 64.3385 101.424C64.8238 101.425 65.2887 101.619 65.632 101.962C65.9753 102.305 66.1691 102.77 66.1712 103.255C66.1733 103.74 65.9835 104.207 65.6432 104.553L63.1291 107.065C62.9576 107.236 62.754 107.371 62.5301 107.463C62.3062 107.555 62.0663 107.602 61.8243 107.6ZM56.5979 103.138C56.2576 102.791 56.0671 102.324 56.0671 101.838C56.0671 101.352 56.2576 100.885 56.5979 100.538L59.1116 98.0255C59.282 97.8532 59.4848 97.7163 59.7083 97.6227C59.9317 97.529 60.1715 97.4805 60.4138 97.4798C60.6561 97.4791 60.8962 97.5262 61.1202 97.6186C61.3442 97.711 61.5477 97.8467 61.7191 98.0179C61.8905 98.1892 62.0264 98.3927 62.1189 98.6166C62.2115 98.8405 62.2588 99.0805 62.2583 99.3228C62.2578 99.5651 62.2094 99.8049 62.116 100.028C62.0225 100.252 61.8858 100.455 61.7137 100.625L59.2001 103.138C58.8545 103.483 58.3867 103.676 57.899 103.676C57.4113 103.676 56.9434 103.483 56.5979 103.138ZM53.9737 99.7478C53.6105 99.7474 53.2556 99.6394 52.9539 99.4374C52.6521 99.2354 52.417 98.9485 52.2782 98.6129C52.1394 98.2774 52.1032 97.9082 52.1741 97.552C52.2451 97.1959 52.42 96.8688 52.6768 96.612L55.1832 94.0997C55.3547 93.9289 55.5582 93.7938 55.7821 93.7019C56.006 93.6101 56.2459 93.5634 56.4879 93.5645C56.851 93.5647 57.2058 93.6725 57.5077 93.8743C57.8095 94.0761 58.0447 94.3629 58.1835 94.6984C58.3223 95.0339 58.3585 95.4031 58.2875 95.7591C58.2166 96.1152 58.0416 96.4423 57.7848 96.6989L55.2783 99.2119C55.1068 99.3826 54.9033 99.5177 54.6794 99.6096C54.4555 99.7014 54.2157 99.7489 53.9737 99.7478ZM101.218 68.404C100.886 67.7372 100.302 67.2294 99.5962 66.9921C98.89 66.7548 98.1185 66.8074 97.451 67.1384L89.1801 71.2478C88.5153 71.5815 88.0092 72.1641 87.7718 72.8689C87.5344 73.5738 87.5849 74.3439 87.9122 75.0117L88.1922 75.5719L85.8629 76.7009L69.7562 74.434C69.511 74.3997 69.2621 74.463 69.0632 74.6103L66.9327 76.193C63.0671 75.3421 59.0627 75.3424 55.1973 76.1937L53.3765 75.3755L53.5608 75.012C53.8881 74.3441 53.9385 73.5741 53.7011 72.8692C53.4637 72.1644 52.9576 71.5818 52.2929 71.2481L44.0146 67.1384C43.3482 66.8078 42.5778 66.7554 41.8728 66.9928C41.1678 67.2301 40.586 67.7377 40.2552 68.404L31.026 86.9797C30.6987 87.6475 30.6483 88.4176 30.8857 89.1224C31.1231 89.8272 31.6291 90.4099 32.2938 90.7436L40.5721 94.853C40.9563 95.0463 41.3804 95.147 41.8105 95.1472C42.1164 95.1469 42.4202 95.0966 42.7099 94.9983C43.0605 94.8827 43.3844 94.6984 43.6629 94.4562C43.9413 94.2139 44.1687 93.9185 44.3316 93.5873L44.6707 92.9011L50.4426 96.7776C50.2627 97.334 50.2171 97.9251 50.3094 98.5025C50.4018 99.0799 50.6295 99.6273 50.9739 100.1C51.3183 100.572 51.7696 100.957 52.291 101.221C52.8124 101.486 53.3891 101.624 53.9738 101.623C54.0476 101.623 54.1213 101.621 54.1949 101.616C54.1949 101.69 54.1876 101.765 54.1876 101.839C54.1886 102.824 54.5804 103.768 55.277 104.464C55.9736 105.16 56.918 105.551 57.9027 105.551C57.9765 105.551 58.0502 105.545 58.124 105.541C58.1166 105.615 58.1166 105.69 58.1166 105.766C58.1154 106.253 58.2105 106.736 58.3963 107.186C58.5822 107.637 58.8553 108.046 59.1998 108.391C59.5443 108.736 59.9535 109.009 60.4039 109.195C60.8543 109.381 61.3371 109.477 61.8244 109.476C61.9055 109.476 61.9793 109.473 62.053 109.469C62.0077 110.22 62.1919 110.967 62.5812 111.611C62.9705 112.255 63.5465 112.766 64.2326 113.075C64.9188 113.384 65.6828 113.477 66.4231 113.342C67.1634 113.207 67.8451 112.849 68.3777 112.318L70.4271 110.268L72.8154 112.02C73.364 112.423 74.0103 112.672 74.6876 112.742C75.3649 112.812 76.0485 112.7 76.6678 112.417C77.2871 112.134 77.8195 111.69 78.2102 111.133C78.6008 110.575 78.8353 109.923 78.8896 109.245C79.4531 109.521 80.0762 109.655 80.7036 109.633C81.331 109.611 81.9433 109.435 82.4864 109.12C83.0295 108.805 83.4865 108.361 83.817 107.828C84.1475 107.294 84.3413 106.687 84.3812 106.06C85.1734 106.39 86.0532 106.445 86.8802 106.216C87.7072 105.987 88.4337 105.488 88.9437 104.797C89.4176 104.156 89.6757 103.381 89.6807 102.583C90.184 102.711 90.7081 102.737 91.2215 102.657C91.9387 102.547 92.6096 102.235 93.156 101.757C93.7024 101.279 94.1017 100.656 94.3072 99.9604C94.5128 99.2645 94.5162 98.5244 94.317 97.8266C94.1178 97.1288 93.7242 96.5021 93.1822 96.0195L97.1187 93.5419L97.1407 93.5876C97.3039 93.9181 97.5308 94.2131 97.8082 94.4556C98.0857 94.6982 98.4083 94.8836 98.7576 95.0012C99.1069 95.1188 99.476 95.1662 99.8437 95.1408C100.211 95.1155 100.57 95.0177 100.9 94.8533L109.179 90.7439C109.843 90.4102 110.349 89.8276 110.587 89.1228C110.824 88.4179 110.774 87.6479 110.446 86.98L101.218 68.404ZM43.1521 88.5759C43.1521 89.0731 43.0047 89.5591 42.7284 89.9725C42.4522 90.3859 42.0596 90.7081 41.6003 90.8983C41.1409 91.0886 40.6355 91.1384 40.1479 91.0414C39.6603 90.9444 39.2123 90.7049 38.8608 90.3534C38.5093 90.0018 38.2699 89.5539 38.1729 89.0662C38.0759 88.5786 38.1257 88.0732 38.316 87.6138C38.5063 87.1545 38.8285 86.7619 39.2419 86.4857C39.6553 86.2095 40.1413 86.0621 40.6385 86.0622C41.3049 86.063 41.9438 86.3282 42.415 86.7994C42.8862 87.2706 43.1513 87.9095 43.1521 88.5759ZM41.2798 88.5759C41.2802 88.7027 41.243 88.8268 41.1729 88.9324C41.1027 89.0381 41.0028 89.1205 40.8858 89.1693C40.7688 89.2182 40.6399 89.2312 40.5155 89.2067C40.3911 89.1822 40.2767 89.1214 40.1869 89.0319C40.0971 88.9424 40.0359 88.8282 40.011 88.7039C39.9861 88.5796 39.9986 88.4506 40.0471 88.3335C40.0955 88.2163 40.1776 88.1161 40.283 88.0456C40.3884 87.9751 40.5123 87.9375 40.6391 87.9375C40.8087 87.9375 40.9713 88.0047 41.0913 88.1243C41.2114 88.244 41.2792 88.4064 41.2798 88.5759ZM98.4462 88.6901C98.4462 88.193 98.5936 87.707 98.8698 87.2936C99.146 86.8802 99.5386 86.558 99.9979 86.3677C100.457 86.1775 100.963 86.1277 101.45 86.2247C101.938 86.3217 102.386 86.5611 102.737 86.9127C103.089 87.2642 103.328 87.7121 103.425 88.1997C103.522 88.6874 103.473 89.1928 103.282 89.6521C103.092 90.1114 102.77 90.504 102.356 90.7802C101.943 91.0565 101.457 91.2039 100.96 91.2039C100.293 91.2031 99.6546 90.938 99.1833 90.4667C98.7121 89.9955 98.447 89.3566 98.4462 88.6901ZM100.96 89.3292C100.834 89.3289 100.71 89.2912 100.605 89.2207C100.5 89.1503 100.419 89.0504 100.371 88.9336C100.322 88.8168 100.31 88.6884 100.335 88.5645C100.36 88.4406 100.421 88.3269 100.51 88.2377C100.6 88.1485 100.713 88.0878 100.837 88.0632C100.961 88.0387 101.09 88.0515 101.206 88.0999C101.323 88.1483 101.423 88.2302 101.493 88.3353C101.563 88.4403 101.601 88.5638 101.601 88.6901C101.6 88.8599 101.533 89.0225 101.413 89.1424C101.292 89.2623 101.13 89.3292 100.96 89.3292Z" fill="#0D9488"/>
</g>
<defs>
<clipPath id="clip0_556_1563">
<rect width="80" height="80" fill="white" transform="translate(30.5 50)"/>
</clipPath>
</defs>
</svg>
