<svg width="40" height="40" viewBox="0 0 40 40" fill="none" xmlns="http://www.w3.org/2000/svg">
<path d="M11.9874 18.7818C11.9874 23.5122 15.8221 27.3469 20.5525 27.3469C25.2828 27.3469 29.1175 23.5122 29.1175 18.7818C29.1175 14.0515 25.2828 10.2168 20.5525 10.2168C15.8244 10.2221 11.9927 14.0538 11.9874 18.7818ZM20.5525 19.3231C19.1312 19.331 17.9268 18.2784 17.7449 16.8686C17.5631 15.4592 18.4607 14.135 19.8377 13.7822V13.0581C19.8377 12.7302 20.1033 12.4646 20.4312 12.4646C20.7592 12.4646 21.0248 12.7302 21.0248 13.0581V13.7461C22.3716 13.974 23.3547 15.1449 23.3461 16.5112C23.3461 16.8352 23.0834 17.0979 22.7595 17.0979C22.4355 17.0979 22.1729 16.8352 22.1729 16.5112C22.1719 15.6146 21.4445 14.8885 20.5478 14.8895C19.6512 14.8905 18.9251 15.6182 18.9264 16.5149C18.9274 17.4112 19.6552 18.1373 20.5518 18.1359C22.0056 18.1442 23.2129 19.2598 23.3358 20.7086C23.4587 22.1571 22.4564 23.4602 21.0248 23.7133V24.4208C21.0248 24.7487 20.7592 25.0143 20.4312 25.0143C20.1033 25.0143 19.8377 24.7487 19.8377 24.4208V23.6768C18.5972 23.3492 17.7304 22.231 17.7221 20.9481C17.7221 20.6166 17.991 20.3476 18.3226 20.3476C18.6542 20.3476 18.9231 20.6166 18.9231 20.9481C18.9251 21.7772 19.5498 22.4725 20.3739 22.5629C20.4044 22.5579 20.4356 22.5556 20.4667 22.5553C20.5114 22.5553 20.5558 22.5606 20.5995 22.5705C21.4899 22.5486 22.1964 21.814 22.1835 20.9236C22.1706 20.0329 21.4428 19.3191 20.5525 19.3231Z" fill="#0D9488"/>
<path d="M34.2983 31.431C34.294 31.4333 34.2894 31.4356 34.2844 31.4379L28.7743 34.0411C28.8336 34.3462 28.8595 34.6565 28.8512 34.9672C28.8426 35.2885 28.5796 35.5446 28.2583 35.5446C28.2526 35.5446 28.247 35.5446 28.2414 35.5446L20.1771 35.3226C19.8492 35.3137 19.5909 35.0407 19.5998 34.7128C19.6088 34.3849 19.882 34.1265 20.2096 34.1355L27.6223 34.3395C27.3765 32.903 26.1516 31.839 24.6949 31.7966L19.7893 31.6618C18.8204 31.634 17.8704 31.3886 17.0096 30.9437L16.5104 30.6854C14.0589 29.4081 11.105 29.5744 8.81251 31.1189L8.61609 38.2554L9.45908 37.8039C10.2968 37.3534 11.2769 37.2461 12.1924 37.5048L20.5177 39.8417C22.1222 40.1702 23.7896 39.9841 25.2821 39.309L36.816 31.8483C36.1579 31.1746 35.1387 31.0053 34.2983 31.431Z" fill="#0D9488"/>
<path d="M3.19849 39.4947L3.49097 28.877L7.68373 28.9926L7.39125 39.6103L3.19849 39.4947Z" fill="#0D9488"/>
<path d="M21.11 7.03806V0.593571C21.11 0.26565 20.8443 0 20.5164 0C20.1885 0 19.9229 0.26565 19.9229 0.593571V7.03806C19.9229 7.36598 20.1885 7.63163 20.5164 7.63163C20.8443 7.63163 21.11 7.36598 21.11 7.03806Z" fill="#ABE2DD"/>
<path d="M26.1969 7.0388V3.98615C26.1969 3.65823 25.9313 3.39258 25.6033 3.39258C25.2754 3.39258 25.0098 3.65823 25.0098 3.98615V7.0388C25.0098 7.36672 25.2754 7.63237 25.6033 7.63237C25.9313 7.63237 26.1969 7.36672 26.1969 7.0388Z" fill="#ABE2DD"/>
<path d="M16.0219 7.0388V3.98615C16.0219 3.65823 15.7562 3.39258 15.4283 3.39258C15.1004 3.39258 14.8347 3.65823 14.8347 3.98615V7.0388C14.8347 7.36672 15.1004 7.63237 15.4283 7.63237C15.7562 7.63237 16.0219 7.36672 16.0219 7.0388Z" fill="#ABE2DD"/>
</svg>
