<svg width="65" height="64" viewBox="0 0 65 64" fill="none" xmlns="http://www.w3.org/2000/svg">
<path d="M0.5 32C0.5 5.648 6.148 0 32.5 0C58.852 0 64.5 5.648 64.5 32C64.5 58.352 58.852 64 32.5 64C6.148 64 0.5 58.352 0.5 32Z" fill="url(#paint0_linear_556_1658)"/>
<path fill-rule="evenodd" clip-rule="evenodd" d="M45.1434 46.2256L47.2309 44.0742C47.5976 43.6964 47.5883 43.0875 47.2106 42.7208L41.4286 37.1101C41.0508 36.7434 40.4416 36.7527 40.0751 37.1304L39.9457 37.2638L36.6619 34.0416C37.8566 32.3339 38.5578 30.2555 38.5578 28.0133C38.5578 22.1983 33.8438 17.4844 28.0289 17.4844C22.2139 17.4844 17.5 22.1984 17.5 28.0133C17.5 31.9237 19.6318 35.3361 22.7966 37.1519C23.0769 36.5861 23.4461 36.0721 23.8861 35.6285C21.1021 34.1108 19.3612 31.2003 19.3612 28.0133C19.3612 23.2264 23.242 19.3457 28.0289 19.3457C32.8158 19.3457 36.6965 23.2264 36.6965 28.0133C36.6965 31.2003 34.9557 34.1107 32.1718 35.6285C32.6118 36.0721 32.9811 36.5861 33.2613 37.1519C33.8361 36.8221 34.3767 36.4394 34.8768 36.0107L38.096 39.17L37.9875 39.2818C37.6209 39.6596 37.6301 40.2688 38.0079 40.6353L43.7899 46.2459C44.1677 46.6125 44.7768 46.6035 45.1434 46.2256ZM28.0289 34.9026C30.6998 34.9026 32.865 37.0678 32.865 39.7386C32.865 42.4094 30.6998 44.5746 28.0289 44.5746C25.3581 44.5746 23.1929 42.4094 23.1929 39.7386C23.1929 37.0678 25.3581 34.9026 28.0289 34.9026ZM27.3938 40.1652L29.7452 37.7903C30.0236 37.5091 30.4777 37.5083 30.758 37.7871C31.0382 38.0658 31.0391 38.5186 30.7611 38.7992C29.8076 39.7616 28.8604 40.7304 27.9025 41.6884C27.6224 41.9684 27.1682 41.9684 26.8881 41.6884L25.2987 40.0991C25.0187 39.819 25.0187 39.3647 25.2987 39.0847C25.5788 38.8046 26.0331 38.8046 26.3132 39.0847L27.3938 40.1652ZM28.0289 22.4084C29.6216 22.4084 30.9127 23.6995 30.9127 25.2921C30.9127 26.8848 29.6216 28.1759 28.0289 28.1759C26.4362 28.1759 25.1451 26.8848 25.1451 25.2921C25.1452 23.6995 26.4363 22.4084 28.0289 22.4084ZM22.4573 33.281C21.1581 31.9073 20.3612 30.0534 20.3612 28.0133C20.3612 23.7785 23.7941 20.3457 28.0289 20.3457C32.2637 20.3457 35.6965 23.7786 35.6965 28.0133C35.6965 30.0534 34.8997 31.9072 33.6006 33.2809C33.0289 30.666 30.7049 28.801 28.0289 28.801C25.3529 28.8009 23.0289 30.666 22.4573 33.281Z" fill="white"/>
<defs>
<linearGradient id="paint0_linear_556_1658" x1="60.1706" y1="5.08235" x2="-15.3118" y2="76.6118" gradientUnits="userSpaceOnUse">
<stop stop-color="#45C491"/>
<stop offset="1" stop-color="#B1DECC"/>
</linearGradient>
</defs>
</svg>
