<svg width="24" height="24" viewBox="0 0 24 24" fill="none" xmlns="http://www.w3.org/2000/svg">
<g clip-path="url(#clip0_556_2608)">
<path d="M6.62658 5.46098C6.28046 5.11457 5.71889 5.11457 5.37277 5.46098C4.08764 6.7461 3.456 8.53635 3.63956 10.373C3.68536 10.8306 4.07081 11.1716 4.52096 11.1716C4.55053 11.1716 4.58035 11.1701 4.60992 11.1672C5.09733 11.1184 5.45288 10.6836 5.40413 10.1965C5.27349 8.89129 5.71922 7.62215 6.62658 6.71474C6.97299 6.36866 6.97299 5.80705 6.62658 5.46098Z" fill="#86879C"/>
<path d="M10.1379 0C4.54786 0 0 4.54786 0 10.1379C0 15.728 4.54786 20.2759 10.1379 20.2759C15.728 20.2759 20.2759 15.728 20.2759 10.1379C20.2759 4.54786 15.728 0 10.1379 0ZM10.1379 18.5025C5.52562 18.5025 1.77342 14.7503 1.77342 10.1379C1.77342 5.52562 5.52562 1.77342 10.1379 1.77342C14.75 1.77342 18.5025 5.52562 18.5025 10.1379C18.5025 14.7503 14.7503 18.5025 10.1379 18.5025Z" fill="#86879C"/>
<path d="M23.7402 22.4864L17.2968 16.043C16.9504 15.6966 16.3894 15.6966 16.043 16.043C15.6966 16.3891 15.6966 16.9507 16.043 17.2968L22.4864 23.7402C22.6596 23.9134 22.8863 23.9999 23.1133 23.9999C23.3403 23.9999 23.567 23.9134 23.7402 23.7402C24.0866 23.394 24.0866 22.8325 23.7402 22.4864Z" fill="#86879C"/>
</g>
<defs>
<clipPath id="clip0_556_2608">
<rect width="24" height="24" fill="white"/>
</clipPath>
</defs>
</svg>
