<svg width="65" height="64" viewBox="0 0 65 64" fill="none" xmlns="http://www.w3.org/2000/svg">
<path d="M0.5 32C0.5 5.648 6.148 0 32.5 0C58.852 0 64.5 5.648 64.5 32C64.5 58.352 58.852 64 32.5 64C6.148 64 0.5 58.352 0.5 32Z" fill="url(#paint0_linear_556_1629)"/>
<path d="M45.3408 41.6914H32.3808C30.9214 41.6914 29.6027 42.5738 29.0548 43.9363L28.9287 44.2417V45.0466C28.9287 45.6187 29.3942 46.0841 29.9663 46.0841H47.7457C48.3178 46.0841 48.7833 45.6187 48.7833 45.0466V44.2417C48.313 42.7241 46.9166 41.6914 45.3408 41.6914Z" fill="white"/>
<path d="M33.6511 37.9531C32.7929 37.9531 32.0996 38.6465 32.0996 39.5046V40.7313H45.6026V39.5046C45.6026 38.6465 44.9093 37.9531 44.0511 37.9531H33.6511Z" fill="white"/>
<path d="M30.3555 26.6104L35.5311 21.4201L40.9239 26.7976L35.7483 31.9879L30.3555 26.6104Z" fill="white"/>
<path d="M29.2193 34.4678L27.9005 33.1539C27.595 32.8484 27.1005 32.8484 26.795 33.1539L18.4508 41.5224C18.1453 41.8278 18.1453 42.3224 18.4508 42.6278L19.7696 43.9418C20.075 44.2472 20.5696 44.2472 20.875 43.9418L29.2193 35.5733C29.5296 35.2678 29.5247 34.7733 29.2193 34.4678Z" fill="white"/>
<path d="M28.0608 26.1526C28.4486 26.5405 29.0789 26.5405 29.4717 26.1526L35.0668 20.5381C35.4547 20.1502 35.4547 19.5199 35.0668 19.1272L34.1456 18.2059C33.7577 17.8181 33.1274 17.8181 32.7347 18.2059L27.1395 23.8253C26.7517 24.2132 26.7517 24.8435 27.1395 25.2363L28.0608 26.1526Z" fill="white"/>
<path d="M36.2205 34.2832L37.1417 35.2044C37.5296 35.5923 38.1599 35.5923 38.5526 35.2044L44.1477 29.5898C44.5356 29.2019 44.5356 28.5716 44.1477 28.1789L43.2265 27.2577C42.8387 26.8698 42.2084 26.8698 41.8156 27.2577L36.2205 32.8771C35.8326 33.265 35.8326 33.8953 36.2205 34.2832Z" fill="white"/>
<path d="M31.445 29.1543L28.3711 32.3107C28.439 32.364 28.5117 32.4125 28.5747 32.4755L29.8935 33.7894C29.9565 33.8525 30.0099 33.9204 30.0584 33.9931L33.1323 30.8367L31.445 29.1543Z" fill="white"/>
<defs>
<linearGradient id="paint0_linear_556_1629" x1="60.1706" y1="5.08235" x2="-15.3118" y2="76.6118" gradientUnits="userSpaceOnUse">
<stop stop-color="#0070F0"/>
<stop offset="1" stop-color="#99C9FF"/>
</linearGradient>
</defs>
</svg>
