<svg width="10" height="15" viewBox="0 0 10 15" fill="none" xmlns="http://www.w3.org/2000/svg">
<path d="M2.0414 1.90735e-06C2.53437 -0.000705719 3.0125 0.202324 3.39539 0.574944L8.70719 5.83693C8.91549 6.03594 9.08371 6.28875 9.19933 6.57656C9.31496 6.86437 9.375 7.17976 9.375 7.49927C9.375 7.81878 9.31496 8.13418 9.19933 8.42199C9.08371 8.7098 8.91549 8.96261 8.70719 9.16161L3.39539 14.4236C3.07561 14.7311 2.69028 14.9246 2.28331 14.982C1.87635 15.0395 1.46412 14.9586 1.09361 14.7486C0.771593 14.5782 0.497241 14.3003 0.303318 13.9479C0.109394 13.5955 0.00409603 13.1835 0 12.7613L0 2.23729C0.00409603 1.81501 0.109394 1.40307 0.303318 1.05067C0.497241 0.698274 0.771593 0.420312 1.09361 0.249979C1.39135 0.0874977 1.71433 0.00231171 2.0414 1.90735e-06Z" fill="#FBBF24"/>
</svg>
