<svg width="12" height="14" viewBox="0 0 12 14" fill="none" xmlns="http://www.w3.org/2000/svg">
<path d="M5.6 0C3.6701 0 2.1 1.5701 2.1 3.5V5.6H1.4C1.0287 5.6 0.672602 5.7475 0.410051 6.01005C0.1475 6.2726 0 6.6287 0 7V12.6C0 12.9713 0.1475 13.3274 0.410051 13.5899C0.672602 13.8525 1.0287 14 1.4 14H9.8C10.1713 14 10.5274 13.8525 10.79 13.5899C11.0525 13.3274 11.2 12.9713 11.2 12.6V7C11.2 6.6287 11.0525 6.2726 10.79 6.01005C10.5274 5.7475 10.1713 5.6 9.8 5.6H9.1V3.5C9.1 1.5701 7.5299 0 5.6 0ZM3.5 3.5C3.5 2.3422 4.4422 1.4 5.6 1.4C6.7578 1.4 7.7 2.3422 7.7 3.5V5.6H3.5V3.5ZM6.3 11.0061V12.6H4.9V11.0061C4.65527 10.866 4.45876 10.6549 4.33638 10.4008C4.214 10.1468 4.1715 9.86156 4.21448 9.58284C4.25746 9.30412 4.3839 9.04496 4.57714 8.83955C4.77037 8.63414 5.02132 8.49211 5.2969 8.4322C5.50159 8.38694 5.71383 8.38821 5.91797 8.4359C6.12211 8.48359 6.31294 8.5765 6.47639 8.70777C6.63984 8.83904 6.77174 9.00532 6.86236 9.19436C6.95299 9.3834 7.00002 9.59036 7 9.8C6.9996 10.0448 6.93468 10.2852 6.81179 10.497C6.6889 10.7087 6.51238 10.8843 6.3 11.0061Z" fill="#A3A3A3"/>
</svg>
