<svg width="29" height="18" viewBox="0 0 29 18" fill="none" xmlns="http://www.w3.org/2000/svg">
<path d="M18.1808 1.89575H10.4414V15.8036H18.1808V1.89575Z" fill="#FF5F00"/>
<path d="M10.9327 8.845C10.9315 7.50557 11.235 6.18342 11.8203 4.97864C12.4056 3.77386 13.2573 2.71802 14.311 1.89106C13.0061 0.865445 11.4391 0.22763 9.78891 0.0505155C8.13874 -0.126599 6.47203 0.164136 4.97928 0.889489C3.48653 1.61484 2.22797 2.74554 1.34746 4.15236C0.466944 5.55918 0 7.18535 0 8.845C0 10.5046 0.466944 12.1308 1.34746 13.5376C2.22797 14.9445 3.48653 16.0752 4.97928 16.8005C6.47203 17.5259 8.13874 17.8166 9.78891 17.6395C11.4391 17.4624 13.0061 16.8246 14.311 15.7989C13.2573 14.972 12.4056 13.9161 11.8203 12.7114C11.235 11.5066 10.9315 10.1844 10.9327 8.845Z" fill="#EB001B"/>
<path d="M28.623 8.84499C28.6231 10.5046 28.1562 12.1308 27.2757 13.5376C26.3953 14.9444 25.1367 16.0751 23.644 16.8005C22.1513 17.5259 20.4846 17.8166 18.8345 17.6395C17.1843 17.4624 15.6173 16.8246 14.3125 15.7989C15.3652 14.9711 16.2163 13.9151 16.8015 12.7105C17.3867 11.5059 17.6907 10.1842 17.6907 8.84499C17.6907 7.50578 17.3867 6.18405 16.8015 4.97946C16.2163 3.77486 15.3652 2.71885 14.3125 1.89106C15.6173 0.865442 17.1843 0.227626 18.8345 0.050514C20.4846 -0.126598 22.1513 0.164142 23.644 0.889502C25.1367 1.61486 26.3953 2.74557 27.2757 4.15239C28.1562 5.55921 28.6231 7.18537 28.623 8.84499Z" fill="#F79E1B"/>
<path d="M27.7752 14.3282V14.0434H27.8901V13.9854H27.5977V14.0434H27.7125V14.3282H27.7752ZM28.3429 14.3282V13.9849H28.2533L28.1502 14.221L28.0471 13.9849H27.9574V14.3282H28.0207V14.0692L28.1174 14.2925H28.183L28.2797 14.0686V14.3282H28.3429Z" fill="#F79E1B"/>
</svg>
