<svg width="8" height="14" viewBox="0 0 8 14" fill="none" xmlns="http://www.w3.org/2000/svg">
<path d="M0.352009 0.353595C0.240423 0.464952 0.151896 0.597222 0.0914935 0.742835C0.0310912 0.888448 0 1.04454 0 1.20219C0 1.35983 0.0310912 1.51593 0.0914935 1.66154C0.151896 1.80715 0.240423 1.93942 0.352009 2.05078L5.02228 6.72105L0.352009 11.3913C0.126948 11.6164 0.000509675 11.9216 0.000509675 12.2399C0.000509675 12.5582 0.126948 12.8634 0.352009 13.0885C0.577069 13.3136 0.882317 13.44 1.2006 13.44C1.51889 13.44 1.82413 13.3136 2.04919 13.0885L7.57408 7.56362C7.68566 7.45227 7.77419 7.32 7.83459 7.17438C7.89499 7.02877 7.92608 6.87267 7.92608 6.71503C7.92608 6.55739 7.89499 6.40129 7.83459 6.25568C7.77419 6.11006 7.68566 5.97779 7.57408 5.86644L2.04919 0.341558C1.5918 -0.115839 0.821443 -0.115839 0.352009 0.353595Z" fill="#0D9488"/>
</svg>
