<svg width="140" height="180" viewBox="0 0 140 180" fill="none" xmlns="http://www.w3.org/2000/svg">
<rect width="140" height="180" rx="70" fill="#F5F6F7"/>
<path d="M49.9 53.334H40.1C35.8666 53.334 33.3333 55.8673 33.3333 60.1007V69.9007C33.3333 74.134 35.8666 76.6673 40.1 76.6673H49.9C54.1333 76.6673 56.6666 74.134 56.6666 69.9007V60.1007C56.6666 55.8673 54.1333 53.334 49.9 53.334ZM51.5666 68.534C52.4 69.3673 52.4 70.734 51.5666 71.5673C51.1333 71.9673 50.5666 72.1673 50.0333 72.1673C49.5 72.1673 48.9666 71.9673 48.5333 71.5673L44.9666 68.034L41.5 71.5673C41.0666 71.9673 40.5333 72.1673 39.9333 72.1673C39.4 72.1673 38.8666 71.9673 38.4333 71.5673C37.6 70.734 37.6 69.3673 38.4333 68.534L42 65.0007L38.4666 61.5007C37.6333 60.6673 37.6333 59.3007 38.4666 58.4673C39.3 57.634 40.6666 57.634 41.5 58.4673L44.9666 62.0007L48.5 58.4673C49.3333 57.634 50.7 57.634 51.5333 58.4673C52.3666 59.3007 52.3666 60.6673 51.5333 61.5007L48.0333 65.0007L51.5666 68.534Z" fill="#0D9488"/>
<path opacity="0.4" d="M85.4333 56.666H55.9333C56.4 57.6327 56.6666 58.766 56.6666 60.0993V69.8993C56.6666 74.1327 54.1333 76.666 49.9 76.666H40.1C39.4666 76.666 38.9 76.5993 38.3333 76.466V107.099C38.3333 116.066 45.6 123.333 54.5666 123.333H81.1333C81.7 123.333 82.2666 123.133 82.7 122.666C87.6333 117.699 96.2333 109.033 101.067 104.166C101.5 103.733 101.667 103.233 101.667 102.733V72.8993C101.667 63.9327 94.4 56.666 85.4333 56.666Z" fill="#0D9488"/>
<path d="M101.667 102.733C101.667 103.233 101.5 103.733 101.067 104.166C96.2333 109.033 87.6333 117.7 82.7 122.666C82.2667 123.133 81.7 123.333 81.1333 123.333C80.0333 123.333 78.9667 122.466 78.9667 121.2V109.533C78.9667 104.666 83.1 100.633 88.1667 100.633C91.3333 100.6 95.7333 100.6 99.5 100.6C100.8 100.6 101.667 101.633 101.667 102.733Z" fill="#0D9488"/>
<path d="M79.2667 92.3672H54.5333C53.1333 92.3672 52.0333 91.2339 52.0333 89.8672C52.0333 88.5005 53.1667 87.3672 54.5333 87.3672H79.2667C80.6667 87.3672 81.7667 88.5005 81.7667 89.8672C81.7667 91.2339 80.6667 92.3672 79.2667 92.3672Z" fill="#0D9488"/>
<path d="M70 104.732H54.5333C53.1333 104.732 52.0333 103.599 52.0333 102.232C52.0333 100.832 53.1667 99.7324 54.5333 99.7324H70C71.4 99.7324 72.5 100.866 72.5 102.232C72.5 103.599 71.4 104.732 70 104.732Z" fill="#0D9488"/>
</svg>
