<svg width="19" height="19" viewBox="0 0 19 19" fill="none" xmlns="http://www.w3.org/2000/svg">
<path d="M7.14707 5.18842C7.8635 5.18842 8.44183 5.73976 8.44183 6.42277C8.44183 7.10579 7.8635 7.65713 7.14707 7.65713C6.43063 7.65713 5.85231 7.10579 5.85231 6.42277C5.85231 5.73976 6.43063 5.18842 7.14707 5.18842ZM11.4629 10.9488C12.1794 10.9488 12.7577 11.5001 12.7577 12.1831C12.7577 12.8661 12.1794 13.4175 11.4629 13.4175C10.7465 13.4175 10.1682 12.8661 10.1682 12.1831C10.1682 11.5001 10.7465 10.9488 11.4629 10.9488ZM6.20621 13.4175L4.98914 12.2572L12.4038 5.18842L13.6209 6.34871L6.20621 13.4175ZM15.0451 1.77336L15.5716 4.94977L18.6014 6.42277L17.0736 9.30294L18.61 12.1831L15.5544 13.6561L15.0278 16.8325L11.6701 16.3306L9.2791 18.61L6.87948 16.2976L3.54764 16.8243L3.01247 13.6232L0 12.1584L1.53645 9.27826L0.00863172 6.42277L3.03837 4.93332L3.5649 1.78982L6.90538 2.30825L9.305 0L11.6874 2.27533L15.0451 1.77336ZM16.2967 7.1387L14.0524 6.01132L13.6209 3.63313L11.1177 3.97875L9.305 2.30825L7.49234 3.97875L4.98914 3.63313L4.55755 6.01132L2.3133 7.1387L3.43543 9.30294L2.3133 11.4672L4.55755 12.5946L4.98914 14.9728L7.49234 14.6271L9.305 16.2976L11.1177 14.6271L13.6209 14.9728L14.0524 12.5946L16.2967 11.4672L15.1746 9.30294L16.2967 7.1387Z" fill="#16A34A"/>
</svg>
