<svg width="16" height="14" viewBox="0 0 16 14" fill="none" xmlns="http://www.w3.org/2000/svg">
<path d="M13.7672 8.80396C13.6904 8.27036 13.2784 7.85436 12.748 7.73036C10.6864 7.24716 10.1696 6.05996 10.0824 4.74316C9.71683 4.67516 9.06643 4.60156 7.96243 4.60156C6.85843 4.60156 6.20803 4.67516 5.84243 4.74316C5.75523 6.05996 5.23843 7.24716 3.17683 7.73036C2.64643 7.85516 2.23443 8.27036 2.15763 8.80396L1.76003 11.5576C1.62003 12.5272 2.33203 13.4016 3.32243 13.4016H12.6024C13.592 13.4016 14.3048 12.5272 14.1648 11.5576L13.7672 8.80396ZM7.96243 11.3952C6.84643 11.3952 5.94163 10.4992 5.94163 9.39516C5.94163 8.29116 6.84643 7.39516 7.96243 7.39516C9.07843 7.39516 9.98323 8.29116 9.98323 9.39516C9.98323 10.4992 9.07763 11.3952 7.96243 11.3952ZM15.9224 3.80156C15.9032 2.60156 12.8488 0.602363 7.96243 0.601562C3.07523 0.602363 0.0208253 2.60156 0.00242527 3.80156C-0.0159747 5.00156 0.0192253 6.56316 2.03043 6.30316C4.38323 5.99836 4.23843 5.17676 4.23843 4.00236C4.23843 3.18316 6.15203 2.98556 7.96243 2.98556C9.77283 2.98556 11.6856 3.18316 11.6864 4.00236C11.6864 5.17676 11.5416 5.99836 13.8944 6.30316C15.9048 6.56316 15.9408 5.00156 15.9224 3.80156Z" fill="#A5B4FC"/>
</svg>
