<svg width="141" height="180" viewBox="0 0 141 180" fill="none" xmlns="http://www.w3.org/2000/svg">
<rect x="0.5" width="140" height="180" rx="70" fill="#F5F6F7"/>
<path fill-rule="evenodd" clip-rule="evenodd" d="M105.743 89.9158C105.743 109.393 89.9551 125.185 70.4742 125.185C50.9968 125.185 35.2048 109.393 35.2048 89.9158C35.2048 70.4403 50.9968 54.6465 70.4742 54.6465C89.9551 54.6474 105.743 70.4403 105.743 89.9158Z" fill="#F9F9F9"/>
<path fill-rule="evenodd" clip-rule="evenodd" d="M70.4745 57.2773C52.479 57.2773 37.8301 71.9218 37.8301 89.9165C37.8301 107.912 52.4781 122.561 70.4745 122.561C76.2523 122.561 81.6825 121.042 86.3945 118.394L82.4363 114.441C78.8265 116.2 74.7759 117.209 70.4745 117.209C55.3679 117.209 43.1821 105.022 43.1821 89.9165C43.1821 83.6436 45.2896 77.8747 48.8301 73.2729L57.335 81.7733C58.6079 80.528 59.951 79.352 61.3065 78.1858L52.4967 69.3707C57.2932 65.176 63.575 62.6249 70.4745 62.6249C85.5759 62.6249 97.7705 74.8151 97.7705 89.9165C97.7705 96.816 95.2247 103.102 91.0212 107.898L88.687 105.564C87.8025 107.106 86.6683 108.518 85.335 109.772L90.9047 115.341C98.3439 109.357 103.118 100.185 103.118 89.9156C103.118 71.9209 88.4683 57.2773 70.4745 57.2773Z" fill="#ABE2DD"/>
<path d="M63.7882 68.3008C62.8531 68.3008 62.654 69.2048 63.1126 69.907C63.1126 69.907 65.5109 73.5692 66.7055 75.3986C67.1642 76.0972 67.9322 76.4137 68.6824 76.4137H72.27C73.0211 76.4137 73.79 76.0981 74.2424 75.3986L77.8362 69.907C78.2984 69.2048 78.0949 68.3008 77.1589 68.3008H63.7882Z" fill="#0D9488"/>
<path d="M70.4446 85.666C71.1726 85.6571 71.7602 86.2456 71.7504 86.9673V88.5273C72.6393 88.722 73.5237 89.1531 74.306 89.8607C75.7264 90.994 73.866 93.0607 72.5886 91.7682C71.6393 90.9113 70.6775 90.8429 69.9406 91.0873C69.2002 91.3282 68.802 91.842 68.802 92.3736C68.802 92.7904 68.8944 92.8971 69.0651 93.0553C69.242 93.2127 69.5655 93.3567 69.8615 93.4296C70.8011 93.6571 71.8526 93.8056 72.866 94.3887C73.8846 94.9762 74.6997 96.2402 74.6997 97.786C74.6997 99.3558 73.5095 100.606 72.042 101.092C71.9495 101.124 71.8473 101.148 71.7504 101.175V102.799C71.7184 104.481 69.2135 104.481 69.1806 102.799V101.262C68.4402 101.133 67.6802 100.883 66.9175 100.485C65.3664 99.7024 66.5753 97.3833 68.1077 98.202C69.4029 98.8793 70.5335 98.8882 71.2313 98.6571C71.9353 98.4207 72.13 98.0784 72.13 97.7869C72.13 96.9078 72.0055 96.8571 71.5886 96.6207C71.1726 96.3789 70.2917 96.1851 69.25 95.93C68.6722 95.7913 67.9673 95.5327 67.3424 94.9673C66.7131 94.3984 66.2277 93.4589 66.2277 92.3744C66.2277 90.5833 67.5833 89.1576 69.1806 88.6296V86.9673C69.1726 86.2589 69.738 85.6758 70.4446 85.666ZM67.9646 78.25C67.4233 78.25 66.6589 78.5416 66.2562 78.9016C63.1913 81.61 60.2055 83.9798 57.9833 86.61C55.5202 89.5264 53.9229 92.7309 53.9229 97.3611C53.9229 102.38 57.01 107.046 62.1486 109.61C67.2829 112.176 73.6589 112.176 78.7975 109.61C83.9317 107.045 87.0286 102.379 87.0286 97.3611C87.0286 92.7309 85.4322 89.5273 82.97 86.61C80.7424 83.9798 77.7611 81.6144 74.6962 78.9016C74.2926 78.5416 73.5246 78.25 72.9877 78.25H67.9646Z" fill="#0D9488"/>
</svg>
