<svg width="21" height="20" viewBox="0 0 21 20" fill="none" xmlns="http://www.w3.org/2000/svg">
<path d="M10.0039 0C8.0261 0 6.0927 0.58649 4.44821 1.6853C2.80372 2.78412 1.52199 4.3459 0.765115 6.17317C0.00823909 8.00043 -0.189794 10.0111 0.196058 11.9509C0.58191 13.8907 1.53432 15.6725 2.93284 17.0711C4.33137 18.4696 6.1132 19.422 8.05301 19.8079C9.99282 20.1937 12.0035 19.9957 13.8307 19.2388C15.658 18.4819 17.2198 17.2002 18.3186 15.5557C19.4174 13.9112 20.0039 11.9778 20.0039 10C20.0039 8.68678 19.7453 7.38642 19.2427 6.17317C18.7402 4.95991 18.0036 3.85752 17.075 2.92893C16.1464 2.00035 15.044 1.26375 13.8307 0.761205C12.6175 0.258658 11.3171 0 10.0039 0ZM10.0039 18C8.42166 18 6.87494 17.5308 5.55935 16.6518C4.24376 15.7727 3.21838 14.5233 2.61287 13.0615C2.00737 11.5997 1.84895 9.99113 2.15763 8.43928C2.46631 6.88743 3.22824 5.46197 4.34706 4.34315C5.46588 3.22433 6.89134 2.4624 8.44319 2.15372C9.99504 1.84504 11.6036 2.00346 13.0654 2.60896C14.5272 3.21447 15.7766 4.23984 16.6557 5.55544C17.5347 6.87103 18.0039 8.41775 18.0039 10C18.0039 12.1217 17.1611 14.1566 15.6608 15.6569C14.1605 17.1571 12.1256 18 10.0039 18Z" fill="#0D9488"/>
<path d="M10.0039 5C9.015 5 8.0483 5.29324 7.22606 5.84265C6.40381 6.39206 5.76295 7.17295 5.38451 8.08658C5.00607 9.00021 4.90706 10.0055 5.09998 10.9755C5.29291 11.9454 5.76911 12.8363 6.46837 13.5355C7.16764 14.2348 8.05855 14.711 9.02846 14.9039C9.99836 15.0969 11.0037 14.9978 11.9173 14.6194C12.831 14.241 13.6118 13.6001 14.1613 12.7779C14.7107 11.9556 15.0039 10.9889 15.0039 10C15.0039 8.67392 14.4771 7.40215 13.5394 6.46447C12.6018 5.52678 11.33 5 10.0039 5Z" fill="#0D9488"/>
</svg>
