<svg width="11" height="9" viewBox="0 0 11 9" fill="none" xmlns="http://www.w3.org/2000/svg">
<path d="M0.643162 5.1424L8.26677 5.1424L5.9334 7.945C5.82429 8.07627 5.7718 8.24551 5.78747 8.41548C5.80315 8.58546 5.8857 8.74224 6.01697 8.85135C6.14824 8.96046 6.31747 9.01295 6.48745 8.99728C6.65742 8.98161 6.81421 8.89906 6.92331 8.76779L10.1373 4.91099C10.1589 4.88031 10.1783 4.84809 10.1952 4.81457C10.1952 4.78243 10.1952 4.76315 10.2402 4.73101C10.2693 4.6573 10.2846 4.57885 10.2852 4.4996C10.2846 4.42035 10.2693 4.34189 10.2402 4.26819C10.2402 4.23605 10.2402 4.21677 10.1952 4.18463C10.1783 4.15111 10.1589 4.11888 10.1373 4.08821L6.92331 0.23141C6.86288 0.158849 6.78719 0.100495 6.70165 0.0605001C6.6161 0.020504 6.52279 -0.000151634 6.42836 1.90735e-06C6.27817 -0.000291824 6.13261 0.0520163 6.01697 0.147845C5.95188 0.201808 5.89807 0.268082 5.85864 0.34287C5.8192 0.417658 5.7949 0.49949 5.78714 0.583681C5.77938 0.667873 5.7883 0.752769 5.8134 0.833508C5.8385 0.914245 5.87928 0.989239 5.9334 1.05419L8.26677 3.8568L0.643162 3.8568C0.472681 3.8568 0.309182 3.92452 0.188634 4.04507C0.0680857 4.16562 0.000362396 4.32912 0.000362396 4.4996C0.000362396 4.67008 0.0680857 4.83358 0.188634 4.95413C0.309182 5.07467 0.472681 5.1424 0.643162 5.1424Z" fill="white"/>
</svg>
