<svg width="13" height="13" viewBox="0 0 13 13" fill="none" xmlns="http://www.w3.org/2000/svg">
<path d="M5.33792 10.6758C2.38153 10.6758 0 8.2943 0 5.33792C0 2.38153 2.38153 0 5.33792 0C8.2943 0 10.6758 2.38153 10.6758 5.33792C10.6758 8.2943 8.2943 10.6758 5.33792 10.6758ZM5.33792 0.821218C2.8332 0.821218 0.821218 2.8332 0.821218 5.33792C0.821218 7.84263 2.8332 9.85462 5.33792 9.85462C7.84263 9.85462 9.85462 7.84263 9.85462 5.33792C9.85462 2.8332 7.84263 0.821218 5.33792 0.821218Z" fill="#737373"/>
<path d="M9.31302 8.73218L13.0003 12.4194L12.4197 13L8.73242 9.31278L9.31302 8.73218Z" fill="#737373"/>
</svg>
