    <svg width="23" height="24" viewBox="0 0 23 24" fill="none" xmlns="http://www.w3.org/2000/svg">
                                <path d="M17.3238 17.1889H7.18096C6.2381 17.1889 5.33334 16.7889 4.69525 16.0937C4.05715 15.3984 3.73335 14.4651 3.80954 13.5222L4.60002 4.03652C4.62859 3.74128 4.52382 3.45557 4.32382 3.23652C4.12382 3.01747 3.84763 2.90318 3.55239 2.90318H1.90478C1.5143 2.90318 1.19049 2.57937 1.19049 2.1889C1.19049 1.79842 1.5143 1.47461 1.90478 1.47461H3.56192C4.25716 1.47461 4.91429 1.76984 5.38096 2.27461C5.6381 2.56032 5.82858 2.89366 5.93334 3.26509H17.8286C18.7905 3.26509 19.6762 3.64604 20.3238 4.33175C20.9619 5.02699 21.2857 5.93175 21.2095 6.89366L20.6952 14.0365C20.5905 15.7794 19.0667 17.1889 17.3238 17.1889ZM5.98097 4.68413L5.23811 13.6365C5.19049 14.1889 5.37144 14.7127 5.74287 15.1222C6.1143 15.5317 6.62858 15.7508 7.18096 15.7508H17.3238C18.3143 15.7508 19.2095 14.9127 19.2857 13.9222L19.8 6.77938C19.8381 6.21747 19.6572 5.68414 19.2857 5.29367C18.9143 4.89367 18.4 4.6746 17.8381 4.6746H5.98097V4.68413Z" fill="white"/>
                                <path d="M15.4762 21.9521C14.4286 21.9521 13.5714 21.095 13.5714 20.0473C13.5714 18.9997 14.4286 18.1426 15.4762 18.1426C16.5238 18.1426 17.3809 18.9997 17.3809 20.0473C17.3809 21.095 16.5238 21.9521 15.4762 21.9521ZM15.4762 19.5711C15.2095 19.5711 15 19.7807 15 20.0473C15 20.314 15.2095 20.5235 15.4762 20.5235C15.7428 20.5235 15.9524 20.314 15.9524 20.0473C15.9524 19.7807 15.7428 19.5711 15.4762 19.5711Z" fill="white"/>
                                <path d="M7.85715 21.9521C6.80954 21.9521 5.95239 21.095 5.95239 20.0473C5.95239 18.9997 6.80954 18.1426 7.85715 18.1426C8.90477 18.1426 9.76192 18.9997 9.76192 20.0473C9.76192 21.095 8.90477 21.9521 7.85715 21.9521ZM7.85715 19.5711C7.59049 19.5711 7.38096 19.7807 7.38096 20.0473C7.38096 20.314 7.59049 20.5235 7.85715 20.5235C8.12382 20.5235 8.33335 20.314 8.33335 20.0473C8.33335 19.7807 8.12382 19.5711 7.85715 19.5711Z" fill="white"/>
                                <path d="M20 8.61802H8.5714C8.18093 8.61802 7.85712 8.29422 7.85712 7.90374C7.85712 7.51326 8.18093 7.18945 8.5714 7.18945H20C20.3905 7.18945 20.7143 7.51326 20.7143 7.90374C20.7143 8.29422 20.3905 8.61802 20 8.61802Z" fill="white"/>
                                </svg>