<svg width="23" height="23" viewBox="0 0 23 23" fill="none" xmlns="http://www.w3.org/2000/svg">
<path fill-rule="evenodd" clip-rule="evenodd" d="M11.5 0C5.14886 0 0 5.14886 0 11.5C0 17.8511 5.14886 23 11.5 23C17.8511 23 23 17.8511 23 11.5C23 5.14886 17.8511 0 11.5 0ZM16.4847 9.55545C16.5765 9.45053 16.6464 9.32832 16.6902 9.19599C16.7341 9.06367 16.7511 8.92391 16.7401 8.78494C16.7291 8.64597 16.6905 8.51059 16.6265 8.38677C16.5624 8.26295 16.4743 8.15319 16.3672 8.06395C16.2601 7.9747 16.1362 7.90778 16.0029 7.86711C15.8695 7.82644 15.7294 7.81285 15.5907 7.82714C15.4521 7.84142 15.3177 7.8833 15.1954 7.9503C15.0732 8.0173 14.9656 8.10807 14.8789 8.21727L10.3835 13.6108L8.05732 11.2836C7.86014 11.0932 7.59606 10.9878 7.32194 10.9902C7.04783 10.9925 6.78562 11.1025 6.59178 11.2963C6.39794 11.4902 6.28799 11.7524 6.28561 12.0265C6.28323 12.3006 6.38861 12.5647 6.57905 12.7619L9.71541 15.8982C9.81813 16.0009 9.94112 16.081 10.0765 16.1335C10.2119 16.186 10.3568 16.2097 10.5019 16.2031C10.647 16.1965 10.7891 16.1598 10.9192 16.0952C11.0492 16.0307 11.1645 15.9397 11.2575 15.8282L16.4847 9.55545Z" fill="#0D9488"/>
</svg>
