<svg width="19" height="18" viewBox="0 0 19 18" fill="none" xmlns="http://www.w3.org/2000/svg">
<path fill-rule="evenodd" clip-rule="evenodd" d="M10.5346 3.89606C10.537 6.0465 12.2799 7.78945 14.4303 7.79179C16.5718 7.79179 18.3113 6.06286 18.3253 3.92139C18.3393 1.7803 16.6225 0.0291695 14.481 0.000341139C12.3403 -0.0277081 10.5775 1.67745 10.5346 3.81815V3.89606ZM12.0929 4.28564L12.6422 3.73634L13.6512 4.74143L16.2185 2.17415L16.7678 2.72735L13.6512 5.84392L12.0929 4.28564ZM15.2006 15.57L15.3761 15.7247V17.1798H0V15.7247L0.175432 15.57C0.665709 15.125 1.09432 14.6166 1.44989 14.0581C1.84501 13.2855 2.08183 12.4417 2.14646 11.5763V9.02739C2.14322 7.68076 2.62728 6.37843 3.50926 5.36083C4.39125 4.34323 5.6116 3.67907 6.94503 3.49097V2.81504C6.94503 2.63235 7.0176 2.45715 7.14678 2.32797C7.27596 2.19879 7.45117 2.12621 7.63386 2.12621C7.81654 2.12621 7.99175 2.19879 8.12093 2.32797C8.25011 2.45715 8.32268 2.63235 8.32268 2.81504V3.46517C8.91821 3.54169 9.497 3.71603 10.0357 3.98114V4.30621C10.0341 5.19848 10.3409 6.0639 10.9041 6.75595C11.4673 7.44799 12.2524 7.92415 13.1264 8.10379C13.1793 8.40886 13.2069 8.71777 13.209 9.02739V11.5763C13.2736 12.4417 13.5104 13.2855 13.9055 14.0581C14.2673 14.618 14.7029 15.1265 15.2006 15.57Z" fill="#D4D4D4"/>
</svg>
