<svg width="15" height="18" viewBox="0 0 15 18" fill="none" xmlns="http://www.w3.org/2000/svg">
<path d="M13.6629 12.7512V13.3658H0.5V12.7511C0.983583 12.3119 1.4064 11.8101 1.75726 11.259L1.76992 11.2391L1.78066 11.2181C2.17492 10.4472 2.41123 9.60522 2.47571 8.74169L2.4771 8.7231V8.70446L2.4771 6.35665L2.4771 6.35565C2.47484 5.23406 2.87912 4.14966 3.61506 3.30328C4.351 2.45691 5.36874 1.90592 6.47976 1.75236L6.91131 1.69272V1.25707V0.634477C6.91131 0.598812 6.92548 0.564607 6.9507 0.539388C6.97592 0.514168 7.01012 0.5 7.04579 0.5C7.08145 0.5 7.11566 0.514168 7.14088 0.539387C7.1661 0.564607 7.18026 0.598812 7.18026 0.634477V1.24757V1.68775L7.6169 1.74354C8.73797 1.88677 9.76815 2.43445 10.5139 3.28367C11.2596 4.1329 11.6696 5.22522 11.6668 6.3554V6.35665V8.70446V8.7231L11.6681 8.74169C11.7326 9.60522 11.9689 10.4472 12.3632 11.2181L12.3747 11.2406L12.3884 11.2618C12.7446 11.8131 13.1733 12.314 13.6629 12.7512Z" fill="#EF4444" stroke="#EF4444"/>
<path d="M5.39062 15.4072C5.45822 15.8959 5.70035 16.3435 6.0723 16.6676C6.44424 16.9916 6.92088 17.1701 7.41417 17.1701C7.90746 17.1701 8.3841 16.9916 8.75604 16.6676C9.12799 16.3435 9.37012 15.8959 9.43771 15.4072H5.39062Z" fill="#EF4444"/>
</svg>
