<svg width="80" height="80" viewBox="0 0 80 80" fill="none" xmlns="http://www.w3.org/2000/svg">
<path d="M79.2656 42.6495L74.5918 35.2772L77.3641 27.0034C77.5469 26.4562 77.535 25.8626 77.3304 25.3231C77.1257 24.7837 76.7408 24.3316 76.241 24.0434L68.6779 19.6834L67.2871 11.068C67.1936 10.4984 66.9066 9.97841 66.4745 9.59564C66.0424 9.21286 65.4916 8.99067 64.9148 8.96647L56.1918 8.62493L50.9579 1.64031C50.6122 1.1781 50.1169 0.850048 49.5564 0.712032C48.9959 0.574016 48.4049 0.634574 47.8841 0.883391L40.0041 4.63108L32.121 0.880314C31.5994 0.634179 31.0089 0.575375 30.4489 0.713812C29.889 0.852248 29.394 1.17946 29.0471 1.64031L23.8133 8.62493L15.0902 8.96647C14.5139 8.98951 13.9633 9.21098 13.5316 9.59339C13.0998 9.97579 12.8135 10.4956 12.721 11.0649L11.3302 19.6803L3.76714 24.0403C3.26675 24.328 2.88126 24.7799 2.67601 25.3194C2.47076 25.8589 2.45838 26.4528 2.64099 27.0003L5.4133 35.2742L0.742526 42.6495C0.434414 43.1377 0.304403 43.7174 0.374488 44.2904C0.444573 44.8634 0.710452 45.3946 1.12714 45.7942L7.4256 51.8342L6.71791 60.5296C6.67084 61.1049 6.82397 61.6789 7.15141 62.1544C7.47885 62.6298 7.96049 62.9776 8.51483 63.1388L16.8995 65.5542L20.3118 73.588C20.5358 74.1205 20.9378 74.5585 21.4491 74.8274C21.9604 75.0962 22.5492 75.1791 23.1148 75.0619L31.6687 73.308L38.4194 78.8372C38.8779 79.2095 39.441 79.4034 40.0041 79.4034C40.5671 79.4034 41.1271 79.2095 41.5887 78.8372L48.3394 73.308L56.8933 75.0619C58.0533 75.308 59.2318 74.6834 59.6964 73.588L63.1087 65.5542L71.4933 63.1388C72.048 62.9781 72.5299 62.6305 72.8575 62.1549C73.185 61.6793 73.3379 61.105 73.2902 60.5296L72.5825 51.8342L78.881 45.7942C79.2977 45.3946 79.5636 44.8634 79.6336 44.2904C79.7037 43.7174 79.5737 43.1377 79.2656 42.6495ZM58.0871 30.6157L40.5764 56.8495C39.9148 57.828 38.8902 58.4834 37.8718 58.4834C36.8564 58.4834 35.721 57.9142 34.9979 57.188L22.1425 44.1265C21.7212 43.6943 21.4853 43.1147 21.4853 42.5111C21.4853 41.9075 21.7212 41.3278 22.1425 40.8957L25.3148 37.6649C25.5227 37.4559 25.7699 37.29 26.0421 37.1768C26.3143 37.0636 26.6062 37.0053 26.901 37.0053C27.1958 37.0053 27.4877 37.0636 27.7599 37.1768C28.0321 37.29 28.2793 37.4559 28.4871 37.6649L36.8533 46.1634L50.6502 25.4926C50.8137 25.2461 51.0247 25.0347 51.2709 24.8706C51.517 24.7065 51.7933 24.5931 52.0838 24.5369C52.3742 24.4808 52.6729 24.4831 52.9625 24.5436C53.252 24.6041 53.5266 24.7217 53.7702 24.8895L57.4902 27.4465C58.5148 28.1542 58.7795 29.5788 58.0871 30.6157Z" fill="#10B981"/>
</svg>
