<svg width="133" height="132" viewBox="0 0 133 132" fill="none" xmlns="http://www.w3.org/2000/svg">
<rect x="1" y="0.5" width="131" height="131" rx="65.5" fill="white"/>
<path d="M104.315 58.9754C103.828 55.9072 102.934 52.9238 101.663 50.1071C96.3456 38.243 85.0064 30.2344 72.0654 29.2053C72.0312 29.2025 71.9957 29.2012 71.9615 29.2012C71.6253 29.2012 71.3042 29.3283 71.05 29.5633C70.7602 29.8298 70.6017 30.1947 70.6017 30.5897V60.5334H102.952C103.358 60.5334 103.743 60.3557 104.008 60.0441C104.157 59.8692 104.395 59.4961 104.315 58.9754Z" fill="#0D9488"/>
<path d="M63.6016 69.1333C62.8281 68.3598 62.4003 67.3293 62.4003 66.2332V33.3171C62.4003 32.9276 62.2418 32.5654 61.9534 32.2989C61.7006 32.0652 61.3821 31.9395 61.0459 31.9395C61.0118 31.9395 60.9762 31.9395 60.9407 31.9436C41.6816 33.4578 27.0446 50.425 28.3129 69.7633C29.4951 87.8088 44.6022 102.357 62.7037 102.884C71.5351 103.13 80.1055 100.132 86.809 94.4125C87.0946 94.1679 87.2613 93.8221 87.2764 93.4408C87.2928 93.0486 87.1493 92.681 86.8732 92.4049L63.6016 69.1333ZM54.6185 38.7236C46.8545 41.2164 40.3368 46.8935 36.7343 54.2981C36.4979 54.7847 36.0113 55.0662 35.5043 55.0662C35.3048 55.0662 35.0998 55.0225 34.9071 54.9282C34.2278 54.5974 33.9463 53.7802 34.2757 53.1009C38.2035 45.0294 45.3129 38.8411 53.7821 36.1201C54.4982 35.8919 55.269 36.2841 55.5014 37.003C55.7323 37.7218 55.3374 38.4926 54.6185 38.7236Z" fill="#0D9488"/>
<path d="M78.1165 71.5852L80.9674 68.7344H75.2656L78.1165 71.5852Z" fill="#98CFCB"/>
<path d="M97.1328 68.7324L86.1995 79.6658L89.7337 83.2L103.84 69.0932C103.59 68.8787 103.287 68.7338 102.952 68.7338H97.1314L97.1328 68.7324Z" fill="#98CFCB"/>
<path d="M94.2669 87.7335C94.5443 88.0109 94.9133 88.1749 95.3083 88.1394C95.691 88.1243 96.0367 87.9576 96.2827 87.6706C99.9017 83.4326 102.444 78.4224 103.746 73.0527L91.6661 85.1327L94.2669 87.7335Z" fill="#98CFCB"/>
<path d="M93.2682 68.7344H84.8331L80.0498 73.5177L84.2673 77.7352L93.2682 68.7344Z" fill="#98CFCB"/>
<rect x="1" y="0.5" width="131" height="131" rx="65.5" stroke="#EAF4E5"/>
</svg>
