<svg width="65" height="64" viewBox="0 0 65 64" fill="none" xmlns="http://www.w3.org/2000/svg">
<path d="M0.5 32C0.5 5.648 6.148 0 32.5 0C58.852 0 64.5 5.648 64.5 32C64.5 58.352 58.852 64 32.5 64C6.148 64 0.5 58.352 0.5 32Z" fill="url(#paint0_linear_556_1695)"/>
<path fill-rule="evenodd" clip-rule="evenodd" d="M34.568 21.8829C33.1498 20.4647 30.8501 20.4647 29.4318 21.8829C28.0136 23.3011 28.0136 25.6009 29.4318 27.0191C30.8501 28.4374 33.1498 28.4374 34.568 27.0191C35.9863 25.6009 35.9863 23.3011 34.568 21.8829ZM34.8782 19.4606C35.2038 19.6489 35.508 19.8668 35.7867 20.1102C35.9408 20.245 36.161 20.2556 36.325 20.1503C36.6761 19.9476 37.0331 19.7313 37.387 19.5382C37.5473 19.4484 37.7596 19.5126 37.8409 19.6637L39.067 21.7874C39.1583 21.9453 39.1016 22.1536 38.9435 22.2449L37.8686 22.8655C37.7007 22.9627 37.6193 23.1519 37.651 23.3325C37.6885 23.5484 37.6916 25.3594 37.6522 25.5615C37.6126 25.7641 37.7156 25.9614 37.8913 26.0499L38.9434 26.6573C39.0994 26.7476 39.1533 26.9466 39.0755 27.1007C38.7296 27.7898 38.2243 28.5732 37.8298 29.2561C37.7497 29.3919 37.5331 29.446 37.4061 29.3748L36.3058 28.7409C36.1391 28.6451 35.9367 28.6683 35.7967 28.7837C35.1846 29.2893 34.624 29.6438 33.8662 29.9018C33.6818 29.9642 33.5645 30.1346 33.5607 30.3185C33.5534 30.7316 33.5599 31.1534 33.5599 31.5681C33.5599 31.7509 33.4087 31.9022 33.2259 31.9022H30.7737C30.5909 31.9022 30.4397 31.7509 30.4397 31.5681V30.3279C30.4397 30.1204 30.2993 29.9456 30.1084 29.8933C29.763 29.7733 29.4328 29.6216 29.1216 29.4416C28.796 29.2534 28.4918 29.0355 28.2131 28.792C28.0658 28.6631 27.8581 28.6477 27.6968 28.7386C27.336 28.943 26.9761 29.1543 26.6165 29.3619C26.4545 29.4554 26.2405 29.39 26.159 29.2385L24.9329 27.1149C24.8415 26.9566 24.8983 26.7486 25.056 26.6566L25.0564 26.6573L26.1312 26.0367C26.2967 25.9409 26.3782 25.7556 26.35 25.5774C26.2244 24.768 26.1886 24.1549 26.3476 23.3407C26.3871 23.1381 26.2841 22.9408 26.1085 22.8523L25.0564 22.2449C24.9076 22.1591 24.85 21.9706 24.9166 21.8179C25.1754 21.2252 25.8171 20.2425 26.1698 19.6464C26.2501 19.5102 26.4663 19.4561 26.5943 19.5278L27.694 20.1613C27.8636 20.2588 28.0703 20.2331 28.2106 20.1122C28.796 19.6159 29.4042 19.2487 30.1336 19.0004C30.3178 18.9379 30.4351 18.7678 30.439 18.5841C30.4461 18.1706 30.4399 17.7491 30.4399 17.334C30.4399 17.1512 30.5911 17 30.7739 17H33.2261C33.4089 17 33.5601 17.1512 33.5601 17.334V18.5742C33.5601 18.7818 33.7005 18.9566 33.8914 19.0089C34.2367 19.1288 34.5669 19.2806 34.8782 19.4606ZM37.5627 45.1408H26.4372L26.4138 45.1642V46.9766L26.4372 47H37.5627L37.5861 46.9766V45.1642L37.5627 45.1408ZM18.9551 38.1741V40.6202C18.9551 40.9252 19.2063 41.1764 19.5113 41.1764H44.4886C44.7936 41.1764 45.0448 40.9252 45.0448 40.6202V38.1741H18.9551ZM25.356 24.9016L25.4103 25.4146C25.1337 25.5743 24.8426 25.7323 24.5732 25.8996C24.0068 26.251 23.8219 26.9891 24.1549 27.5653L25.3809 29.6888C25.6989 30.2553 26.4161 30.4724 27.0355 30.1566L27.8715 29.6755C28.3778 30.0764 28.9376 30.401 29.5386 30.6404V31.5679C29.5386 32.2483 30.0936 32.8032 30.7739 32.8032H33.2261C33.9064 32.8032 34.4613 32.2483 34.4613 31.5679V30.6403C35.0627 30.4008 35.6226 30.0761 36.1291 29.6748L36.934 30.1395C37.5121 30.4798 38.2723 30.2826 38.6186 29.6896C39.0293 28.9784 39.4473 28.2662 39.8512 27.5528C40.1753 26.9831 40.0001 26.2739 39.4242 25.8981L38.5898 25.4146L38.644 24.9016H44.4886C44.7937 24.9016 45.0449 25.1528 45.0449 25.4578V37.2727H18.9551V25.4579C18.9551 25.1529 19.2063 24.9017 19.5113 24.9017H25.356V24.9016ZM33.6255 42.0777H30.4065L30.1001 44.2396H33.91L33.6255 42.0777ZM32 19.9179C34.5033 19.9179 36.533 21.9476 36.533 24.4509C36.533 26.9544 34.5034 28.984 32 28.984C29.4965 28.984 27.4669 26.9544 27.4669 24.4509C27.467 21.9476 29.4965 19.9179 32 19.9179Z" fill="white"/>
<defs>
<linearGradient id="paint0_linear_556_1695" x1="60.1706" y1="5.08235" x2="-15.3118" y2="76.6118" gradientUnits="userSpaceOnUse">
<stop stop-color="#FF9752"/>
<stop offset="1" stop-color="#FFD1B2"/>
</linearGradient>
</defs>
</svg>
