<svg width="141" height="180" viewBox="0 0 141 180" fill="none" xmlns="http://www.w3.org/2000/svg">
<rect x="0.5" width="140" height="180" rx="70" fill="#F5F6F7"/>
<path opacity="0.4" d="M102.7 84.7997L99.4333 98.733C96.6333 110.766 91.0999 115.633 80.6999 114.633C79.0333 114.5 77.2333 114.2 75.2999 113.733L69.6999 112.4C55.7999 109.1 51.4999 102.233 54.7666 88.2997L58.0333 74.333C58.6999 71.4997 59.4999 69.033 60.4999 66.9997C64.3999 58.933 71.0333 56.7664 82.1666 59.3997L87.7333 60.6997C101.7 63.9664 105.967 70.8664 102.7 84.7997Z" fill="#0D9488"/>
<path d="M80.7 114.633C78.6334 116.033 76.0334 117.2 72.8667 118.233L67.6 119.967C54.3667 124.233 47.4 120.667 43.1 107.433L38.8334 94.2667C34.5667 81.0333 38.1 74.0333 51.3334 69.7667L56.6 68.0333C57.9667 67.6 59.2667 67.2333 60.5 67C59.5 69.0333 58.7 71.5 58.0334 74.3333L54.7667 88.3C51.5 102.233 55.8 109.1 69.7 112.4L75.3 113.733C77.2334 114.2 79.0334 114.5 80.7 114.633Z" fill="#0D9488"/>
<path d="M88.7999 85.0326C88.5999 85.0326 88.3999 84.9993 88.1666 84.9659L71.9999 80.8659C70.6666 80.5326 69.8666 79.1659 70.1999 77.8326C70.5333 76.4993 71.8999 75.6993 73.2333 76.0326L89.4 80.1326C90.7333 80.4659 91.5333 81.8326 91.1999 83.1659C90.9333 84.2659 89.8999 85.0326 88.7999 85.0326Z" fill="#0D9488"/>
<path d="M79.0334 96.2996C78.8334 96.2996 78.6334 96.2663 78.4 96.233L68.7 93.7663C67.3667 93.433 66.5667 92.0663 66.9 90.733C67.2334 89.3996 68.6 88.5996 69.9334 88.933L79.6334 91.3996C80.9667 91.733 81.7667 93.0996 81.4334 94.433C81.1667 95.5663 80.1667 96.2996 79.0334 96.2996Z" fill="#0D9488"/>
</svg>
