<svg width="85" height="85" viewBox="0 0 85 85" fill="none" xmlns="http://www.w3.org/2000/svg">
<path d="M74.7734 44.3594L73.1797 20.3203L62.1562 27.0938C56.7109 26.1641 55.25 26.1641 51 24.0391C48.4766 22.8438 45.2891 23.6406 43.6953 24.5703C41.3047 22.0469 25.7656 25.7656 24.0391 26.5625C19.3906 25.2344 12.4844 19.7891 12.4844 19.7891L10.0938 47.0156L13.2812 47.8125C13.5469 48.7422 14.3438 51 14.3438 51C11.4219 54.7188 14.875 59.1016 18.1953 57.6406C16.7344 61.3594 20.5859 64.8125 23.6406 62.4219C23.2422 65.875 26.8281 68.3985 29.4844 66.0078C28.2891 70.125 32.9375 73.1797 35.7266 69.8594C37.7187 71.1875 39.5781 72.25 41.1719 72.7813C43.9609 73.9766 47.0156 71.3203 46.4844 68C49.6719 71.7188 54.4531 68.1328 53.3906 64.0156C56.9766 66.8047 61.3594 62.1563 59.1016 58.0391C63.0859 60.2969 66.5391 54.1875 62.6875 50.2031L74.7734 44.3594Z" fill="#FED0AC"/>
<path d="M18.4609 48.2109C20.4531 49.1406 21.7813 52.1953 19.6563 54.8516L18.7266 55.9141C17.6641 57.2422 16.6016 57.6406 15.5391 57.6406C16.3359 58.0391 17.2656 58.0391 18.1953 57.6406C18.3281 57.2422 18.5938 56.7109 18.9922 56.3125L19.9219 55.25C20.4531 54.5859 21.1172 54.0547 21.6484 53.7891C22.7109 51 20.8516 48.3438 18.4609 48.2109Z" fill="#E0A372"/>
<path d="M33.7344 61.3599C35.8594 61.8911 37.4531 64.6802 35.8594 67.7349L35.0625 68.9302C34.2656 70.3911 33.2031 71.0552 32.1406 71.188C33.6016 71.5864 35.1953 71.0552 36.2578 69.063L37.0547 67.8677C38.9141 64.1489 36.3906 61.0942 33.7344 61.3599Z" fill="#E0A372"/>
<path d="M24.3047 60.2969L26.4297 56.9766C26.2969 55.1172 24.7031 53.5234 23.1094 53.3906C25.1016 54.3203 26.4297 57.375 24.3047 60.0313L23.375 61.0938C22.3125 62.4219 21.25 62.8203 20.0547 62.8203C21.1172 63.3516 22.3125 63.2188 23.5078 62.4219C23.6406 61.7578 23.9063 60.9609 24.3047 60.2969Z" fill="#E0A372"/>
<path d="M30.0156 54.3203C32.1406 54.9843 33.6016 57.9062 31.7422 60.8281L29.2187 64.8124C28.2891 66.2734 27.2266 66.8046 26.1641 66.8046C27.4922 67.2031 29.2187 66.8046 30.4141 64.9453L32.9375 60.9609C35.0625 57.5078 32.6719 54.1874 30.0156 54.3203Z" fill="#E0A372"/>
<path d="M47.6797 57.6406C47.8125 57.6406 49.4062 57.375 49.9375 57.375C47.9453 55.3828 44.7578 56.9766 42.8984 55.9141C44.2266 58.1719 47.0156 57.6406 47.2812 57.6406L50.4687 61.7578C53.125 65.0781 51 68.9297 48.2109 69.3281C51.1328 70.2578 54.0547 67.2031 53.125 63.8828C52.9922 63.75 47.6797 57.6406 47.6797 57.6406Z" fill="#E0A372"/>
<path d="M50.8672 49.9375C50.8672 49.9375 52.8594 49.5391 54.5859 49.5391C52.5938 47.9453 49.5391 49.4062 47.5469 48.0781C48.3438 49.8047 50.0703 49.8047 50.6016 49.8047L56.7109 56.8437C59.5 60.0312 57.5078 63.8828 54.7188 64.5469C57.9063 65.4766 60.9609 61.3594 58.9688 57.7734C57.6406 57.375 50.8672 49.9375 50.8672 49.9375Z" fill="#E0A372"/>
<path d="M46.6172 65.2109C44.625 63.6172 41.8359 64.8125 40.6406 64.0156C41.3047 65.875 43.8281 65.4766 43.9609 65.4766C46.2187 68.9297 43.8281 72.5156 41.0391 72.7812C43.8281 73.9766 46.8828 71.3203 46.3516 68C46.2187 67.8672 44.3594 65.4766 44.3594 65.4766C44.625 65.3437 46.0859 65.2109 46.6172 65.2109Z" fill="#E0A372"/>
<path d="M73.3125 42.1016C73.3125 42.1016 71.0547 46.75 62.289 49.2734C61.0937 47.8125 58.5703 44.8906 55.6484 42.3672C57.5078 41.9688 58.4375 40.5078 59.8984 40.2422C59.3672 39.7109 57.5078 39.9766 56.0469 40.5078C53.3906 41.4375 47.2812 37.1875 47.2812 37.1875L42.2344 37.8516C38.6484 41.3047 30.9453 43.1641 30.5469 37.8516C30.2812 34.1328 38.3828 31.6094 40.9062 29.2188C44.0937 26.1641 46.8828 22.3125 52.0625 24.9688C56.3125 27.0938 58.039 26.9609 63.8828 28.0234C65.875 28.4219 67.2031 29.3516 68.664 31.3438C67.4687 28.5547 65.7422 27.3594 63.6172 26.9609L72.914 22.5781L73.0469 20.3203L62.0234 26.5625C56.9765 25.7656 55.1172 25.7656 51 23.7734C48.3437 22.4453 46.2187 22.8438 44.4922 23.9063C41.3047 22.0469 39.4453 22.4453 38.25 22.7109C34.5312 23.9063 28.5547 24.0391 23.2422 26.1641C24.1719 26.4297 25.1016 26.6953 25.7656 26.6953C30.9453 25.1016 36.3906 25.2344 38.9141 24.3047C39.7109 24.0391 41.3047 24.0391 43.0312 24.9688C41.9687 25.8984 41.0391 26.9609 39.9766 28.0234C37.4531 30.4141 29.75 33.8672 30.2812 38.25C30.5469 40.375 33.4687 45.9531 43.1641 39.7109L47.2812 39.1797C47.2812 39.1797 54.8515 42.7656 61.8906 51C64.6797 54.1875 62.9531 57.6406 60.164 58.4375C63.75 59.1016 66.8047 54.0547 63.3515 50.6016L71.7187 46.0859L73.3125 42.1016Z" fill="#E0A372"/>
<path d="M70.9214 21.6484L75.3042 44.3594L71.7183 45.9531C69.8589 41.0391 67.0698 29.2188 67.7339 23.5078L70.9214 21.6484Z" fill="#3B946F"/>
<path d="M14.7422 50.4688C14.0781 48.875 13.6797 46.75 13.6797 46.75L10.3594 44.4922L10.0938 47.0156L13.0156 47.8125C13.4141 49.1406 13.8125 50.2031 14.3437 51L14.7422 50.4688Z" fill="#E0A372"/>
<path d="M8.10156 46.6172L15.2734 21.7812L18.5938 24.0391C19.125 27.7578 13.0156 44.7578 10.7578 47.2812L8.10156 46.6172Z" fill="#3B946F"/>
<path d="M70.7891 21.5156C69.7266 22.1797 73.5782 45.1562 75.1719 44.4922C80.2188 42.2344 82.4766 41.5703 82.4766 41.5703V14.2109C82.3438 14.2109 79.2891 16.4688 70.7891 21.5156Z" fill="#47B892"/>
<path d="M2.65625 11.9531V45.8203C2.65625 45.8203 5.04688 46.2188 8.10156 46.8828C9.82812 47.2813 16.0703 22.3125 15.6719 21.9141C11.1562 18.8594 2.65625 11.9531 2.65625 11.9531Z" fill="#47B892"/>
</svg>
