<svg width="18" height="18" viewBox="0 0 18 18" fill="none" xmlns="http://www.w3.org/2000/svg">
<path d="M3.6 15.6V16.2H4.8V15.6H3.6ZM13.2 15.6V16.2H14.4V15.6H13.2ZM4.8 15.6V15H3.6V15.6H4.8ZM7.8 12H10.2V10.8H7.8V12ZM13.2 15V15.6H14.4V15H13.2ZM10.2 12C10.9957 12 11.7587 12.3161 12.3213 12.8787C12.8839 13.4413 13.2 14.2044 13.2 15H14.4C14.4 13.8861 13.9575 12.8178 13.1698 12.0302C12.3822 11.2425 11.3139 10.8 10.2 10.8V12ZM4.8 15C4.8 14.2044 5.11607 13.4413 5.67868 12.8787C6.24129 12.3161 7.00435 12 7.8 12V10.8C6.68609 10.8 5.6178 11.2425 4.83015 12.0302C4.0425 12.8178 3.6 13.8861 3.6 15H4.8ZM9 3.6C8.20435 3.6 7.44129 3.91607 6.87868 4.47868C6.31607 5.04129 6 5.80435 6 6.6H7.2C7.2 6.12261 7.38964 5.66477 7.72721 5.32721C8.06477 4.98964 8.52261 4.8 9 4.8V3.6ZM12 6.6C12 5.80435 11.6839 5.04129 11.1213 4.47868C10.5587 3.91607 9.79565 3.6 9 3.6V4.8C9.47739 4.8 9.93523 4.98964 10.2728 5.32721C10.6104 5.66477 10.8 6.12261 10.8 6.6H12ZM9 9.6C9.79565 9.6 10.5587 9.28393 11.1213 8.72132C11.6839 8.15871 12 7.39565 12 6.6H10.8C10.8 7.07739 10.6104 7.53523 10.2728 7.87279C9.93523 8.21036 9.47739 8.4 9 8.4V9.6ZM9 8.4C8.52261 8.4 8.06477 8.21036 7.72721 7.87279C7.38964 7.53523 7.2 7.07739 7.2 6.6H6C6 7.39565 6.31607 8.15871 6.87868 8.72132C7.44129 9.28393 8.20435 9.6 9 9.6V8.4ZM9 16.8C6.93131 16.8 4.94735 15.9782 3.48457 14.5154C2.02178 13.0526 1.2 11.0687 1.2 9H0C0 11.3869 0.948212 13.6761 2.63604 15.364C4.32387 17.0518 6.61305 18 9 18V16.8ZM16.8 9C16.8 10.0243 16.5982 11.0386 16.2063 11.9849C15.8143 12.9313 15.2397 13.7911 14.5154 14.5154C13.7911 15.2397 12.9313 15.8143 11.9849 16.2063C11.0386 16.5982 10.0243 16.8 9 16.8V18C11.3869 18 13.6761 17.0518 15.364 15.364C17.0518 13.6761 18 11.3869 18 9H16.8ZM9 1.2C10.0243 1.2 11.0386 1.40175 11.9849 1.79374C12.9313 2.18573 13.7911 2.76027 14.5154 3.48457C15.2397 4.20886 15.8143 5.06873 16.2063 6.01507C16.5982 6.96141 16.8 7.97569 16.8 9H18C18 6.61305 17.0518 4.32387 15.364 2.63604C13.6761 0.948212 11.3869 0 9 0V1.2ZM9 0C6.61305 0 4.32387 0.948212 2.63604 2.63604C0.948212 4.32387 0 6.61305 0 9H1.2C1.2 6.93131 2.02178 4.94735 3.48457 3.48457C4.94735 2.02178 6.93131 1.2 9 1.2V0Z" fill="#B0AFAF"/>
</svg>
