<svg width="133" height="132" viewBox="0 0 133 132" fill="none" xmlns="http://www.w3.org/2000/svg">
<rect x="1" y="0.5" width="131" height="131" rx="65.5" fill="white"/>
<g clip-path="url(#clip0_556_1577)">
<path d="M103.679 65.9672L106.949 58.0446C108.305 54.7578 107.09 51.0182 104.059 49.1578L95.6871 44.1491L93.801 36.3415C92.9635 32.8787 89.7564 30.5702 86.2397 30.847L76.6607 31.5883L71.1734 26.7294C69.8212 25.5754 68.1611 24.9994 66.5001 25C64.8415 25.0006 63.182 25.5759 61.8267 26.727L56.3393 31.5883L46.7603 30.847C43.2835 30.6031 40.0343 32.881 39.2859 36.0575C39.4676 35.4926 36.67 44.1883 36.5151 44.6698L28.9426 49.1554C25.9093 51.0182 24.694 54.7577 26.0523 58.047L29.3203 65.9672L26.0549 73.885C24.6942 77.1765 25.9117 80.9137 28.9428 82.7741L37.3058 87.7478L39.199 95.5906C40.0319 99.051 43.2249 101.348 46.7603 101.085L56.236 100.353L61.8266 105.269C63.1804 106.423 64.8391 107 66.5001 107C68.1587 107 69.8198 106.423 71.1734 105.269L76.764 100.353L86.2397 101.085C89.8198 101.369 92.9681 99.0532 93.801 95.5905L95.6871 87.7829L104.059 82.7741C107.087 80.9137 108.303 77.1765 106.947 73.885L103.679 65.9672Z" fill="#EDF5FF"/>
<path d="M76.7639 100.353L86.2396 101.085C89.8197 101.369 92.9681 99.0532 93.8009 95.5905L95.687 87.7829L104.059 82.7741C107.087 80.9137 108.303 77.1765 106.946 73.885L103.679 65.9672L106.949 58.0446C108.305 54.7578 107.09 51.0182 104.059 49.1578L95.687 44.1491L93.8009 36.3415C92.9634 32.8787 89.7563 30.5702 86.2396 30.847L76.6606 31.5883L71.1734 26.7294C69.8212 25.5754 68.161 24.9994 66.5 25V107C68.1586 107 69.8197 106.423 71.1734 105.269L76.7639 100.353Z" fill="#D5E8FE"/>
<path d="M66.5 92.4258C81.0946 92.4258 92.9258 80.5946 92.9258 66C92.9258 51.4054 81.0946 39.5742 66.5 39.5742C51.9054 39.5742 40.0742 51.4054 40.0742 66C40.0742 80.5946 51.9054 92.4258 66.5 92.4258Z" fill="#8CD96B"/>
<path d="M92.9258 66C92.9258 51.4288 81.0712 39.5742 66.5 39.5742V92.4258C81.0712 92.4258 92.9258 80.5712 92.9258 66Z" fill="#5AB267"/>
<path d="M80.2101 57.0944C79.2717 56.156 77.7514 56.156 76.813 57.0944L66.4999 67.4075L64.0976 69.8098L56.1867 61.8989C55.2483 60.9606 53.7279 60.9606 52.7896 61.8989C51.8512 62.8373 51.8512 64.3576 52.7896 65.296L62.399 74.9054C62.8682 75.3746 63.4829 75.6093 64.0974 75.6093C64.7119 75.6093 65.3268 75.3746 65.7959 74.9054L66.4998 74.2015L80.2099 60.4913C81.1486 59.5529 81.1486 58.0327 80.2101 57.0944Z" fill="#EDF5FF"/>
<path d="M80.2102 57.0944C79.2718 56.156 77.7515 56.156 76.8131 57.0944L66.5 67.4075V74.2016L80.2102 60.4915C81.1487 59.5529 81.1487 58.0327 80.2102 57.0944Z" fill="#D5E8FE"/>
</g>
<rect x="1" y="0.5" width="131" height="131" rx="65.5" stroke="#EAF4E5"/>
<defs>
<clipPath id="clip0_556_1577">
<rect width="82" height="82" fill="white" transform="translate(25.5 25)"/>
</clipPath>
</defs>
</svg>
