<svg width="41" height="13" viewBox="0 0 41 13" fill="none" xmlns="http://www.w3.org/2000/svg">
<path d="M19.9311 0.229623L17.2418 12.8026H13.9889L16.6785 0.229623H19.9311ZM33.6157 8.34815L35.3277 3.62674L36.313 8.34815H33.6157ZM37.2462 12.8026H40.2539L37.6262 0.229623H34.8518C34.2266 0.229623 33.6995 0.592156 33.4662 1.15123L28.5855 12.8026H32.0016L32.6797 10.9249H36.8522L37.2462 12.8026ZM28.7549 8.69796C28.7691 5.37974 24.1678 5.19593 24.1987 3.71328C24.2086 3.2628 24.6384 2.78291 25.5778 2.66018C26.0436 2.60023 27.3288 2.55159 28.7857 3.22292L29.3556 0.555676C28.5731 0.272607 27.5661 0 26.3131 0C23.0975 0 20.8355 1.70803 20.8174 4.15584C20.7967 5.96596 22.4332 6.97522 23.6636 7.57812C24.9322 8.19432 25.3572 8.58937 25.351 9.13996C25.3422 9.98351 24.3395 10.3571 23.4057 10.3712C21.7695 10.3967 20.821 9.92893 20.0652 9.57658L19.4747 12.3329C20.236 12.6813 21.6386 12.9844 23.091 13C26.5096 13 28.7447 11.312 28.7549 8.69796ZM15.2832 0.229623L10.0129 12.8026H6.57508L3.98136 2.76848C3.82413 2.15144 3.68698 1.92465 3.20879 1.66392C2.4266 1.23917 1.13539 0.841857 0 0.594701L0.076919 0.229623H5.61163C6.31662 0.229623 6.95091 0.698766 7.11238 1.51093L8.48248 8.78704L11.866 0.229623H15.2832Z" fill="#1434CB"/>
</svg>
