<svg width="141" height="180" viewBox="0 0 141 180" fill="none" xmlns="http://www.w3.org/2000/svg">
<rect x="0.5" width="140" height="180" rx="70" fill="#F5F6F7"/>
<path d="M70.2997 57.3674L62.2663 76.0674H54.233C52.8997 76.0674 51.5997 76.1674 50.333 76.4341L53.6663 68.4341L53.7997 68.1341L53.9997 67.6007C54.0997 67.3674 54.1663 67.1674 54.2663 67.0007C58.133 58.0341 62.4663 55.2341 70.2997 57.3674Z" fill="#ABE2DD"/>
<path d="M92.9337 76.9671L92.8671 76.9337C90.8671 76.3671 88.8337 76.0671 86.7671 76.0671H65.9004L73.4004 58.6337L73.5004 58.4004C73.9671 58.5671 74.4671 58.8004 74.9671 58.9671L82.3337 62.0671C86.4337 63.7671 89.3004 65.5337 91.0671 67.6671C91.3671 68.0671 91.6337 68.4337 91.9004 68.8671C92.2004 69.3337 92.4337 69.8004 92.5671 70.3004C92.7004 70.6004 92.8004 70.8671 92.8671 71.1671C93.3671 72.8671 93.4004 74.8004 92.9337 76.9671Z" fill="#ABE2DD"/>
<path d="M72.2333 108.867H73.0666C74.0666 108.867 74.8999 107.967 74.8999 106.867C74.8999 105.467 74.4999 105.267 73.6333 104.934L72.2333 104.434V108.867Z" fill="#0D9488"/>
<path d="M91.4667 81.7331C89.9667 81.2997 88.4 81.0664 86.7667 81.0664H54.2333C51.9667 81.0664 49.8333 81.4997 47.8333 82.3664C42.0333 84.8664 37.9667 90.6331 37.9667 97.3331V103.833C37.9667 104.633 38.0333 105.4 38.1333 106.2C38.8667 116.8 44.5333 122.466 55.1333 123.166C55.9 123.266 56.6667 123.333 57.5 123.333H83.5C95.8333 123.333 102.333 117.466 102.967 105.8C103 105.166 103.033 104.5 103.033 103.833V97.3331C103.033 89.9664 98.1333 83.7664 91.4667 81.7331ZM74.7667 101.666C76.3 102.2 78.3667 103.333 78.3667 106.866C78.3667 109.9 76 112.333 73.0667 112.333H72.2333V113.066C72.2333 114.033 71.4667 114.8 70.5 114.8C69.5333 114.8 68.7667 114.033 68.7667 113.066V112.333H68.4667C65.2667 112.333 62.6333 109.633 62.6333 106.3C62.6333 105.333 63.4 104.566 64.3667 104.566C65.3333 104.566 66.1 105.333 66.1 106.3C66.1 107.7 67.1667 108.866 68.4667 108.866H68.7667V103.233L66.2333 102.333C64.7 101.8 62.6333 100.666 62.6333 97.1331C62.6333 94.0997 65 91.6664 67.9333 91.6664H68.7667V90.9331C68.7667 89.9664 69.5333 89.1997 70.5 89.1997C71.4667 89.1997 72.2333 89.9664 72.2333 90.9331V91.6664H72.5333C75.7333 91.6664 78.3667 94.3664 78.3667 97.6997C78.3667 98.6664 77.6 99.4331 76.6333 99.4331C75.6667 99.4331 74.9 98.6664 74.9 97.6997C74.9 96.2997 73.8333 95.1331 72.5333 95.1331H72.2333V100.766L74.7667 101.666Z" fill="#0D9488"/>
<path d="M66.0996 97.1328C66.0996 98.5328 66.4996 98.7328 67.3663 99.0661L68.7663 99.5661V95.1328H67.9329C66.8996 95.1328 66.0996 96.0328 66.0996 97.1328Z" fill="#0D9488"/>
</svg>
