<svg width="65" height="64" viewBox="0 0 65 64" fill="none" xmlns="http://www.w3.org/2000/svg">
<path d="M0.5 32C0.5 5.648 6.148 0 32.5 0C58.852 0 64.5 5.648 64.5 32C64.5 58.352 58.852 64 32.5 64C6.148 64 0.5 58.352 0.5 32Z" fill="url(#paint0_linear_556_1677)"/>
<path d="M33.8945 43.6146C34.5078 43.48 35.1096 43.2978 35.6945 43.0696C35.368 42.9038 35.0596 42.7044 34.7745 42.4746C34.517 42.881 34.2224 43.2626 33.8945 43.6146Z" fill="white"/>
<path d="M31.7354 18.015C31.5054 18.005 31.2754 18 31.0454 18C30.8154 18 30.5854 18.005 30.3554 18.015C29.7014 18.2582 29.1295 18.6811 28.7054 19.235C27.4654 20.72 26.4754 23.32 25.9854 26.455H36.1054C35.6154 23.315 34.6254 20.71 33.3854 19.23C32.9596 18.6788 32.388 18.2579 31.7354 18.015Z" fill="white"/>
<path d="M33.8945 18.3203C34.2709 18.7229 34.6044 19.1636 34.8895 19.6353C36.0735 21.7406 36.8328 24.0577 37.1245 26.4553H43.2045C42.4493 24.4335 41.203 22.6313 39.5777 21.2111C37.9525 19.791 35.9994 18.7975 33.8945 18.3203Z" fill="white"/>
<path d="M41.995 34.4101C42.1279 34.5411 42.2531 34.6796 42.37 34.8251C42.6353 35.1511 42.8618 35.5068 43.045 35.8851C43.6875 34.3244 44.017 32.6528 44.015 30.9651C44.0163 29.7779 43.8514 28.5965 43.525 27.4551H37.26C37.3924 28.6204 37.4575 29.7923 37.455 30.9651C37.455 31.6201 37.435 32.2601 37.395 32.8851C38.2275 32.7638 39.0769 32.8384 39.8755 33.1032C40.6741 33.3679 41.3999 33.8154 41.995 34.4101Z" fill="white"/>
<path d="M25.9854 35.4805C26.4754 38.6155 27.4654 41.2155 28.7054 42.7005C29.1295 43.2544 29.7014 43.6773 30.3554 43.9205C30.5853 43.9305 30.8153 43.9355 31.0454 43.9355C31.2753 43.9355 31.5053 43.9305 31.7353 43.9205C32.388 43.6775 32.9596 43.2566 33.3854 42.7055C33.6294 42.4097 33.85 42.0954 34.0454 41.7655C33.312 40.9047 32.8653 39.8367 32.7676 38.7101C32.6699 37.5836 32.9261 36.4546 33.5004 35.4805H25.9854Z" fill="white"/>
<path d="M18.8945 35.4805C19.6476 37.5018 20.8921 39.3039 22.5157 40.7241C24.1393 42.1443 26.0909 43.138 28.1945 43.6155C27.8213 43.2096 27.4897 42.7674 27.2045 42.2955C26.0166 40.1934 25.2553 37.8774 24.9645 35.4805H18.8945Z" fill="white"/>
<path d="M18.08 30.9651C18.0787 32.1539 18.2436 33.337 18.57 34.4801H24.83C24.57 32.1456 24.57 29.7895 24.83 27.4551H18.57C18.2436 28.5965 18.0787 29.7779 18.08 30.9651Z" fill="white"/>
<path d="M24.9646 26.4553C25.2555 24.0568 26.0167 21.7392 27.2046 19.6353C27.4898 19.1649 27.8214 18.7244 28.1946 18.3203C26.0901 18.7969 24.1374 19.7902 22.5128 21.2105C20.8883 22.6307 19.6431 24.4333 18.8896 26.4553H24.9646Z" fill="white"/>
<path d="M25.635 30.9651C25.6351 32.1399 25.7053 33.3136 25.845 34.4801H34.265C34.2853 34.4555 34.307 34.4321 34.33 34.4101C34.9073 33.8358 35.6062 33.3984 36.375 33.1301C36.43 32.4251 36.455 31.7001 36.455 30.9651C36.455 29.7919 36.3849 28.6198 36.245 27.4551H25.845C25.7051 28.6198 25.635 29.7919 25.635 30.9651Z" fill="white"/>
<path d="M45.41 43.0202L43.595 41.2052C43.5488 41.1589 43.4938 41.1221 43.4333 41.097C43.3728 41.0719 43.308 41.059 43.2425 41.059C43.177 41.059 43.1122 41.0719 43.0517 41.097C42.9912 41.1221 42.9363 41.1589 42.89 41.2052L42.3612 41.734L41.6221 40.9949C42.3248 40.1118 42.6629 38.9933 42.5671 37.8688C42.4714 36.7444 41.949 35.6992 41.1072 34.9476C40.2653 34.196 39.1678 33.7951 38.0397 33.827C36.9116 33.8588 35.8385 34.3212 35.0404 35.1191C34.2424 35.917 33.7799 36.99 33.7478 38.1181C33.7157 39.2462 34.1164 40.3438 34.8678 41.1858C35.6193 42.0278 36.6644 42.5503 37.7888 42.6463C38.9133 42.7423 40.0318 42.4043 40.915 41.7018L41.6542 42.441L41.125 42.9702C41.0787 43.0165 41.0419 43.0714 41.0168 43.1319C40.9917 43.1924 40.9788 43.2572 40.9788 43.3227C40.9788 43.3882 40.9917 43.453 41.0168 43.5135C41.0419 43.574 41.0787 43.629 41.125 43.6752L42.94 45.4902C43.2677 45.8171 43.7117 46.0006 44.1746 46.0003C44.6374 46 45.0813 45.816 45.4085 45.4887C45.7358 45.1615 45.9198 44.7176 45.9201 44.2548C45.9204 43.7919 45.7369 43.3479 45.41 43.0202ZM40.583 40.6628C40.1046 41.1412 39.4952 41.467 38.8316 41.599C38.1681 41.7309 37.4804 41.6632 36.8553 41.4043C36.2303 41.1454 35.6961 40.707 35.3202 40.1445C34.9444 39.582 34.7438 38.9206 34.7438 38.2441C34.7438 37.5676 34.9444 36.9063 35.3202 36.3438C35.6961 35.7812 36.2303 35.3428 36.8553 35.0839C37.4804 34.825 38.1681 34.7573 38.8316 34.8893C39.4952 35.0213 40.1046 35.347 40.583 35.8254C41.2231 36.4676 41.5826 37.3374 41.5826 38.2441C41.5826 39.1509 41.2231 40.0206 40.583 40.6628Z" fill="white"/>
<defs>
<linearGradient id="paint0_linear_556_1677" x1="60.1706" y1="5.08235" x2="-15.3118" y2="76.6118" gradientUnits="userSpaceOnUse">
<stop stop-color="#EDC13C"/>
<stop offset="1" stop-color="#E3CA7F"/>
</linearGradient>
</defs>
</svg>
