<svg width="16" height="16" viewBox="0 0 16 16" fill="none" xmlns="http://www.w3.org/2000/svg">
<path d="M15.1854 7.93936C15.1854 11.8857 11.9863 15.0848 8.03995 15.0848C4.09364 15.0848 0.894531 11.8857 0.894531 7.93936C0.894531 3.99306 4.09364 0.793945 8.03995 0.793945C11.9863 0.793945 15.1854 3.99306 15.1854 7.93936Z" fill="white"/>
<g clip-path="url(#clip0_2258_1971)">
<path d="M9.30529 2.34383C6.1811 1.62255 3.06373 3.5705 2.34245 6.6947C1.62117 9.81889 3.56912 12.9363 6.69331 13.6575C9.81751 14.3788 12.9349 12.4309 13.6562 9.30667C14.3774 6.18247 12.4295 3.06511 9.30529 2.34383ZM6.7536 4.12149C6.87174 4.14152 6.961 4.23551 7.01232 4.37759L7.4471 6.02284C7.48841 6.21543 7.39917 6.39084 7.24903 6.48698L6.81301 6.75943C6.78423 6.78435 6.76205 6.81477 6.75313 6.8518C6.76758 7.40902 7.06768 7.98921 7.35426 8.40671C7.64081 8.82422 7.92731 9.36605 8.40987 9.59015C8.46853 9.62211 8.5439 9.64611 8.59839 9.61477L9.10672 9.29063C9.27364 9.21575 9.4912 9.21101 9.62255 9.33408L9.62945 9.33567L10.8348 10.4817C11.01 10.6574 10.9739 10.9105 10.7924 11.0276L9.61107 11.7593C9.43551 11.8721 9.23563 11.8775 9.05236 11.8354C8.24764 11.624 7.57381 11.0496 7.03928 10.4957C6.18037 9.50636 5.44852 8.35633 5.11385 7.09378C4.99481 6.56927 4.86598 5.90536 5.01314 5.38457C5.06116 5.18695 5.15959 5.00521 5.32861 4.90971L6.51175 4.17041C6.60133 4.12398 6.68271 4.10947 6.7536 4.12149Z" fill="#34D399"/>
</g>
<defs>
<clipPath id="clip0_2258_1971">
<rect width="11.6113" height="11.6113" fill="white" transform="translate(0 6.15308) rotate(-32)"/>
</clipPath>
</defs>
</svg>
