<svg width="14" height="14" viewBox="0 0 14 14" fill="none" xmlns="http://www.w3.org/2000/svg">
<path d="M7 0C10.8657 0 14 3.13425 14 7C14 10.8657 10.8657 14 7 14C3.13425 14 0 10.8657 0 7C0 3.13425 3.13425 0 7 0ZM7 0.875C3.61725 0.875 0.875 3.61725 0.875 7C0.875 10.3827 3.61725 13.125 7 13.125C10.3827 13.125 13.125 10.3827 13.125 7C13.125 3.61725 10.3827 0.875 7 0.875ZM7 3.5C7.11603 3.5 7.22731 3.54609 7.30936 3.62814C7.39141 3.71019 7.4375 3.82147 7.4375 3.9375V6.5625H10.0625C10.1785 6.5625 10.2898 6.60859 10.3719 6.69064C10.4539 6.77269 10.5 6.88397 10.5 7C10.5 7.11603 10.4539 7.22731 10.3719 7.30936C10.2898 7.39141 10.1785 7.4375 10.0625 7.4375H7.4375V10.0625C7.4375 10.1785 7.39141 10.2898 7.30936 10.3719C7.22731 10.4539 7.11603 10.5 7 10.5C6.88397 10.5 6.77269 10.4539 6.69064 10.3719C6.60859 10.2898 6.5625 10.1785 6.5625 10.0625V7.4375H3.9375C3.82147 7.4375 3.71019 7.39141 3.62814 7.30936C3.54609 7.22731 3.5 7.11603 3.5 7C3.5 6.88397 3.54609 6.77269 3.62814 6.69064C3.71019 6.60859 3.82147 6.5625 3.9375 6.5625H6.5625V3.9375C6.5625 3.82147 6.60859 3.71019 6.69064 3.62814C6.77269 3.54609 6.88397 3.5 7 3.5V3.5Z" fill="#0D9488"/>
</svg>
