<svg width="20" height="21" viewBox="0 0 20 21" fill="none" xmlns="http://www.w3.org/2000/svg">
<path d="M8.15546 8.65017C7.41244 8.65017 6.68612 8.42179 6.0684 7.99393C5.45069 7.56607 4.96933 6.95797 4.68525 6.24655C4.40116 5.53514 4.32711 4.7524 4.47247 3.99737C4.61783 3.24233 4.97607 2.54895 5.50185 2.00494C6.02763 1.46094 6.69732 1.09077 7.42619 0.941263C8.15507 0.791759 8.91036 0.869646 9.5965 1.16507C10.2826 1.46049 10.8688 1.96016 11.2808 2.60087C11.6928 3.24158 11.9121 3.99453 11.911 4.76444C11.9081 5.79506 11.5113 6.78251 10.8075 7.51073C10.1036 8.23896 9.15008 8.64865 8.15546 8.65017ZM8.15546 2.02427C7.63243 2.02427 7.12116 2.18498 6.68628 2.48607C6.2514 2.78717 5.91246 3.21512 5.71231 3.71582C5.51216 4.21652 5.45979 4.76747 5.56182 5.29901C5.66386 5.83055 5.91572 6.3188 6.28555 6.70202C6.65538 7.08524 7.12658 7.34621 7.63955 7.45194C8.15252 7.55767 8.68423 7.50341 9.16744 7.29601C9.65065 7.08862 10.0637 6.7374 10.3542 6.28679C10.6448 5.83617 10.7999 5.30639 10.7999 4.76444C10.7999 4.0377 10.5213 3.34073 10.0254 2.82685C9.52943 2.31297 8.85681 2.02427 8.15546 2.02427Z" fill="#52525B"/>
<path d="M9.1222 18.3621C9.00078 18.2362 8.90711 18.0846 8.84765 17.9177C8.78819 17.7507 8.76435 17.5724 8.77775 17.395H2.2222V14.0676C3.00992 13.1967 3.96537 12.5068 5.02669 12.0427C6.08802 11.5786 7.23156 11.3506 8.38331 11.3735H8.78331C8.75781 11.1805 8.77562 10.984 8.83536 10.7993C8.8951 10.6146 8.99516 10.4466 9.12775 10.3085L9.19442 10.2452C8.93331 10.2452 8.63886 10.2107 8.38331 10.2107C7.02798 10.1773 5.68243 10.4565 4.44396 11.0279C3.20549 11.5994 2.10504 12.4489 1.2222 13.515C1.15007 13.6146 1.11108 13.7358 1.11108 13.8604V17.395C1.11108 17.7003 1.22815 17.9932 1.43652 18.2091C1.64489 18.425 1.92751 18.5463 2.2222 18.5463H9.27775L9.1222 18.3621Z" fill="#52525B"/>
<path d="M14.9277 9.50203C14.9552 9.49672 14.9836 9.49672 15.0111 9.50203C14.9835 9.49736 14.9553 9.49736 14.9277 9.50203Z" fill="#737373"/>
<path d="M18.7111 13.5493L17.6 13.1981C17.5205 12.9165 17.4125 12.6444 17.2777 12.3864L17.8333 11.3157C17.8514 11.2729 17.8557 11.2251 17.8457 11.1796C17.8357 11.134 17.8119 11.0929 17.7777 11.0624L16.9722 10.2277C16.9417 10.1935 16.901 10.1709 16.8567 10.1636C16.8124 10.1563 16.7669 10.1647 16.7277 10.1874L15.7055 10.763C15.4538 10.6164 15.1874 10.4987 14.9111 10.4119L14.5722 9.26056C14.5578 9.21818 14.5305 9.18179 14.4944 9.15688C14.4584 9.13196 14.4155 9.11986 14.3722 9.1224H13.2333C13.1895 9.12188 13.1468 9.13623 13.1117 9.16327C13.0766 9.1903 13.051 9.22852 13.0388 9.27208L12.7 10.4234C12.4217 10.5073 12.1534 10.6231 11.9 10.7688L10.8888 10.1931C10.8505 10.1709 10.806 10.1628 10.7626 10.1701C10.7192 10.1774 10.6795 10.1997 10.65 10.2334L9.82773 11.0624C9.79725 11.0957 9.77762 11.138 9.77164 11.1835C9.76566 11.2289 9.77362 11.2752 9.7944 11.3157L10.35 12.3634C10.203 12.6229 10.0856 12.8991 9.99995 13.1866L8.88884 13.532C8.84681 13.5446 8.80993 13.5711 8.78384 13.6075C8.75775 13.6439 8.74389 13.6881 8.7444 13.7335V14.9136C8.74768 14.9552 8.76334 14.9947 8.78921 15.0266C8.81509 15.0586 8.8499 15.0814 8.88884 15.092L9.99995 15.4432C10.0821 15.7256 10.1938 15.9978 10.3333 16.2549L9.77773 17.3544C9.75653 17.3938 9.74832 17.4393 9.75433 17.484C9.76035 17.5286 9.78027 17.5701 9.81106 17.6019L10.6166 18.4366C10.6481 18.4692 10.6887 18.4906 10.7325 18.4978C10.7764 18.505 10.8214 18.4977 10.8611 18.4769L11.9 17.9013C12.1472 18.0391 12.4079 18.1491 12.6777 18.2294L13.0111 19.3807C13.0247 19.4233 13.0507 19.4606 13.0855 19.4873C13.1203 19.5141 13.1622 19.5292 13.2055 19.5304H14.3444C14.3879 19.53 14.4302 19.5153 14.4652 19.4884C14.5001 19.4615 14.5259 19.4238 14.5388 19.3807L14.8777 18.2006C15.144 18.1202 15.401 18.0102 15.6444 17.8725L16.6944 18.4482C16.733 18.4694 16.7773 18.477 16.8204 18.4697C16.8635 18.4624 16.9032 18.4407 16.9333 18.4079L17.7777 17.625C17.8004 17.5912 17.8126 17.551 17.8126 17.5098C17.8126 17.4687 17.8004 17.4285 17.7777 17.3947L17.2222 16.3124C17.357 16.0585 17.4651 15.7902 17.5444 15.5123L18.6555 15.1611C18.6975 15.1485 18.7344 15.122 18.7605 15.0856C18.7866 15.0492 18.8005 15.005 18.8 14.9596V13.7507C18.8051 13.7119 18.7994 13.6723 18.7837 13.6367C18.7679 13.601 18.7428 13.5707 18.7111 13.5493ZM13.8055 16.2434C13.438 16.2445 13.0785 16.1326 12.7725 15.9217C12.4665 15.7109 12.2278 15.4107 12.0867 15.0591C11.9456 14.7075 11.9084 14.3205 11.9798 13.947C12.0512 13.5735 12.228 13.2303 12.4879 12.9611C12.7477 12.6918 13.0789 12.5086 13.4393 12.4346C13.7998 12.3606 14.1733 12.3992 14.5126 12.5454C14.8519 12.6916 15.1416 12.939 15.3451 13.256C15.5486 13.5731 15.6566 13.9456 15.6555 14.3264C15.654 14.8343 15.4587 15.3211 15.112 15.6802C14.7654 16.0394 14.2957 16.2418 13.8055 16.2434Z" fill="#52525B"/>
</svg>
