<svg width="14" height="20" viewBox="0 0 14 20" fill="none" xmlns="http://www.w3.org/2000/svg">
<path d="M2.33333 1.96692C1.71449 1.96692 1.121 2.17416 0.683417 2.54304C0.245833 2.91193 0 3.41224 0 3.93392L0 17.7029C0 18.2246 0.245833 18.7249 0.683417 19.0938C1.121 19.4627 1.71449 19.6699 2.33333 19.6699H11.6667C12.2855 19.6699 12.879 19.4627 13.3166 19.0938C13.7542 18.7249 14 18.2246 14 17.7029L14 3.93392C14 3.41224 13.7542 2.91193 13.3166 2.54304C12.879 2.17416 12.2855 1.96692 11.6667 1.96692H9.33333V-7.82013e-05H4.66667V1.96692H2.33333Z" fill="#1C9B8F"/>
</svg>
