<svg width="11" height="14" viewBox="0 0 11 14" fill="none" xmlns="http://www.w3.org/2000/svg">
<path d="M6.40197 12.936H4.26798C4.12649 12.936 3.99079 12.9847 3.89074 13.0713C3.79069 13.158 3.73449 13.2755 3.73449 13.398C3.73449 13.5205 3.79069 13.638 3.89074 13.7247C3.99079 13.8113 4.12649 13.86 4.26798 13.86H6.40197C6.54346 13.86 6.67916 13.8113 6.7792 13.7247C6.87925 13.638 6.93546 13.5205 6.93546 13.398C6.93546 13.2755 6.87925 13.158 6.7792 13.0713C6.67916 12.9847 6.54346 12.936 6.40197 12.936ZM6.93546 11.55H3.73449C3.59299 11.55 3.4573 11.5987 3.35725 11.6853C3.2572 11.772 3.20099 11.8895 3.20099 12.012C3.20099 12.1345 3.2572 12.252 3.35725 12.3387C3.4573 12.4253 3.59299 12.474 3.73449 12.474H6.93546C7.07695 12.474 7.21265 12.4253 7.3127 12.3387C7.41275 12.252 7.46896 12.1345 7.46896 12.012C7.46896 11.8895 7.41275 11.772 7.3127 11.6853C7.21265 11.5987 7.07695 11.55 6.93546 11.55ZM9.11679 1.34819C8.11415 0.47876 6.77108 1.30932e-05 5.33497 1.30932e-05C4.63391 -0.00143396 3.93942 0.117078 3.2914 0.348742C2.64338 0.580406 2.05459 0.920657 1.55886 1.34995C1.06313 1.77925 0.670226 2.28913 0.402711 2.8503C0.135196 3.41148 -0.00165587 4.0129 1.51195e-05 4.62001C1.51195e-05 5.96616 0.595863 7.2254 1.63385 8.07461L1.77922 8.19271C2.37974 8.67896 3.20099 9.34511 3.20099 9.933V10.626C3.20099 10.7485 3.2572 10.866 3.35725 10.9527C3.4573 11.0393 3.59299 11.088 3.73449 11.088H4.53473C4.60548 11.088 4.67333 11.0637 4.72335 11.0203C4.77338 10.977 4.80148 10.9183 4.80148 10.857V7.47343C4.8015 7.42672 4.78516 7.3811 4.75462 7.34259C4.72408 7.30408 4.68078 7.2745 4.63043 7.25774C4.32236 7.1489 4.0297 7.00988 3.75816 6.84338C3.69714 6.80964 3.64469 6.76549 3.604 6.71363C3.56331 6.66176 3.53524 6.60327 3.5215 6.54171C3.50775 6.48015 3.50862 6.41682 3.52405 6.35556C3.53947 6.2943 3.56914 6.2364 3.61123 6.18539C3.65333 6.13438 3.70698 6.09132 3.7689 6.05883C3.83083 6.02635 3.89975 6.00513 3.97145 5.99645C4.04316 5.98777 4.11615 5.99182 4.18599 6.00836C4.25583 6.02489 4.32105 6.05357 4.37768 6.09263C4.62442 6.24394 5.09957 6.46801 5.33497 6.46801C5.57038 6.46801 6.04552 6.24336 6.29293 6.09263C6.40813 6.02991 6.54665 6.00769 6.68015 6.0305C6.81365 6.05331 6.93204 6.11943 7.01109 6.21534C7.09015 6.31124 7.1239 6.42969 7.10544 6.54643C7.08698 6.66318 7.01771 6.76941 6.91179 6.84338C6.6402 7.00957 6.34754 7.14831 6.03952 7.25687C5.98917 7.27363 5.94587 7.30322 5.91533 7.34172C5.88479 7.38023 5.86845 7.42585 5.86847 7.47257V10.857C5.86847 10.9183 5.89657 10.977 5.9466 11.0203C5.99662 11.0637 6.06447 11.088 6.13522 11.088H6.93546C7.07695 11.088 7.21265 11.0393 7.3127 10.9527C7.41275 10.866 7.46896 10.7485 7.46896 10.626V9.933C7.46896 9.35897 8.28121 8.6934 8.87439 8.20715L9.0381 8.07259C10.1058 7.18988 10.6699 5.99475 10.6699 4.62001C10.6735 4.01284 10.538 3.41108 10.2714 2.8495C10.0049 2.28792 9.61242 1.77766 9.11679 1.34819Z" fill="#FFC700"/>
</svg>
