<svg width="11" height="15" viewBox="0 0 11 15" fill="none" xmlns="http://www.w3.org/2000/svg">
<path fill-rule="evenodd" clip-rule="evenodd" d="M5.33333 1.13397C2.79333 1.13397 1 2.90225 1 5.07859C1 6.06877 1.42133 6.73663 1.95 7.37355C2.06467 7.51215 2.18133 7.64559 2.30133 7.7829L2.36533 7.8551C2.50533 8.01626 2.65 8.18258 2.78533 8.35406C3.05467 8.69637 3.30733 9.08123 3.44867 9.53635C3.48328 9.65807 3.4673 9.78804 3.40413 9.89851C3.34096 10.009 3.23561 10.0912 3.11061 10.1275C2.9856 10.1639 2.85084 10.1516 2.73512 10.0931C2.61941 10.0347 2.53191 9.93482 2.49133 9.81484C2.39933 9.5183 2.22667 9.2411 1.98933 8.94005C1.864 8.78351 1.73463 8.63003 1.60133 8.47977L1.54 8.40886C1.42 8.27219 1.29333 8.12779 1.17 7.97888C0.58 7.26847 0 6.38852 0 5.07794C0 2.33495 2.27667 0.166992 5.33333 0.166992C8.39 0.166992 10.6667 2.33431 10.6667 5.07859C10.6667 6.38852 10.0867 7.26847 9.49667 7.97952C9.37333 8.12779 9.24667 8.27219 9.12667 8.4095L9.06533 8.47977C8.92533 8.63964 8.79533 8.78985 8.67733 8.94005C8.44 9.2411 8.26733 9.51895 8.17533 9.81484C8.13714 9.93769 8.05005 10.0408 7.93321 10.1016C7.81638 10.1623 7.67937 10.1757 7.55233 10.1388C7.42529 10.1018 7.31863 10.0176 7.25581 9.90466C7.19298 9.79168 7.17914 9.6592 7.21733 9.53635C7.35933 9.08123 7.612 8.69637 7.882 8.35406C8.01667 8.18258 8.16133 8.01626 8.302 7.8551L8.36533 7.7829C8.48533 7.64559 8.602 7.51215 8.71667 7.37419C9.24533 6.73599 9.66667 6.06877 9.66667 5.07859C9.66667 2.90225 7.87333 1.13397 5.33333 1.13397ZM3.66667 13.5435C3.66667 13.4153 3.71935 13.2923 3.81311 13.2016C3.90688 13.111 4.03406 13.06 4.16667 13.06H6.5C6.63261 13.06 6.75979 13.111 6.85355 13.2016C6.94732 13.2923 7 13.4153 7 13.5435C7 13.6717 6.94732 13.7947 6.85355 13.8854C6.75979 13.9761 6.63261 14.027 6.5 14.027H4.16667C4.03406 14.027 3.90688 13.9761 3.81311 13.8854C3.71935 13.7947 3.66667 13.6717 3.66667 13.5435ZM3.16667 11.1261C3.03406 11.1261 2.90688 11.177 2.81311 11.2677C2.71935 11.3583 2.66667 11.4813 2.66667 11.6096C2.66667 11.7378 2.71935 11.8608 2.81311 11.9514C2.90688 12.0421 3.03406 12.093 3.16667 12.093H7.5C7.63261 12.093 7.75979 12.0421 7.85355 11.9514C7.94732 11.8608 8 11.7378 8 11.6096C8 11.4813 7.94732 11.3583 7.85355 11.2677C7.75979 11.177 7.63261 11.1261 7.5 11.1261H3.16667Z" fill="#BBBBBB"/>
</svg>
