<svg width="13" height="15" viewBox="0 0 13 15" fill="none" xmlns="http://www.w3.org/2000/svg">
<path d="M11.6071 14.0625H1.39286C0.623594 14.0625 0 13.4329 0 12.6562V2.34375C0 1.56709 0.623594 0.9375 1.39286 0.9375H11.6071C12.3764 0.9375 13 1.56709 13 2.34375V12.6562C13 13.4329 12.3764 14.0625 11.6071 14.0625ZM5.66759 11.1897L11.0069 5.79905C11.1882 5.61601 11.1882 5.3192 11.0069 5.13615L10.3503 4.47325C10.169 4.29021 9.87501 4.29018 9.69368 4.47325L5.33929 8.86948L3.30632 6.81697C3.12502 6.63393 2.83104 6.63393 2.64971 6.81697L1.99312 7.47987C1.81182 7.66292 1.81182 7.95973 1.99312 8.14277L5.01098 11.1896C5.19231 11.3728 5.48626 11.3728 5.66759 11.1897Z" fill="#737373"/>
</svg>
