<svg width="18" height="20" viewBox="0 0 18 20" fill="none" xmlns="http://www.w3.org/2000/svg">
<path d="M8.22825 0.978332C8.15624 0.888611 8.06762 0.814735 7.96762 0.761059C7.86762 0.707384 7.75827 0.674996 7.646 0.665803C7.53373 0.65661 7.42082 0.6708 7.31393 0.707534C7.20703 0.744269 7.10832 0.802806 7.0236 0.879695C6.93888 0.956583 6.86988 1.05027 6.82065 1.15522C6.77143 1.26018 6.74298 1.37429 6.73698 1.49082C6.73098 1.60735 6.74756 1.72394 6.78573 1.83373C6.82391 1.94352 6.88291 2.04427 6.95925 2.13006L7.73213 3.04632C6.32254 3.18787 4.98295 3.7505 3.87606 4.66588C2.76918 5.58125 1.94262 6.80998 1.4968 8.20282C1.05097 9.59566 1.00506 11.0927 1.36463 12.512C1.72421 13.9314 2.4738 15.212 3.52236 16.1984C4.57092 17.1847 5.87333 17.8344 7.2714 18.0684C8.66947 18.3024 10.103 18.1107 11.398 17.5166C12.6929 16.9225 13.7935 15.9516 14.5661 14.7217C15.3386 13.4918 15.7499 12.056 15.75 10.5885V10.2971C15.75 10.0652 15.6611 9.84284 15.5029 9.67888C15.3446 9.51492 15.13 9.42281 14.9062 9.42281C14.6825 9.42281 14.4679 9.51492 14.3096 9.67888C14.1514 9.84284 14.0625 10.0652 14.0625 10.2971V10.5885C14.0624 11.7067 13.7519 12.8012 13.168 13.7416C12.5841 14.6819 11.7515 15.4284 10.7695 15.892C9.78751 16.3556 8.69754 16.5167 7.62962 16.3561C6.56169 16.1955 5.56089 15.72 4.74657 14.9863C3.93225 14.2526 3.3388 13.2916 3.03698 12.2181C2.73517 11.1445 2.73774 10.0037 3.04439 8.9316C3.35104 7.85953 3.94882 6.90148 4.76644 6.17172C5.58405 5.44197 6.58699 4.97131 7.65563 4.81588L6.95813 5.64121C6.88514 5.7277 6.82932 5.82824 6.79383 5.93709C6.75835 6.04594 6.7439 6.16097 6.75132 6.2756C6.75874 6.39023 6.78787 6.50223 6.83706 6.6052C6.88625 6.70817 6.95453 6.80008 7.038 6.87571C7.20658 7.02844 7.4268 7.10552 7.65023 7.09C7.76086 7.08231 7.86895 7.05212 7.96832 7.00115C8.06769 6.95019 8.15639 6.87944 8.22938 6.79294L10.1981 4.4615C10.3328 4.30211 10.407 4.09748 10.407 3.88564C10.407 3.6738 10.3328 3.46917 10.1981 3.30977L8.22938 0.978332H8.22825ZM12.1556 7.96099C12.3061 8.13247 12.3846 8.35882 12.3741 8.59031C12.3635 8.82179 12.2647 9.03946 12.0994 9.19549L9.00563 12.1098C8.84512 12.2609 8.63462 12.3422 8.41781 12.3368C8.20099 12.3314 7.99452 12.2396 7.84125 12.0806L6.435 10.6235C6.28596 10.4578 6.20482 10.2386 6.20868 10.0121C6.21254 9.78555 6.30109 9.56944 6.45568 9.40926C6.61027 9.24907 6.81882 9.15732 7.03741 9.15332C7.256 9.14932 7.46755 9.2334 7.6275 9.38783L8.46563 10.2551L10.9631 7.90154C11.0451 7.82418 11.141 7.76432 11.2453 7.72538C11.3496 7.68644 11.4603 7.66918 11.571 7.67459C11.6818 7.68001 11.7904 7.70798 11.8907 7.75693C11.991 7.80587 12.081 7.87482 12.1556 7.95983V7.96099Z" fill="#52525B"/>
</svg>
