<svg width="25" height="17" viewBox="0 0 25 17" fill="none" xmlns="http://www.w3.org/2000/svg">
<path fill-rule="evenodd" clip-rule="evenodd" d="M0.687946 8.50003C0.687946 8.72381 0.77684 8.93842 0.935076 9.09665C1.09331 9.25489 1.30792 9.34378 1.5317 9.34378L21.4324 9.34378L16.1218 14.6527C16.0434 14.7311 15.9811 14.8242 15.9387 14.9267C15.8962 15.0292 15.8744 15.1391 15.8744 15.25C15.8744 15.361 15.8962 15.4708 15.9387 15.5733C15.9811 15.6758 16.0434 15.769 16.1218 15.8474C16.2003 15.9259 16.2934 15.9881 16.3959 16.0305C16.4984 16.073 16.6083 16.0948 16.7192 16.0948C16.8301 16.0948 16.94 16.073 17.0425 16.0305C17.145 15.9881 17.2381 15.9259 17.3166 15.8474L24.0666 9.09741C24.1451 9.01903 24.2075 8.92592 24.25 8.82341C24.2926 8.72091 24.3145 8.61102 24.3145 8.50003C24.3145 8.38905 24.2926 8.27916 24.25 8.17665C24.2075 8.07414 24.1451 7.98104 24.0666 7.90266L17.3166 1.15266C17.2381 1.07421 17.145 1.01198 17.0425 0.969525C16.94 0.927069 16.8301 0.905218 16.7192 0.905218C16.6083 0.905218 16.4984 0.927069 16.3959 0.969525C16.2934 1.01198 16.2003 1.07421 16.1218 1.15266C16.0434 1.23111 15.9811 1.32424 15.9387 1.42674C15.8962 1.52923 15.8744 1.63909 15.8744 1.75003C15.8744 1.86098 15.8962 1.97083 15.9387 2.07333C15.9811 2.17583 16.0434 2.26896 16.1218 2.34741L21.4324 7.65628L1.5317 7.65628C1.30792 7.65628 1.09331 7.74518 0.935076 7.90341C0.77684 8.06165 0.687946 8.27626 0.687946 8.50003Z" fill="white"/>
</svg>
