<svg width="20" height="22" viewBox="0 0 20 22" fill="none" xmlns="http://www.w3.org/2000/svg">
<path d="M15.8234 2.28418L18.3234 4.87467L16.4176 6.85035L13.9176 4.25986L15.8234 2.28418ZM6.66675 14.3628H9.16675L15.2392 8.07047L12.7392 5.47998L6.66675 11.7723V14.3628Z" fill="#52525B"/>
<path d="M15.8333 16.9536H6.79833C6.77667 16.9536 6.75417 16.9623 6.7325 16.9623C6.705 16.9623 6.6775 16.9545 6.64917 16.9536H4.16667V4.86469H9.8725L11.5392 3.1377H4.16667C3.2475 3.1377 2.5 3.91139 2.5 4.86469V16.9536C2.5 17.9069 3.2475 18.6806 4.16667 18.6806H15.8333C16.2754 18.6806 16.6993 18.4987 17.0118 18.1748C17.3244 17.8509 17.5 17.4117 17.5 16.9536V9.46885L15.8333 11.1958V16.9536Z" fill="#52525B"/>
</svg>
