<svg width="20" height="22" viewBox="0 0 20 22" fill="none" xmlns="http://www.w3.org/2000/svg">
<path d="M16.25 15.0677C15.8086 15.0699 15.3762 15.1976 15 15.4368L13.0688 13.4292C13.5181 12.7724 13.7595 11.9871 13.7595 11.1819C13.7595 10.3768 13.5181 9.59153 13.0688 8.9347L15 6.92707C15.3762 7.16629 15.8086 7.29398 16.25 7.29621C16.7445 7.29621 17.2278 7.14428 17.6389 6.85964C18.05 6.57499 18.3705 6.17041 18.5597 5.69706C18.7489 5.22371 18.7984 4.70285 18.702 4.20034C18.6055 3.69784 18.3674 3.23626 18.0178 2.87397C17.6681 2.51169 17.2227 2.26497 16.7377 2.16501C16.2528 2.06506 15.7501 2.11636 15.2933 2.31242C14.8365 2.50849 14.446 2.84052 14.1713 3.26653C13.8966 3.69253 13.75 4.19337 13.75 4.70572C13.7522 5.16311 13.8754 5.61112 14.1062 6.00097L12.1687 8.00212C11.5349 7.53648 10.777 7.28637 10 7.28637C9.22298 7.28637 8.46514 7.53648 7.83125 8.00212L5.89375 6.00097C6.12462 5.61112 6.24784 5.16311 6.25 4.70572C6.25 4.19337 6.10338 3.69253 5.82867 3.26653C5.55397 2.84052 5.16352 2.50849 4.70671 2.31242C4.24989 2.11636 3.74723 2.06506 3.26228 2.16501C2.77732 2.26497 2.33187 2.51169 1.98223 2.87397C1.6326 3.23626 1.3945 3.69784 1.29804 4.20034C1.20157 4.70285 1.25108 5.22371 1.4403 5.69706C1.62952 6.17041 1.94995 6.57499 2.36108 6.85964C2.7722 7.14428 3.25555 7.29621 3.75 7.29621C4.19141 7.29398 4.62377 7.16629 5 6.92707L6.93125 8.9347C6.48187 9.59153 6.2405 10.3768 6.2405 11.1819C6.2405 11.9871 6.48187 12.7724 6.93125 13.4292L5 15.4368C4.62377 15.1976 4.19141 15.0699 3.75 15.0677C3.25555 15.0677 2.7722 15.2196 2.36108 15.5043C1.94995 15.7889 1.62952 16.1935 1.4403 16.6668C1.25108 17.1402 1.20157 17.661 1.29804 18.1635C1.3945 18.666 1.6326 19.1276 1.98223 19.4899C2.33187 19.8522 2.77732 20.0989 3.26228 20.1989C3.74723 20.2988 4.24989 20.2475 4.70671 20.0515C5.16352 19.8554 5.55397 19.5234 5.82867 19.0974C6.10338 18.6714 6.25 18.1705 6.25 17.6582C6.24784 17.2008 6.12462 16.7528 5.89375 16.3629L7.83125 14.3618C8.46514 14.8274 9.22298 15.0775 10 15.0775C10.777 15.0775 11.5349 14.8274 12.1687 14.3618L14.1062 16.3629C13.8754 16.7528 13.7522 17.2008 13.75 17.6582C13.75 18.1705 13.8966 18.6714 14.1713 19.0974C14.446 19.5234 14.8365 19.8554 15.2933 20.0515C15.7501 20.2475 16.2528 20.2988 16.7377 20.1989C17.2227 20.0989 17.6681 19.8522 18.0178 19.4899C18.3674 19.1276 18.6055 18.666 18.702 18.1635C18.7984 17.661 18.7489 17.1402 18.5597 16.6668C18.3705 16.1935 18.05 15.7889 17.6389 15.5043C17.2278 15.2196 16.7445 15.0677 16.25 15.0677ZM10 13.7724C9.50555 13.7724 9.0222 13.6205 8.61108 13.3359C8.19995 13.0512 7.87952 12.6466 7.6903 12.1733C7.50108 11.6999 7.45157 11.1791 7.54804 10.6766C7.6445 10.1741 7.8826 9.71248 8.23223 9.35019C8.58186 8.98791 9.02732 8.74119 9.51227 8.64123C9.99723 8.54128 10.4999 8.59258 10.9567 8.78865C11.4135 8.98471 11.804 9.31674 12.0787 9.74275C12.3534 10.1687 12.5 10.6696 12.5 11.1819C12.5 11.869 12.2366 12.5279 11.7678 13.0137C11.2989 13.4995 10.663 13.7724 10 13.7724Z" fill="#525252"/>
</svg>
