<svg width="18" height="17" viewBox="0 0 18 17" fill="none" xmlns="http://www.w3.org/2000/svg">
<path d="M17 15.1667C17 15.3877 16.9122 15.5996 16.7559 15.7559C16.5996 15.9122 16.3877 16 16.1667 16H11.1667L9.08333 13.5L2 13.5C1.77899 13.5 1.56702 13.4122 1.41074 13.2559C1.25446 13.0996 1.16667 12.8877 1.16667 12.6667L1.16667 1.83333C1.16667 1.61232 1.25446 1.40036 1.41074 1.24408C1.56702 1.0878 1.77899 1 2 1L16.1667 1C16.3877 1 16.5996 1.0878 16.7559 1.24408C16.9122 1.40036 17 1.61232 17 1.83333V15.1667Z" stroke="#D4D4D4" stroke-width="1.5" stroke-linejoin="round"/>
<path d="M8.66634 4.33342C7.05551 4.33342 5.74967 5.63925 5.74967 7.25008C5.74967 8.86091 7.05551 10.1667 8.66634 10.1667C10.2772 10.1667 11.583 8.86091 11.583 7.25008C11.583 5.63925 10.2772 4.33342 8.66634 4.33342Z" fill="#D4D4D4" stroke="#D4D4D4"/>
<path d="M7.42799 8.28006L9.90733 6.34112" stroke="white" stroke-linecap="round" stroke-linejoin="round"/>
</svg>
