<svg width="16" height="16" viewBox="0 0 16 16" fill="none" xmlns="http://www.w3.org/2000/svg">
<path fill-rule="evenodd" clip-rule="evenodd" d="M8.00033 0.66626C3.95033 0.66626 0.666992 3.94959 0.666992 7.99959C0.666992 12.0496 3.95033 15.3329 8.00033 15.3329C12.0503 15.3329 15.3337 12.0496 15.3337 7.99959C15.3337 3.94959 12.0503 0.66626 8.00033 0.66626ZM11.179 6.75959C11.2375 6.69269 11.2821 6.61475 11.3101 6.53037C11.338 6.44599 11.3488 6.35687 11.3418 6.26825C11.3349 6.17963 11.3102 6.0933 11.2694 6.01435C11.2285 5.93539 11.1723 5.8654 11.104 5.80849C11.0357 5.75158 10.9568 5.7089 10.8717 5.68297C10.7867 5.65703 10.6973 5.64837 10.6089 5.65748C10.5205 5.66659 10.4348 5.69329 10.3568 5.73602C10.2789 5.77874 10.2102 5.83662 10.155 5.90626L7.28833 9.34559L5.80499 7.86159C5.67926 7.74015 5.51086 7.67296 5.33606 7.67448C5.16126 7.676 4.99405 7.74611 4.87045 7.86971C4.74684 7.99332 4.67673 8.16053 4.67521 8.33533C4.67369 8.51012 4.74089 8.67852 4.86233 8.80426L6.86233 10.8043C6.92783 10.8697 7.00626 10.9208 7.0926 10.9543C7.17895 10.9878 7.27132 11.0029 7.36384 10.9987C7.45635 10.9945 7.54698 10.9711 7.62993 10.9299C7.71289 10.8887 7.78636 10.8307 7.84566 10.7596L11.179 6.75959Z" fill="white"/>
</svg>
