<svg width="45" height="45" viewBox="0 0 45 45" fill="none" xmlns="http://www.w3.org/2000/svg">
<mask id="path-1-inside-1_1324_869" fill="white">
<path d="M19.1606 14.7424C19.0422 14.8605 18.9483 15.0008 18.8842 15.1553C18.8201 15.3098 18.7871 15.4755 18.7871 15.6427C18.7871 15.81 18.8201 15.9756 18.8842 16.1301C18.9483 16.2846 19.0422 16.4249 19.1606 16.5431L24.1158 21.4983L19.1606 26.4535C18.9218 26.6923 18.7877 27.0162 18.7877 27.3539C18.7877 27.6916 18.9218 28.0155 19.1606 28.2542C19.3994 28.493 19.7233 28.6272 20.061 28.6272C20.3987 28.6272 20.7225 28.493 20.9613 28.2542L26.8233 22.3923C26.9417 22.2741 27.0356 22.1338 27.0997 21.9793C27.1638 21.8248 27.1968 21.6592 27.1968 21.4919C27.1968 21.3247 27.1638 21.159 27.0997 21.0045C27.0356 20.85 26.9417 20.7097 26.8233 20.5915L20.9613 14.7296C20.476 14.2443 19.6587 14.2443 19.1606 14.7424Z"/>
</mask>
<path d="M19.1606 14.7424L21.2797 16.8659L21.2819 16.8637L19.1606 14.7424ZM18.7871 15.6427H21.7871H18.7871ZM19.1606 16.5431L21.2819 14.4218L21.2797 14.4196L19.1606 16.5431ZM24.1158 21.4983L26.2371 23.6196L28.3584 21.4983L26.2371 19.377L24.1158 21.4983ZM19.1606 26.4535L21.2819 28.5748H21.2819L19.1606 26.4535ZM20.061 28.6272V31.6272V28.6272ZM20.9613 28.2542L23.0826 30.3756L20.9613 28.2542ZM26.8233 22.3923L24.7041 20.2688L24.702 20.271L26.8233 22.3923ZM26.8233 20.5915L24.702 22.7129L24.7041 22.715L26.8233 20.5915ZM20.9613 14.7296L18.84 16.8509L20.9613 14.7296ZM17.0415 12.6189C16.6438 13.0157 16.3284 13.487 16.1131 14.0059L21.6552 16.3048C21.5682 16.5147 21.4406 16.7053 21.2797 16.8659L17.0415 12.6189ZM16.1131 14.0059C15.8979 14.5247 15.7871 15.081 15.7871 15.6427H21.7871C21.7871 15.8699 21.7423 16.0949 21.6552 16.3048L16.1131 14.0059ZM15.7871 15.6427C15.7871 16.2045 15.8979 16.7607 16.1131 17.2796L21.6552 14.9806C21.7423 15.1905 21.7871 15.4155 21.7871 15.6427H15.7871ZM16.1131 17.2796C16.3284 17.7984 16.6438 18.2698 17.0415 18.6666L21.2797 14.4196C21.4406 14.5801 21.5682 14.7708 21.6552 14.9806L16.1131 17.2796ZM17.0393 18.6644L21.9945 23.6196L26.2371 19.377L21.2819 14.4218L17.0393 18.6644ZM21.9945 19.377L17.0393 24.3322L21.2819 28.5748L26.2371 23.6196L21.9945 19.377ZM17.0393 24.3322C16.2379 25.1336 15.7877 26.2205 15.7877 27.3539H21.7877C21.7877 27.8118 21.6057 28.251 21.2819 28.5748L17.0393 24.3322ZM15.7877 27.3539C15.7877 28.4872 16.2379 29.5742 17.0393 30.3756L21.2819 26.1329C21.6057 26.4567 21.7877 26.8959 21.7877 27.3539H15.7877ZM17.0393 30.3756C17.8407 31.177 18.9276 31.6272 20.061 31.6272V25.6272C20.5189 25.6272 20.9581 25.8091 21.2819 26.1329L17.0393 30.3756ZM20.061 31.6272C21.1943 31.6272 22.2812 31.177 23.0826 30.3756L18.84 26.1329C19.1638 25.8091 19.603 25.6272 20.061 25.6272V31.6272ZM23.0826 30.3756L28.9446 24.5136L24.702 20.271L18.84 26.1329L23.0826 30.3756ZM28.9424 24.5158C29.3401 24.119 29.6555 23.6476 29.8708 23.1288L24.3287 20.8298C24.4157 20.6199 24.5433 20.4293 24.7041 20.2688L28.9424 24.5158ZM29.8708 23.1288C30.086 22.6099 30.1968 22.0536 30.1968 21.4919H24.1968C24.1968 21.2647 24.2416 21.0397 24.3287 20.8298L29.8708 23.1288ZM30.1968 21.4919C30.1968 20.9302 30.086 20.374 29.8708 19.8551L24.3287 22.154C24.2416 21.9441 24.1968 21.7191 24.1968 21.4919H30.1968ZM29.8708 19.8551C29.6555 19.3362 29.3401 18.8649 28.9424 18.4681L24.7041 22.715C24.5433 22.5545 24.4157 22.3639 24.3287 22.154L29.8708 19.8551ZM28.9446 18.4702L23.0826 12.6083L18.84 16.8509L24.702 22.7129L28.9446 18.4702ZM23.0826 12.6083C21.4063 10.9319 18.6894 10.9709 17.0393 12.621L21.2819 16.8637C20.628 17.5176 19.5457 17.5566 18.84 16.8509L23.0826 12.6083Z" fill="#6B7280" mask="url(#path-1-inside-1_1324_869)"/>
<circle cx="22.5" cy="22.5" r="22.25" stroke="#A1A1AA" stroke-width="0.5"/>
</svg>
