<svg width="20" height="22" viewBox="0 0 20 22" fill="none" xmlns="http://www.w3.org/2000/svg">
<path d="M2.4999 11.6002H3.33324V17.6447C3.33324 18.5971 4.08074 19.3717 4.9999 19.3717H14.9999C15.9191 19.3717 16.6666 18.5971 16.6666 17.6447V11.6002H17.4999C17.6647 11.6002 17.8258 11.5495 17.9628 11.4546C18.0998 11.3597 18.2066 11.2249 18.2696 11.0671C18.3327 10.9094 18.3492 10.7358 18.3171 10.5683C18.2849 10.4008 18.2056 10.247 18.0891 10.1262L10.5891 2.35474C10.5117 2.27448 10.4199 2.21081 10.3188 2.16737C10.2177 2.12392 10.1093 2.10156 9.9999 2.10156C9.89046 2.10156 9.78209 2.12392 9.68099 2.16737C9.5799 2.21081 9.48806 2.27448 9.41074 2.35474L1.91074 10.1262C1.79423 10.247 1.71489 10.4008 1.68275 10.5683C1.65061 10.7358 1.66711 10.9094 1.73017 11.0671C1.79323 11.2249 1.90001 11.3597 2.03702 11.4546C2.17403 11.5495 2.33511 11.6002 2.4999 11.6002ZM9.9999 4.18622L14.9999 9.36719V13.3272L15.0007 17.6447H4.9999V9.36719L9.9999 4.18622Z" fill="#52525B"/>
<path d="M10 15.9183C13.0858 15.9183 14.0842 12.8623 14.125 12.7328L12.5417 12.1966C12.535 12.2164 11.8908 14.1913 10 14.1913C8.135 14.1913 7.48333 12.2734 7.4575 12.1914L5.875 12.7328C5.91583 12.8623 6.91417 15.9183 10 15.9183Z" fill="#52525B"/>
</svg>
