<svg width="17" height="14" viewBox="0 0 17 14" fill="none" xmlns="http://www.w3.org/2000/svg">
<path d="M3.85439 3.5C3.72438 3.5 3.59969 3.55369 3.50776 3.64926C3.41582 3.74483 3.36418 3.87445 3.36418 4.0096V4.0404C3.36418 4.3218 3.58369 4.55 3.85439 4.55H7.58758C7.71759 4.55 7.84228 4.49631 7.93421 4.40074C8.02614 4.30517 8.07779 4.17555 8.07779 4.0404V4.0096C8.07779 3.87445 8.02614 3.74483 7.93421 3.64926C7.84228 3.55369 7.71759 3.5 7.58758 3.5H3.85439ZM3.85439 6.3C3.72438 6.3 3.59969 6.35369 3.50776 6.44926C3.41582 6.54483 3.36418 6.67445 3.36418 6.8096V6.8404C3.36418 7.1218 3.58369 7.35 3.85439 7.35H10.9544C11.0845 7.35 11.2091 7.29631 11.3011 7.20074C11.393 7.10517 11.4447 6.97555 11.4447 6.8404V6.8096C11.4447 6.67445 11.393 6.54483 11.3011 6.44926C11.2091 6.35369 11.0845 6.3 10.9544 6.3H3.85439ZM3.36418 9.6096C3.36418 9.3282 3.58369 9.1 3.85439 9.1H8.93432C9.20502 9.1 9.42454 9.3282 9.42454 9.6096V9.6404C9.42454 9.77555 9.37289 9.90517 9.28096 10.0007C9.18902 10.0963 9.06434 10.15 8.93432 10.15H3.85439C3.79001 10.15 3.72627 10.1368 3.66679 10.1112C3.60732 10.0856 3.55328 10.0481 3.50776 10.0007C3.46224 9.95342 3.42613 9.89724 3.40149 9.83542C3.37685 9.77359 3.36418 9.70732 3.36418 9.6404V9.6096ZM2.52515 0C1.85544 0 1.21316 0.276562 0.7396 0.768845C0.266042 1.26113 0 1.92881 0 2.625V11.375C0 12.0712 0.266042 12.7389 0.7396 13.2312C1.21316 13.7234 1.85544 14 2.52515 14H13.6331C14.3028 14 14.9451 13.7234 15.4187 13.2312C15.8922 12.7389 16.1583 12.0712 16.1583 11.375V2.625C16.1583 1.92881 15.8922 1.26113 15.4187 0.768845C14.9451 0.276562 14.3028 0 13.6331 0H2.52515ZM1.01006 2.625C1.01006 2.20728 1.16969 1.80668 1.45382 1.51131C1.73795 1.21594 2.12332 1.05 2.52515 1.05H13.6331C14.035 1.05 14.4203 1.21594 14.7045 1.51131C14.9886 1.80668 15.1482 2.20728 15.1482 2.625V11.375C15.1482 11.7927 14.9886 12.1933 14.7045 12.4887C14.4203 12.7841 14.035 12.95 13.6331 12.95H2.52582C2.124 12.95 1.73863 12.7841 1.45449 12.4887C1.17036 12.1933 1.01073 11.7927 1.01073 11.375L1.01006 2.625Z" fill="#FBBF24"/>
</svg>
