<svg width="17" height="15" viewBox="0 0 17 15" fill="none" xmlns="http://www.w3.org/2000/svg">
<path d="M0 3.20689C0 2.51747 0.26607 1.85628 0.739679 1.36879C1.21329 0.881294 1.85564 0.607422 2.52542 0.607422H13.6346C14.3044 0.607422 14.9467 0.881294 15.4203 1.36879C15.8939 1.85628 16.16 2.51747 16.16 3.20689V11.8718C16.16 12.5612 15.8939 13.2224 15.4203 13.7099C14.9467 14.1974 14.3044 14.4713 13.6346 14.4713H2.52609C1.85631 14.4713 1.21396 14.1974 0.740352 13.7099C0.266744 13.2224 0.000673557 12.5612 0.000673557 11.8718V3.20689H0ZM3.8548 4.07338C3.72478 4.07338 3.60007 4.12655 3.50813 4.22119C3.41619 4.31583 3.36453 4.44418 3.36453 4.57802V4.60852C3.36453 4.88719 3.58408 5.11317 3.8548 5.11317H7.58839C7.71841 5.11317 7.84311 5.06 7.93506 4.96536C8.027 4.87072 8.07865 4.74236 8.07865 4.60852V4.57802C8.07865 4.44418 8.027 4.31583 7.93506 4.22119C7.84311 4.12655 7.71841 4.07338 7.58839 4.07338H3.8548ZM3.36453 7.35079V7.38129C3.36453 7.65995 3.58408 7.88593 3.8548 7.88593H10.9556C11.0856 7.88593 11.2103 7.83277 11.3023 7.73813C11.3942 7.64349 11.4459 7.51513 11.4459 7.38129V7.35079C11.4459 7.21695 11.3942 7.08859 11.3023 6.99395C11.2103 6.89931 11.0856 6.84615 10.9556 6.84615H3.8548C3.72478 6.84615 3.60007 6.89931 3.50813 6.99395C3.41619 7.08859 3.36453 7.21695 3.36453 7.35079ZM3.8548 9.61891C3.79042 9.61891 3.72667 9.63196 3.66719 9.65733C3.6077 9.68269 3.55366 9.71986 3.50813 9.76672C3.4626 9.81358 3.42649 9.86921 3.40185 9.93044C3.37722 9.99166 3.36453 10.0573 3.36453 10.1236V10.1541C3.36453 10.4327 3.58408 10.6587 3.8548 10.6587H8.93528C9.0653 10.6587 9.19001 10.6055 9.28195 10.5109C9.37389 10.4163 9.42554 10.2879 9.42554 10.1541V10.1236C9.42554 10.0573 9.41286 9.99166 9.38822 9.93044C9.36359 9.86921 9.32747 9.81358 9.28195 9.76672C9.23642 9.71986 9.18238 9.68269 9.12289 9.65733C9.06341 9.63196 8.99966 9.61891 8.93528 9.61891H3.8548Z" fill="#0D9488"/>
</svg>
