<svg width="14" height="14" viewBox="0 0 14 14" fill="none" xmlns="http://www.w3.org/2000/svg">
<path d="M6.99984 12.8337C3.77809 12.8337 1.1665 10.2221 1.1665 7.00033C1.1665 3.77858 3.77809 1.16699 6.99984 1.16699C7.90555 1.16631 8.79895 1.37686 9.60905 1.78191C10.4191 2.18696 11.1236 2.77535 11.6665 3.50033H10.0857C9.41206 2.90635 8.58136 2.51937 7.69325 2.38581C6.80515 2.25225 5.89738 2.37779 5.07885 2.74737C4.26033 3.11694 3.56584 3.71485 3.07871 4.46935C2.59158 5.22385 2.33251 6.10288 2.33259 7.00097C2.33266 7.89906 2.59188 8.77805 3.07913 9.53247C3.56639 10.2869 4.26098 10.8847 5.07956 11.2541C5.89815 11.6236 6.80594 11.7489 7.69402 11.6152C8.5821 11.4815 9.41274 11.0944 10.0863 10.5003H11.6671C11.1241 11.2254 10.4196 11.8138 9.60937 12.2189C8.79916 12.6239 7.90565 12.8344 6.99984 12.8337ZM11.0832 9.33366V7.58366H6.4165V6.41699H11.0832V4.66699L13.9998 7.00033L11.0832 9.33366Z" fill="#F9FAFB"/>
</svg>
