<svg width="20" height="22" viewBox="0 0 20 22" fill="none" xmlns="http://www.w3.org/2000/svg">
<path d="M15.8333 12.7063V5.79828C15.8333 4.84844 15.0833 4.07129 14.1666 4.07129H2.49992C1.58325 4.07129 0.833252 4.84844 0.833252 5.79828V12.7063C0.833252 13.6561 1.58325 14.4332 2.49992 14.4332H14.1666C15.0833 14.4332 15.8333 13.6561 15.8333 12.7063ZM14.1666 12.7063H2.49992V5.79828H14.1666V12.7063ZM8.33325 6.66178C6.94992 6.66178 5.83325 7.81886 5.83325 9.25227C5.83325 10.6857 6.94992 11.8428 8.33325 11.8428C9.71658 11.8428 10.8333 10.6857 10.8333 9.25227C10.8333 7.81886 9.71658 6.66178 8.33325 6.66178ZM19.1666 6.66178V16.1602C19.1666 17.1101 18.4166 17.8872 17.4999 17.8872H3.33325V16.1602H17.4999V6.66178H19.1666Z" fill="#52525B"/>
</svg>
