<svg width="14" height="14" viewBox="0 0 14 14" fill="none" xmlns="http://www.w3.org/2000/svg">
<path d="M4.7445 6.37793H9.41116C9.53493 6.37793 9.65363 6.4271 9.74115 6.51461C9.82867 6.60213 9.87783 6.72083 9.87783 6.8446C9.87783 6.96836 9.82867 7.08706 9.74115 7.17458C9.65363 7.2621 9.53493 7.31126 9.41116 7.31126H4.7445C4.62073 7.31126 4.50203 7.2621 4.41452 7.17458C4.327 7.08706 4.27783 6.96836 4.27783 6.8446C4.27783 6.72083 4.327 6.60213 4.41452 6.51461C4.50203 6.4271 4.62073 6.37793 4.7445 6.37793Z" fill="#EC1C24"/>
<path d="M7 13C7.78793 13 8.56815 12.8448 9.2961 12.5433C10.0241 12.2417 10.6855 11.7998 11.2426 11.2426C11.7998 10.6855 12.2417 10.0241 12.5433 9.2961C12.8448 8.56815 13 7.78793 13 7C13 6.21207 12.8448 5.43185 12.5433 4.7039C12.2417 3.97595 11.7998 3.31451 11.2426 2.75736C10.6855 2.20021 10.0241 1.75825 9.2961 1.45672C8.56815 1.15519 7.78793 1 7 1C5.4087 1 3.88258 1.63214 2.75736 2.75736C1.63214 3.88258 1 5.4087 1 7C1 8.5913 1.63214 10.1174 2.75736 11.2426C3.88258 12.3679 5.4087 13 7 13ZM7 14C5.14348 14 3.36301 13.2625 2.05025 11.9497C0.737498 10.637 0 8.85652 0 7C0 5.14348 0.737498 3.36301 2.05025 2.05025C3.36301 0.737498 5.14348 0 7 0C8.85652 0 10.637 0.737498 11.9497 2.05025C13.2625 3.36301 14 5.14348 14 7C14 8.85652 13.2625 10.637 11.9497 11.9497C10.637 13.2625 8.85652 14 7 14Z" fill="#EC1C24"/>
</svg>
