<svg width="15" height="16" viewBox="0 0 15 16" fill="none" xmlns="http://www.w3.org/2000/svg">
<path d="M3.75 1.98444H4.15V1.58444V0.4H10.85V1.58444V1.98444H11.25H14.6V2.76888H13.5H13.1V3.16888V15.0522C13.1 15.163 13.0581 15.2653 12.9899 15.3373C12.9223 15.4087 12.8355 15.4444 12.75 15.4444H2.25C2.16446 15.4444 2.07769 15.4087 2.01015 15.3373C1.9419 15.2653 1.9 15.163 1.9 15.0522V3.16888V2.76888H1.5H0.4V1.98444H3.75ZM3 2.76888H2.6V3.16888V14.2599V14.6599H3H12H12.4V14.2599V3.16888V2.76888H12H3ZM5.65 5.94553H6.35V11.4833H5.65V5.94553ZM8.65 5.94553H9.35V11.4833H8.65V5.94553Z" stroke="#FF8282" stroke-width="0.8"/>
</svg>
