<svg width="10" height="10" viewBox="0 0 10 10" fill="none" xmlns="http://www.w3.org/2000/svg">
<path d="M2.36677 1.4H2.76677V1V0.4H6.70031V1V1.4H7.10031H9.06708V1.6H8.52037H8.12037V2V9.5C8.12037 9.53338 8.10762 9.56127 8.09125 9.57856C8.0756 9.5951 8.05919 9.6 8.04702 9.6H1.42006C1.4079 9.6 1.39149 9.5951 1.37583 9.57856C1.35946 9.56127 1.34671 9.53337 1.34671 9.5V2V1.6H0.946708H0.4V1.4H2.36677ZM1.89342 1.6H1.49342V2V9V9.4H1.89342H7.57366H7.97366V9V2V1.6H7.57366H1.89342ZM3.71348 3.9H3.86019V7.1H3.71348V3.9ZM5.60689 3.9H5.7536V7.1H5.60689V3.9Z" stroke="#FF8282" stroke-width="0.8"/>
</svg>
