<svg width="90" height="90" viewBox="0 0 90 90" fill="none" xmlns="http://www.w3.org/2000/svg">
<g opacity="0.7">
<path d="M41.4 64.8C28.44 64.8 18 54.36 18 41.4C18 28.44 28.44 18 41.4 18C54.36 18 64.8 28.44 64.8 41.4C64.8 54.36 54.36 64.8 41.4 64.8ZM41.4 21.6C30.42 21.6 21.6 30.42 21.6 41.4C21.6 52.38 30.42 61.2 41.4 61.2C52.38 61.2 61.2 52.38 61.2 41.4C61.2 30.42 52.38 21.6 41.4 21.6Z" fill="#CACACA"/>
<path d="M58.8274 56.2806L74.9914 72.4446L72.4462 74.9898L56.2822 58.8258L58.8274 56.2806Z" fill="#CACACA"/>
</g>
</svg>
