<svg width="13" height="13" viewBox="0 0 13 13" fill="none" xmlns="http://www.w3.org/2000/svg">
<mask id="path-1-inside-1_375_878" fill="white">
<path d="M5.2 10.4C2.32 10.4 0 8.08 0 5.2C0 2.32 2.32 0 5.2 0C8.08 0 10.4 2.32 10.4 5.2C10.4 8.08 8.08 10.4 5.2 10.4ZM5.2 0.8C2.76 0.8 0.8 2.76 0.8 5.2C0.8 7.64 2.76 9.6 5.2 9.6C7.64 9.6 9.6 7.64 9.6 5.2C9.6 2.76 7.64 0.8 5.2 0.8Z"/>
</mask>
<path d="M5.2 10.4C2.32 10.4 0 8.08 0 5.2C0 2.32 2.32 0 5.2 0C8.08 0 10.4 2.32 10.4 5.2C10.4 8.08 8.08 10.4 5.2 10.4ZM5.2 0.8C2.76 0.8 0.8 2.76 0.8 5.2C0.8 7.64 2.76 9.6 5.2 9.6C7.64 9.6 9.6 7.64 9.6 5.2C9.6 2.76 7.64 0.8 5.2 0.8Z" fill="white"/>
<path d="M5.2 9.4C2.87229 9.4 1 7.52772 1 5.2H-1C-1 8.63229 1.76772 11.4 5.2 11.4V9.4ZM1 5.2C1 2.87229 2.87229 1 5.2 1V-1C1.76772 -1 -1 1.76772 -1 5.2H1ZM5.2 1C7.52772 1 9.4 2.87229 9.4 5.2H11.4C11.4 1.76772 8.63229 -1 5.2 -1V1ZM9.4 5.2C9.4 7.52772 7.52772 9.4 5.2 9.4V11.4C8.63229 11.4 11.4 8.63229 11.4 5.2H9.4ZM5.2 -0.2C2.20772 -0.2 -0.2 2.20772 -0.2 5.2H1.8C1.8 3.31229 3.31229 1.8 5.2 1.8V-0.2ZM-0.2 5.2C-0.2 8.19229 2.20772 10.6 5.2 10.6V8.6C3.31229 8.6 1.8 7.08772 1.8 5.2H-0.2ZM5.2 10.6C8.19229 10.6 10.6 8.19229 10.6 5.2H8.6C8.6 7.08772 7.08772 8.6 5.2 8.6V10.6ZM10.6 5.2C10.6 2.20772 8.19229 -0.2 5.2 -0.2V1.8C7.08772 1.8 8.6 3.31229 8.6 5.2H10.6Z" fill="#A3A3A3" mask="url(#path-1-inside-1_375_878)"/>
<mask id="path-3-inside-2_375_878" fill="white">
<path d="M8.79061 8.79061C8.9468 8.63443 9.20003 8.63443 9.35621 8.79061L12.3826 11.817C12.5388 11.9732 12.5388 12.2264 12.3826 12.3826C12.2264 12.5388 11.9732 12.5388 11.817 12.3826L8.79061 9.35621C8.63443 9.20003 8.63443 8.9468 8.79061 8.79061Z"/>
</mask>
<path d="M8.79061 8.79061C8.9468 8.63443 9.20003 8.63443 9.35621 8.79061L12.3826 11.817C12.5388 11.9732 12.5388 12.2264 12.3826 12.3826C12.2264 12.5388 11.9732 12.5388 11.817 12.3826L8.79061 9.35621C8.63443 9.20003 8.63443 8.9468 8.79061 8.79061Z" fill="white"/>
<path d="M11.817 12.3826L11.1099 13.0897L11.817 12.3826ZM9.35621 8.79061L8.64911 9.49772L9.35621 8.79061ZM8.64911 9.49772L11.6755 12.5241L13.0897 11.1099L10.0633 8.08351L8.64911 9.49772ZM12.5241 11.6755L9.49772 8.64911L8.0835 10.0633L11.1099 13.0897L12.5241 11.6755ZM9.49772 8.64911C9.73206 8.88345 9.73206 9.26338 9.49772 9.49772L8.0835 8.08351C7.5368 8.63022 7.5368 9.51661 8.0835 10.0633L9.49772 8.64911ZM11.6755 11.6755C11.9098 11.4412 12.2898 11.4412 12.5241 11.6755L11.1099 13.0897C11.6566 13.6364 12.543 13.6364 13.0897 13.0897L11.6755 11.6755ZM11.6755 12.5241C11.4412 12.2898 11.4412 11.9099 11.6755 11.6755L13.0897 13.0897C13.6364 12.543 13.6364 11.6566 13.0897 11.1099L11.6755 12.5241ZM10.0633 8.08351C9.51661 7.5368 8.63021 7.5368 8.0835 8.08351L9.49772 9.49772C9.26338 9.73206 8.88344 9.73206 8.64911 9.49772L10.0633 8.08351Z" fill="#A3A3A3" mask="url(#path-3-inside-2_375_878)"/>
</svg>
