<svg width="15" height="15" viewBox="0 0 15 15" fill="none" xmlns="http://www.w3.org/2000/svg">
<path d="M5.38142 13.75C5.07644 13.7482 4.78031 13.6473 4.53767 13.4625L3.24392 12.5C2.94537 12.2672 2.74727 11.929 2.69032 11.5547C2.63336 11.1804 2.72187 10.7986 2.93767 10.4875C3.05185 10.3189 3.12442 10.1256 3.14941 9.92354C3.1744 9.72146 3.1511 9.51633 3.08142 9.325L3.04392 9.225C2.99541 9.05182 2.90674 8.89252 2.78512 8.76003C2.66349 8.62755 2.51234 8.52561 2.34392 8.4625H2.24392C1.87884 8.33974 1.57693 8.07791 1.40374 7.73388C1.23055 7.38984 1.20008 6.99137 1.31892 6.625L1.83142 5C1.8786 4.81173 1.96546 4.6357 2.08618 4.48372C2.20691 4.33174 2.35871 4.20731 2.53142 4.11875C2.69227 4.03588 2.86826 3.9865 3.04874 3.97361C3.22922 3.96072 3.41043 3.98458 3.58142 4.04375C3.7676 4.10641 3.96626 4.12265 4.16015 4.09106C4.35403 4.05947 4.53726 3.98101 4.69392 3.8625L4.77517 3.8C4.91698 3.68685 5.03159 3.54331 5.11056 3.37998C5.18952 3.21664 5.23082 3.03767 5.23142 2.85625V2.70625C5.22974 2.32383 5.37921 1.95623 5.64727 1.68349C5.91533 1.41075 6.28028 1.25494 6.66267 1.25H8.25642C8.44247 1.2505 8.62659 1.28775 8.7982 1.35961C8.96981 1.43148 9.12553 1.53653 9.25642 1.66875C9.53161 1.94862 9.68447 2.32627 9.68142 2.71875V2.89375C9.67825 3.06609 9.71563 3.23677 9.79054 3.39202C9.86545 3.54726 9.97579 3.68273 10.1127 3.7875L10.1814 3.8375C10.3217 3.94269 10.4853 4.0124 10.6584 4.0407C10.8314 4.06899 11.0087 4.05503 11.1752 4L11.3877 3.93125C11.5677 3.87157 11.7579 3.84876 11.947 3.86418C12.136 3.87961 12.32 3.93295 12.488 4.02102C12.656 4.1091 12.8045 4.23011 12.9247 4.37683C13.0449 4.52355 13.1344 4.69297 13.1877 4.875L13.6814 6.45C13.7957 6.81399 13.7644 7.2081 13.5943 7.54956C13.4242 7.89102 13.1283 8.15327 12.7689 8.28125L12.6439 8.325C12.4601 8.3852 12.2938 8.48964 12.1598 8.62913C12.0257 8.76862 11.928 8.9389 11.8752 9.125C11.8254 9.29801 11.8136 9.47972 11.8406 9.6577C11.8676 9.83569 11.9327 10.0057 12.0314 10.1562L12.1939 10.3937C12.4094 10.7065 12.4971 11.0899 12.439 11.4653C12.3809 11.8406 12.1814 12.1795 11.8814 12.4125L10.6252 13.3813C10.4734 13.4973 10.2995 13.5811 10.1141 13.6274C9.92875 13.6737 9.73586 13.6816 9.54733 13.6506C9.3588 13.6196 9.17862 13.5503 9.01788 13.447C8.85714 13.3437 8.71924 13.2086 8.61267 13.05L8.53767 12.9437C8.43531 12.7899 8.29564 12.6645 8.1317 12.5793C7.96776 12.494 7.7849 12.4517 7.60017 12.4563C7.42391 12.4608 7.25118 12.5067 7.09594 12.5903C6.94069 12.6739 6.80726 12.7929 6.70642 12.9375L6.56267 13.1438C6.45608 13.3035 6.3179 13.4396 6.15667 13.5439C5.99543 13.6482 5.81455 13.7183 5.62517 13.75C5.54412 13.7579 5.46248 13.7579 5.38142 13.75ZM2.75017 7.2625C3.10311 7.38835 3.42157 7.59529 3.67992 7.86668C3.93828 8.13806 4.12932 8.46631 4.23767 8.825V8.9C4.37263 9.27289 4.41695 9.67254 4.36696 10.0659C4.31697 10.4593 4.17411 10.8352 3.95017 11.1625C3.91065 11.2062 3.88876 11.263 3.88876 11.3219C3.88876 11.3808 3.91065 11.4376 3.95017 11.4813L5.29392 12.5C5.31146 12.5138 5.33173 12.5236 5.35339 12.5289C5.37504 12.5342 5.39758 12.5348 5.41949 12.5307C5.44139 12.5265 5.46215 12.5177 5.48038 12.5049C5.49861 12.4921 5.51389 12.4755 5.52517 12.4563L5.66892 12.25C5.88573 11.9367 6.17526 11.6807 6.51271 11.5039C6.85016 11.327 7.22545 11.2346 7.60642 11.2346C7.9874 11.2346 8.36269 11.327 8.70014 11.5039C9.03758 11.6807 9.32712 11.9367 9.54393 12.25L9.61893 12.3625C9.64579 12.4006 9.6859 12.4274 9.73142 12.4375C9.7523 12.4406 9.77359 12.4394 9.794 12.434C9.81441 12.4287 9.83352 12.4192 9.85017 12.4062L11.1377 11.4313C11.1827 11.3955 11.2124 11.3438 11.2205 11.2868C11.2287 11.2299 11.2147 11.172 11.1814 11.125L11.0189 10.8875C10.8072 10.5788 10.6675 10.2264 10.6102 9.85643C10.5528 9.48647 10.5793 9.10835 10.6877 8.75C10.7975 8.37336 10.9962 8.0286 11.267 7.74473C11.5378 7.46086 11.8729 7.24618 12.2439 7.11875L12.3689 7.075C12.421 7.05413 12.4627 7.0135 12.485 6.96198C12.5072 6.91046 12.5082 6.85223 12.4877 6.8L12.0002 5.24375C11.9885 5.21652 11.9714 5.19195 11.9499 5.17154C11.9284 5.15113 11.903 5.13529 11.8752 5.125C11.8568 5.11567 11.8364 5.1108 11.8158 5.1108C11.7952 5.1108 11.7748 5.11567 11.7564 5.125L11.5439 5.19375C11.1845 5.31239 10.8016 5.34195 10.4281 5.2799C10.0547 5.21784 9.70195 5.06603 9.40018 4.8375L9.37517 4.78125C9.0856 4.56195 8.8508 4.27851 8.68922 3.95318C8.52764 3.62785 8.44368 3.26949 8.44392 2.90625V2.7125C8.44506 2.65226 8.42263 2.59396 8.38142 2.55C8.34547 2.5175 8.29864 2.49966 8.25017 2.5H6.66267C6.63721 2.50159 6.61232 2.50819 6.58941 2.51943C6.56651 2.53066 6.54605 2.54631 6.52921 2.56548C6.51237 2.58464 6.49948 2.60694 6.49128 2.6311C6.48308 2.65526 6.47973 2.68079 6.48142 2.70625V2.8625C6.48146 3.23565 6.39583 3.60383 6.23112 3.93866C6.06642 4.27349 5.82703 4.56603 5.53142 4.79375L5.45017 4.85625C5.13126 5.09907 4.7575 5.25971 4.36186 5.32401C3.96622 5.38832 3.56083 5.35431 3.18142 5.225C3.15304 5.21547 3.12231 5.21547 3.09392 5.225C3.05865 5.24643 3.03209 5.27963 3.01892 5.31875L2.50017 6.95C2.48209 7.00556 2.48633 7.06597 2.51199 7.11846C2.53765 7.17095 2.58272 7.2114 2.63767 7.23125L2.75017 7.2625Z" fill="#F9FAFB"/>
<path d="M7.5 9.6875C7.06736 9.6875 6.64442 9.55921 6.28469 9.31884C5.92496 9.07848 5.64458 8.73684 5.47901 8.33712C5.31345 7.93741 5.27013 7.49758 5.35453 7.07324C5.43894 6.64891 5.64728 6.25913 5.95321 5.95321C6.25913 5.64728 6.64891 5.43894 7.07324 5.35453C7.49758 5.27013 7.93741 5.31345 8.33712 5.47901C8.73684 5.64458 9.07848 5.92496 9.31884 6.28469C9.55921 6.64442 9.6875 7.06736 9.6875 7.5C9.6875 8.08016 9.45703 8.63656 9.0468 9.0468C8.63656 9.45703 8.08016 9.6875 7.5 9.6875ZM7.5 6.5625C7.31458 6.5625 7.13333 6.61748 6.97915 6.7205C6.82498 6.82351 6.70482 6.96993 6.63386 7.14124C6.56291 7.31254 6.54434 7.50104 6.58052 7.6829C6.61669 7.86476 6.70598 8.0318 6.83709 8.16291C6.9682 8.29403 7.13525 8.38332 7.3171 8.41949C7.49896 8.45566 7.68746 8.4371 7.85877 8.36614C8.03007 8.29518 8.17649 8.17502 8.27951 8.02085C8.38252 7.86668 8.4375 7.68542 8.4375 7.5C8.4375 7.25136 8.33873 7.0129 8.16291 6.83709C7.9871 6.66127 7.74864 6.5625 7.5 6.5625Z" fill="#F9FAFB"/>
</svg>
