<svg width="18" height="18" viewBox="0 0 18 18" fill="none" xmlns="http://www.w3.org/2000/svg">
<path d="M6.24901 3.07031H3.0996C2.54275 3.07031 2.00871 3.29953 1.61496 3.70753C1.22121 4.11553 1 4.66891 1 5.24591V15.0361C1 15.6131 1.22121 16.1665 1.61496 16.5745C2.00871 16.9825 2.54275 17.2117 3.0996 17.2117H12.5478C13.1047 17.2117 13.6387 16.9825 14.0325 16.5745C14.4262 16.1665 14.6474 15.6131 14.6474 15.0361V11.7727" stroke="#52525B" stroke-width="1.5" stroke-linecap="round" stroke-linejoin="round"/>
<path d="M13.5976 7.41742C15.337 7.41742 16.747 5.95635 16.747 4.15402C16.747 2.3517 15.337 0.890625 13.5976 0.890625C11.8583 0.890625 10.4482 2.3517 10.4482 4.15402C10.4482 5.95635 11.8583 7.41742 13.5976 7.41742Z" stroke="#52525B" stroke-width="1.5" stroke-linecap="round" stroke-linejoin="round"/>
</svg>
