<svg width="17" height="14" viewBox="0 0 17 14" fill="none" xmlns="http://www.w3.org/2000/svg">
<path d="M1.71097 14H0C2.02854e-08 12.6387 0.540787 11.3331 1.50339 10.3705C2.466 9.40788 3.77157 8.86709 5.13291 8.86709C6.49424 8.86709 7.79981 9.40788 8.76242 10.3705C9.72503 11.3331 10.2658 12.6387 10.2658 14H8.55484C8.55484 13.0924 8.19432 12.2221 7.55258 11.5803C6.91084 10.9386 6.04046 10.5781 5.13291 10.5781C4.22535 10.5781 3.35497 10.9386 2.71323 11.5803C2.07149 12.2221 1.71097 13.0924 1.71097 14ZM13.9991 10.8886L12.7895 9.67895C13.3456 9.12287 13.7868 8.46269 14.0878 7.7361C14.3888 7.00952 14.5437 6.23076 14.5437 5.4443C14.5437 4.65784 14.3888 3.87909 14.0878 3.1525C13.7868 2.42592 13.3456 1.76574 12.7895 1.20966L13.9991 0C15.4428 1.44388 16.2538 3.40207 16.2538 5.44387C16.2538 7.48568 15.4428 9.44387 13.9991 10.8877V10.8886ZM11.579 8.4693L10.3693 7.25793C10.8499 6.77672 11.1199 6.12441 11.1199 5.4443C11.1199 4.76419 10.8499 4.11189 10.3693 3.63068L11.579 2.41845C12.3811 3.22062 12.8318 4.30859 12.8318 5.44302C12.8318 6.57745 12.3811 7.66541 11.579 8.46758V8.4693ZM5.13291 8.01076C4.22535 8.01076 3.35497 7.65023 2.71323 7.00849C2.07149 6.36676 1.71097 5.49637 1.71097 4.58882C1.71097 3.68126 2.07149 2.81088 2.71323 2.16914C3.35497 1.52741 4.22535 1.16688 5.13291 1.16688C6.04046 1.16688 6.91084 1.52741 7.55258 2.16914C8.19432 2.81088 8.55484 3.68126 8.55484 4.58882C8.55484 5.49637 8.19432 6.36676 7.55258 7.00849C6.91084 7.65023 6.04046 8.01076 5.13291 8.01076ZM5.13291 2.87785C4.79786 2.87819 4.47029 2.97689 4.19083 3.16171C3.91137 3.34653 3.69233 3.60933 3.56087 3.91751C3.42941 4.22568 3.39133 4.56568 3.45134 4.8953C3.51136 5.22493 3.66684 5.52968 3.89848 5.77175C4.13012 6.01381 4.42774 6.18254 4.75441 6.257C5.08107 6.33146 5.42241 6.30837 5.73607 6.19059C6.04974 6.07282 6.32192 5.86555 6.51885 5.59449C6.71578 5.32343 6.8288 5.00052 6.84387 4.66581V5.00801V4.58882C6.84387 4.13504 6.66361 3.69985 6.34274 3.37898C6.02187 3.05811 5.58668 2.87785 5.13291 2.87785Z" fill="#52525B"/>
</svg>
