<svg width="24" height="24" viewBox="0 0 24 24" fill="none" xmlns="http://www.w3.org/2000/svg">
<path fill-rule="evenodd" clip-rule="evenodd" d="M12 24C18.6274 24 24 18.6274 24 12C24 5.37258 18.6274 0 12 0C5.37258 0 0 5.37258 0 12C0 18.6274 5.37258 24 12 24ZM11.9041 7.53758L12.4995 6.921C13.5911 5.79061 15.4091 5.75888 16.5395 6.85048C17.6699 7.94209 17.7016 9.76009 16.61 10.8905L16.0146 11.5071C15.0588 12.4968 13.5462 12.6443 12.4258 11.9329L13.248 11.0816C13.8901 11.3727 14.6765 11.2474 15.1925 10.7132L15.7879 10.0966C16.4429 9.41835 16.4238 8.32755 15.7456 7.67259C15.0674 7.01762 13.9766 7.03666 13.3216 7.7149L12.7262 8.33147C12.2102 8.86576 12.1125 9.65607 12.4259 10.2877L11.6037 11.139C10.8537 10.0442 10.9483 8.52731 11.9041 7.53758ZM11.1265 11.6333L11.6037 11.139C11.7103 11.2947 11.8339 11.4417 11.9746 11.5776C12.1153 11.7134 12.2666 11.8318 12.4258 11.9329L11.9486 12.4271C11.842 12.2715 11.7183 12.1245 11.5777 11.9886C11.437 11.8528 11.2857 11.7343 11.1265 11.6333ZM10.3043 12.4846L11.1265 11.6333C10.0061 10.9219 8.49343 11.0694 7.53766 12.0591L6.94224 12.6757C5.85063 13.8061 5.88236 15.6241 7.01276 16.7157C8.14315 17.8073 9.96114 17.7756 11.0528 16.6452L11.6482 16.0286C12.6039 15.0389 12.6985 13.522 11.9486 12.4271L11.1264 13.2785C11.042 13.1084 10.9277 12.9497 10.7838 12.8107C10.6398 12.6717 10.4773 12.5631 10.3043 12.4846ZM10.3043 12.4846L9.57881 13.2359C9.36049 13.462 9.36684 13.8256 9.59291 14.0439C9.81899 14.2622 10.1826 14.2559 10.4009 14.0298L11.1264 13.2785C11.4397 13.9101 11.342 14.7004 10.8261 15.2347L10.2306 15.8513C9.57568 16.5295 8.48489 16.5486 7.80665 15.8936C7.12842 15.2386 7.10938 14.1478 7.76434 13.4696L8.35976 12.853C8.87572 12.3187 9.66214 12.1935 10.3043 12.4846ZM12.4259 10.2877C12.5103 10.4578 12.6245 10.6165 12.7685 10.7555C12.9124 10.8945 13.075 11.0031 13.248 11.0816L13.9734 10.3303C14.1918 10.1042 14.1854 9.74064 13.9593 9.52232C13.7333 9.30399 13.3697 9.31034 13.1513 9.53642L12.4259 10.2877Z" fill="#F87171"/>
</svg>
