<svg width="24" height="24" viewBox="0 0 24 24" fill="none" xmlns="http://www.w3.org/2000/svg">
<circle cx="12" cy="12" r="12" fill="#737373"/>
<path d="M18.5 6H5.5C5.22344 6 5 6.22344 5 6.5V16.5C5 16.7766 5.22344 17 5.5 17H18.5C18.7766 17 19 16.7766 19 16.5V6.5C19 6.22344 18.7766 6 18.5 6ZM17.2375 7.70156L12.3078 11.5375C12.1859 11.6328 12.0156 11.6328 11.8937 11.5375L6.9625 7.70156C6.94391 7.68722 6.93028 7.66741 6.92351 7.64493C6.91674 7.62245 6.91718 7.59841 6.92476 7.57618C6.93234 7.55396 6.94668 7.53466 6.96578 7.521C6.98487 7.50734 7.00777 7.5 7.03125 7.5H17.1687C17.1922 7.5 17.2151 7.50734 17.2342 7.521C17.2533 7.53466 17.2677 7.55396 17.2752 7.57618C17.2828 7.59841 17.2833 7.62245 17.2765 7.64493C17.2697 7.66741 17.2561 7.68722 17.2375 7.70156Z" fill="#FEF08A"/>
</svg>
