<svg width="29" height="29" viewBox="0 0 29 29" fill="none" xmlns="http://www.w3.org/2000/svg">
<path d="M17.6924 2.69941C11.2349 1.20857 4.79143 5.23488 3.30059 11.6924C1.80974 18.15 5.83605 24.5934 12.2936 26.0843C18.7512 27.5751 25.1946 23.5488 26.6855 17.0913C28.1763 10.6337 24.15 4.19026 17.6924 2.69941ZM12.4182 6.37374C12.6624 6.41515 12.8469 6.60942 12.953 6.90311L13.8517 10.3037C13.937 10.7018 13.7526 11.0644 13.4423 11.2631L12.541 11.8263C12.4815 11.8777 12.4357 11.9406 12.4173 12.0172C12.4471 13.1689 13.0674 14.3681 13.6597 15.2311C14.252 16.0941 14.8442 17.214 15.8417 17.6772C15.9629 17.7433 16.1187 17.7929 16.2313 17.7281L17.282 17.0581C17.627 16.9033 18.0767 16.8935 18.3482 17.1479L18.3625 17.1512L20.8539 19.5199C21.216 19.8831 21.1415 20.4062 20.7663 20.6483L18.3245 22.1607C17.9616 22.3938 17.5485 22.405 17.1696 22.318C15.5063 21.8812 14.1135 20.6937 13.0087 19.5488C11.2334 17.504 9.72068 15.127 9.02895 12.5173C8.78288 11.4332 8.51661 10.0609 8.82077 8.98447C8.92004 8.57601 9.12347 8.20036 9.47283 8.00297L11.9183 6.47486C12.1035 6.3789 12.2717 6.3489 12.4182 6.37374Z" fill="#10B981"/>
</svg>
