<svg width="11" height="7" viewBox="0 0 11 7" fill="none" xmlns="http://www.w3.org/2000/svg">
<path d="M0.239382 0.239382C0.392704 0.0861058 0.600626 0 0.817424 0C1.03422 0 1.24214 0.0861058 1.39547 0.239382L5.44258 4.28649L9.48969 0.239382C9.64389 0.0904497 9.85042 0.00804003 10.0648 0.00990286C10.2792 0.0117657 10.4842 0.0977518 10.6358 0.249341C10.7874 0.400931 10.8734 0.605994 10.8752 0.820366C10.8771 1.03474 10.7947 1.24126 10.6458 1.39547L6.02062 6.02062C5.8673 6.17389 5.65937 6.26 5.44258 6.26C5.22578 6.26 5.01786 6.17389 4.86453 6.02062L0.239382 1.39547C0.0861057 1.24214 0 1.03422 0 0.817424C0 0.600626 0.0861057 0.392704 0.239382 0.239382Z" fill="#404040"/>
</svg>
