<svg width="46" height="56" viewBox="0 0 46 56" fill="none" xmlns="http://www.w3.org/2000/svg">
<path d="M27.2421 8.90507C27.5233 8.62378 27.6813 8.24231 27.6813 7.84457C27.6813 7.44682 27.5233 7.06536 27.2421 6.78407L20.8791 0.421068C20.5962 0.147831 20.2173 -0.00336092 19.824 5.6704e-05C19.4307 0.00347433 19.0545 0.161228 18.7764 0.43934C18.4982 0.717452 18.3405 1.09367 18.3371 1.48697C18.3337 1.88026 18.4848 2.25916 18.7581 2.54207L21.7491 5.53307C17.1377 5.78939 12.7169 7.4586 9.08684 10.3141C5.45683 13.1695 2.79347 17.0729 1.45839 21.4943C0.123303 25.9156 0.181167 30.6407 1.62412 35.028C3.06708 39.4154 5.82522 43.2523 9.52408 46.0181C9.84234 46.2568 10.2424 46.3593 10.6362 46.303C11.03 46.2467 11.3854 46.0363 11.6241 45.7181C11.8628 45.3998 11.9653 44.9998 11.909 44.6059C11.8527 44.2121 11.6423 43.8568 11.3241 43.6181C8.03011 41.156 5.59887 37.7155 4.37791 33.7884C3.15696 29.8614 3.2088 25.6489 4.52604 21.7531C5.84327 17.8573 8.35845 14.4777 11.712 12.0974C15.0656 9.71714 19.0858 8.45801 23.1981 8.50007C23.2701 8.50007 23.3481 8.49407 23.4171 8.48507L18.7581 13.1471C18.4848 13.43 18.3337 13.8089 18.3371 14.2022C18.3405 14.5955 18.4982 14.9717 18.7764 15.2498C19.0545 15.5279 19.4307 15.6857 19.824 15.6891C20.2173 15.6925 20.5962 15.5413 20.8791 15.2681L27.2421 8.90507ZM18.7581 47.0891C18.4769 47.3704 18.3189 47.7518 18.3189 48.1496C18.3189 48.5473 18.4769 48.9288 18.7581 49.2101L25.1211 55.5731C25.404 55.8463 25.7829 55.9975 26.1762 55.9941C26.5695 55.9907 26.9457 55.8329 27.2238 55.5548C27.5019 55.2767 27.6597 54.9005 27.6631 54.5072C27.6665 54.1139 27.5153 53.735 27.2421 53.4521L24.2511 50.4611C28.8625 50.2047 33.2833 48.5355 36.9133 45.6801C40.5433 42.8246 43.2067 38.9212 44.5418 34.4999C45.8769 30.0785 45.819 25.3534 44.376 20.9661C42.9331 16.5788 40.1749 12.7418 36.4761 9.97607C36.3185 9.85788 36.1392 9.77188 35.9484 9.723C35.7575 9.67411 35.559 9.66329 35.3639 9.69114C35.1689 9.719 34.9813 9.78499 34.8118 9.88536C34.6423 9.98572 34.4943 10.1185 34.3761 10.2761C34.2579 10.4337 34.1719 10.613 34.123 10.8038C34.0741 10.9946 34.0633 11.1932 34.0912 11.3882C34.119 11.5832 34.185 11.7708 34.2854 11.9403C34.3857 12.1098 34.5185 12.2579 34.6761 12.3761C37.9703 14.8383 40.4016 18.2791 41.6225 22.2064C42.8434 26.1337 42.7913 30.3465 41.4737 34.2425C40.1561 38.1384 37.6404 41.518 34.2863 43.898C30.9323 46.2781 26.9116 47.5368 22.7991 47.4941C22.7258 47.4937 22.6526 47.4987 22.5801 47.5091L27.2421 42.8471C27.3853 42.7087 27.4996 42.5432 27.5782 42.3602C27.6568 42.1772 27.6982 41.9803 27.7 41.7812C27.7017 41.582 27.6637 41.3845 27.5883 41.2001C27.5129 41.0158 27.4015 40.8483 27.2607 40.7075C27.1198 40.5666 26.9524 40.4553 26.768 40.3798C26.5837 40.3044 26.3861 40.2665 26.187 40.2682C25.9878 40.2699 25.791 40.3113 25.608 40.3899C25.425 40.4685 25.2594 40.5828 25.1211 40.7261L18.7581 47.0891Z" fill="#FACC15"/>
</svg>
