<svg width="195" height="26" viewBox="0 0 195 26" fill="none" xmlns="http://www.w3.org/2000/svg">
<path d="M4.66895 0.804688V20H0.713867V0.804688H4.66895ZM16.165 0.804688L8.55811 10.2837L4.16797 15.0034L3.45605 11.2593L6.42236 7.19873L11.3135 0.804688H16.165ZM11.6694 20L6.01367 11.1274L8.94043 8.67529L16.3496 20H11.6694ZM16.666 13.0127V12.7358C16.666 11.6899 16.8154 10.7275 17.1143 9.84863C17.4131 8.96094 17.8481 8.19189 18.4194 7.5415C18.9907 6.89111 19.6938 6.38574 20.5288 6.02539C21.3638 5.65625 22.3218 5.47168 23.4028 5.47168C24.4839 5.47168 25.4463 5.65625 26.29 6.02539C27.1338 6.38574 27.8413 6.89111 28.4126 7.5415C28.9927 8.19189 29.4321 8.96094 29.731 9.84863C30.0298 10.7275 30.1792 11.6899 30.1792 12.7358V13.0127C30.1792 14.0498 30.0298 15.0122 29.731 15.8999C29.4321 16.7788 28.9927 17.5479 28.4126 18.207C27.8413 18.8574 27.1382 19.3628 26.3032 19.7231C25.4683 20.0835 24.5103 20.2637 23.4292 20.2637C22.3481 20.2637 21.3857 20.0835 20.542 19.7231C19.707 19.3628 18.9995 18.8574 18.4194 18.207C17.8481 17.5479 17.4131 16.7788 17.1143 15.8999C16.8154 15.0122 16.666 14.0498 16.666 13.0127ZM20.4629 12.7358V13.0127C20.4629 13.6104 20.5156 14.1685 20.6211 14.687C20.7266 15.2056 20.8936 15.6626 21.1221 16.0581C21.3594 16.4448 21.667 16.748 22.0449 16.9678C22.4229 17.1875 22.8843 17.2974 23.4292 17.2974C23.9565 17.2974 24.4092 17.1875 24.7871 16.9678C25.165 16.748 25.4683 16.4448 25.6968 16.0581C25.9253 15.6626 26.0923 15.2056 26.1978 14.687C26.312 14.1685 26.3691 13.6104 26.3691 13.0127V12.7358C26.3691 12.1558 26.312 11.6108 26.1978 11.1011C26.0923 10.5825 25.9209 10.1255 25.6836 9.72998C25.4551 9.32568 25.1519 9.00928 24.7739 8.78076C24.396 8.55225 23.939 8.43799 23.4028 8.43799C22.8667 8.43799 22.4097 8.55225 22.0317 8.78076C21.6626 9.00928 21.3594 9.32568 21.1221 9.72998C20.8936 10.1255 20.7266 10.5825 20.6211 11.1011C20.5156 11.6108 20.4629 12.1558 20.4629 12.7358ZM36.3096 8.68848V20H32.4995V5.73535H36.0723L36.3096 8.68848ZM35.7822 12.3667H34.7275C34.7275 11.3735 34.8462 10.4595 35.0835 9.62451C35.3296 8.78076 35.6855 8.05127 36.1514 7.43604C36.626 6.81201 37.2104 6.32861 37.9048 5.98584C38.5991 5.64307 39.4033 5.47168 40.3174 5.47168C40.9502 5.47168 41.5303 5.56836 42.0576 5.76172C42.585 5.94629 43.0376 6.24072 43.4155 6.64502C43.8022 7.04053 44.1011 7.55908 44.312 8.20068C44.5229 8.8335 44.6284 9.59375 44.6284 10.4814V20H40.8315V10.9033C40.8315 10.2529 40.7437 9.75195 40.5679 9.40039C40.3921 9.04883 40.1416 8.80273 39.8164 8.66211C39.5 8.52148 39.1177 8.45117 38.6694 8.45117C38.1772 8.45117 37.7466 8.55225 37.3774 8.75439C37.0171 8.95654 36.7183 9.23779 36.481 9.59814C36.2437 9.94971 36.0679 10.3628 35.9536 10.8374C35.8394 11.312 35.7822 11.8218 35.7822 12.3667ZM44.2725 11.9316L42.9146 12.103C42.9146 11.1714 43.0288 10.3057 43.2573 9.50586C43.4946 8.70605 43.8418 8.00293 44.2988 7.39648C44.7646 6.79004 45.3403 6.31982 46.0259 5.98584C46.7114 5.64307 47.5024 5.47168 48.3989 5.47168C49.0845 5.47168 49.7085 5.57275 50.271 5.7749C50.8335 5.96826 51.3125 6.28027 51.708 6.71094C52.1123 7.13281 52.4199 7.68652 52.6309 8.37207C52.8506 9.05762 52.9604 9.89697 52.9604 10.8901V20H49.1504V10.8901C49.1504 10.231 49.0625 9.72998 48.8867 9.38721C48.7197 9.03564 48.4736 8.79395 48.1484 8.66211C47.832 8.52148 47.4541 8.45117 47.0146 8.45117C46.5576 8.45117 46.1577 8.54346 45.8149 8.72803C45.4722 8.90381 45.1865 9.1499 44.958 9.46631C44.7295 9.78271 44.5581 10.1519 44.4438 10.5737C44.3296 10.9868 44.2725 11.4395 44.2725 11.9316ZM59.6973 8.47754V25.4844H55.9004V5.73535H59.4204L59.6973 8.47754ZM68.728 12.7095V12.9863C68.728 14.0234 68.605 14.9858 68.3589 15.8735C68.1216 16.7612 67.77 17.5347 67.3042 18.1938C66.8384 18.8442 66.2583 19.354 65.564 19.7231C64.8784 20.0835 64.0874 20.2637 63.1909 20.2637C62.3208 20.2637 61.5649 20.0879 60.9233 19.7363C60.2817 19.3848 59.7412 18.8926 59.3018 18.2598C58.8711 17.6182 58.5239 16.8755 58.2603 16.0317C57.9966 15.188 57.7944 14.2827 57.6538 13.3159V12.5908C57.7944 11.5537 57.9966 10.6045 58.2603 9.74316C58.5239 8.87305 58.8711 8.12158 59.3018 7.48877C59.7412 6.84717 60.2773 6.35059 60.9102 5.99902C61.5518 5.64746 62.3032 5.47168 63.1646 5.47168C64.0698 5.47168 64.8652 5.64307 65.5508 5.98584C66.2451 6.32861 66.8252 6.8208 67.291 7.4624C67.7656 8.104 68.1216 8.86865 68.3589 9.75635C68.605 10.644 68.728 11.6284 68.728 12.7095ZM64.918 12.9863V12.7095C64.918 12.103 64.8652 11.5449 64.7598 11.0352C64.6631 10.5166 64.5049 10.064 64.2852 9.67725C64.0742 9.29053 63.793 8.9917 63.4414 8.78076C63.0986 8.56104 62.6812 8.45117 62.189 8.45117C61.6704 8.45117 61.2266 8.53467 60.8574 8.70166C60.4971 8.86865 60.2026 9.11035 59.9741 9.42676C59.7456 9.74316 59.5742 10.1211 59.46 10.5605C59.3457 11 59.2754 11.4966 59.249 12.0503V13.8828C59.293 14.5332 59.416 15.1177 59.6182 15.6362C59.8203 16.146 60.1323 16.5503 60.5542 16.8491C60.9761 17.1479 61.5298 17.2974 62.2153 17.2974C62.7163 17.2974 63.1382 17.1875 63.481 16.9678C63.8237 16.7393 64.1006 16.4272 64.3115 16.0317C64.5312 15.6362 64.6851 15.1792 64.7729 14.6606C64.8696 14.1421 64.918 13.584 64.918 12.9863ZM78.7871 16.7832V10.4287C78.7871 9.97168 78.7124 9.58057 78.563 9.25537C78.4136 8.92139 78.1807 8.66211 77.8643 8.47754C77.5566 8.29297 77.1567 8.20068 76.6646 8.20068C76.2427 8.20068 75.8779 8.27539 75.5703 8.4248C75.2627 8.56543 75.0254 8.77197 74.8584 9.04443C74.6914 9.30811 74.6079 9.62012 74.6079 9.98047H70.811C70.811 9.37402 70.9517 8.79834 71.2329 8.25342C71.5142 7.7085 71.9229 7.22949 72.459 6.81641C72.9951 6.39453 73.6323 6.06494 74.3706 5.82764C75.1177 5.59033 75.9526 5.47168 76.8755 5.47168C77.9829 5.47168 78.9673 5.65625 79.8286 6.02539C80.6899 6.39453 81.3667 6.94824 81.8589 7.68652C82.3599 8.4248 82.6104 9.34766 82.6104 10.4551V16.5591C82.6104 17.3413 82.6587 17.9829 82.7554 18.4839C82.8521 18.9761 82.9927 19.4067 83.1772 19.7759V20H79.3408C79.1562 19.6133 79.0156 19.1299 78.9189 18.5498C78.8311 17.9609 78.7871 17.3721 78.7871 16.7832ZM79.2881 11.312L79.3145 13.4609H77.1919C76.6909 13.4609 76.2559 13.5181 75.8867 13.6323C75.5176 13.7466 75.2144 13.9092 74.9771 14.1201C74.7397 14.3223 74.564 14.5596 74.4497 14.832C74.3442 15.1045 74.2915 15.4033 74.2915 15.7285C74.2915 16.0537 74.3662 16.3481 74.5156 16.6118C74.665 16.8667 74.8804 17.0688 75.1616 17.2183C75.4429 17.3589 75.7725 17.4292 76.1504 17.4292C76.7217 17.4292 77.2183 17.3149 77.6401 17.0864C78.062 16.8579 78.3872 16.5767 78.6157 16.2427C78.853 15.9087 78.9761 15.5923 78.9849 15.2935L79.9868 16.9019C79.8462 17.2622 79.6528 17.6357 79.4067 18.0225C79.1694 18.4092 78.8662 18.7739 78.4971 19.1167C78.1279 19.4507 77.6841 19.7275 77.1655 19.9473C76.647 20.1582 76.0317 20.2637 75.3198 20.2637C74.4146 20.2637 73.5928 20.0835 72.8545 19.7231C72.125 19.354 71.5449 18.8486 71.1143 18.207C70.6924 17.5566 70.4814 16.8184 70.4814 15.9922C70.4814 15.2451 70.6221 14.5815 70.9033 14.0015C71.1846 13.4214 71.5977 12.9336 72.1426 12.5381C72.6963 12.1338 73.3862 11.8306 74.2124 11.6284C75.0386 11.4175 75.9966 11.312 77.0864 11.312H79.2881ZM89.2549 8.78076V20H85.458V5.73535H89.0176L89.2549 8.78076ZM88.7012 12.3667H87.6729C87.6729 11.312 87.8091 10.3628 88.0815 9.51904C88.354 8.6665 88.7363 7.94141 89.2285 7.34375C89.7207 6.7373 90.3052 6.27588 90.9819 5.95947C91.6675 5.63428 92.4321 5.47168 93.2759 5.47168C93.9438 5.47168 94.5547 5.56836 95.1084 5.76172C95.6621 5.95508 96.1367 6.2627 96.5322 6.68457C96.9365 7.10645 97.2441 7.66455 97.4551 8.35889C97.6748 9.05322 97.7847 9.90137 97.7847 10.9033V20H93.9614V10.8901C93.9614 10.2573 93.8735 9.76514 93.6978 9.41357C93.522 9.06201 93.2627 8.81592 92.9199 8.67529C92.5859 8.52588 92.1729 8.45117 91.6807 8.45117C91.1709 8.45117 90.7271 8.55225 90.3491 8.75439C89.98 8.95654 89.6724 9.23779 89.4263 9.59814C89.189 9.94971 89.0088 10.3628 88.8857 10.8374C88.7627 11.312 88.7012 11.8218 88.7012 12.3667ZM104.904 18.3916L108.688 5.73535H112.761L107.026 22.1489C106.903 22.5093 106.736 22.896 106.525 23.3091C106.323 23.7222 106.046 24.1133 105.695 24.4824C105.352 24.8604 104.917 25.168 104.39 25.4053C103.871 25.6426 103.234 25.7612 102.478 25.7612C102.118 25.7612 101.823 25.7393 101.595 25.6953C101.366 25.6514 101.094 25.5898 100.777 25.5107V22.729C100.874 22.729 100.975 22.729 101.081 22.729C101.186 22.7378 101.287 22.7422 101.384 22.7422C101.885 22.7422 102.293 22.6851 102.61 22.5708C102.926 22.4565 103.181 22.2808 103.375 22.0435C103.568 21.8149 103.722 21.5161 103.836 21.147L104.904 18.3916ZM103.322 5.73535L106.42 16.0713L106.96 20.0923L104.376 20.3691L99.248 5.73535H103.322ZM114.515 0.804688H121.673C123.141 0.804688 124.402 1.02441 125.457 1.46387C126.521 1.90332 127.338 2.55371 127.909 3.41504C128.48 4.27637 128.766 5.33545 128.766 6.59229C128.766 7.62061 128.59 8.50391 128.239 9.24219C127.896 9.97168 127.408 10.5825 126.775 11.0747C126.151 11.5581 125.417 11.9448 124.574 12.2349L123.321 12.894H117.099L117.072 9.80908H121.7C122.394 9.80908 122.97 9.68604 123.427 9.43994C123.884 9.19385 124.227 8.85107 124.455 8.41162C124.692 7.97217 124.811 7.4624 124.811 6.88232C124.811 6.26709 124.697 5.73535 124.468 5.28711C124.24 4.83887 123.893 4.49609 123.427 4.25879C122.961 4.02148 122.376 3.90283 121.673 3.90283H118.47V20H114.515V0.804688ZM125.246 20L120.869 11.4438L125.048 11.4175L129.478 19.8154V20H125.246ZM138.14 20.2637C137.032 20.2637 136.039 20.0879 135.16 19.7363C134.281 19.376 133.534 18.8794 132.919 18.2466C132.312 17.6138 131.847 16.8799 131.521 16.0449C131.196 15.2012 131.034 14.3047 131.034 13.3555V12.8281C131.034 11.7471 131.188 10.7583 131.495 9.86182C131.803 8.96533 132.242 8.1875 132.813 7.52832C133.394 6.86914 134.097 6.36377 134.923 6.01221C135.749 5.65186 136.681 5.47168 137.718 5.47168C138.729 5.47168 139.625 5.63867 140.407 5.97266C141.189 6.30664 141.844 6.78125 142.372 7.39648C142.908 8.01172 143.312 8.75 143.584 9.61133C143.857 10.4639 143.993 11.4131 143.993 12.459V14.041H132.655V11.5098H140.262V11.2197C140.262 10.6924 140.166 10.2222 139.972 9.80908C139.788 9.38721 139.506 9.05322 139.128 8.80713C138.75 8.56104 138.267 8.43799 137.678 8.43799C137.177 8.43799 136.747 8.54785 136.386 8.76758C136.026 8.9873 135.731 9.29492 135.503 9.69043C135.283 10.0859 135.116 10.5518 135.002 11.0879C134.896 11.6152 134.844 12.1953 134.844 12.8281V13.3555C134.844 13.9268 134.923 14.4541 135.081 14.9375C135.248 15.4209 135.481 15.8384 135.78 16.1899C136.087 16.5415 136.457 16.814 136.887 17.0073C137.327 17.2007 137.823 17.2974 138.377 17.2974C139.062 17.2974 139.7 17.1655 140.289 16.9019C140.886 16.6294 141.4 16.2207 141.831 15.6758L143.677 17.6797C143.378 18.1104 142.969 18.5234 142.451 18.9189C141.941 19.3145 141.326 19.6396 140.605 19.8945C139.884 20.1406 139.062 20.2637 138.14 20.2637ZM149.952 8.47754V25.4844H146.155V5.73535H149.675L149.952 8.47754ZM158.983 12.7095V12.9863C158.983 14.0234 158.86 14.9858 158.614 15.8735C158.376 16.7612 158.025 17.5347 157.559 18.1938C157.093 18.8442 156.513 19.354 155.819 19.7231C155.133 20.0835 154.342 20.2637 153.446 20.2637C152.576 20.2637 151.82 20.0879 151.178 19.7363C150.537 19.3848 149.996 18.8926 149.557 18.2598C149.126 17.6182 148.779 16.8755 148.515 16.0317C148.251 15.188 148.049 14.2827 147.909 13.3159V12.5908C148.049 11.5537 148.251 10.6045 148.515 9.74316C148.779 8.87305 149.126 8.12158 149.557 7.48877C149.996 6.84717 150.532 6.35059 151.165 5.99902C151.807 5.64746 152.558 5.47168 153.419 5.47168C154.325 5.47168 155.12 5.64307 155.806 5.98584C156.5 6.32861 157.08 6.8208 157.546 7.4624C158.021 8.104 158.376 8.86865 158.614 9.75635C158.86 10.644 158.983 11.6284 158.983 12.7095ZM155.173 12.9863V12.7095C155.173 12.103 155.12 11.5449 155.015 11.0352C154.918 10.5166 154.76 10.064 154.54 9.67725C154.329 9.29053 154.048 8.9917 153.696 8.78076C153.354 8.56104 152.936 8.45117 152.444 8.45117C151.925 8.45117 151.481 8.53467 151.112 8.70166C150.752 8.86865 150.458 9.11035 150.229 9.42676C150 9.74316 149.829 10.1211 149.715 10.5605C149.601 11 149.53 11.4966 149.504 12.0503V13.8828C149.548 14.5332 149.671 15.1177 149.873 15.6362C150.075 16.146 150.387 16.5503 150.809 16.8491C151.231 17.1479 151.785 17.2974 152.47 17.2974C152.971 17.2974 153.393 17.1875 153.736 16.9678C154.079 16.7393 154.355 16.4272 154.566 16.0317C154.786 15.6362 154.94 15.1792 155.028 14.6606C155.125 14.1421 155.173 13.584 155.173 12.9863ZM160.736 13.0127V12.7358C160.736 11.6899 160.886 10.7275 161.185 9.84863C161.483 8.96094 161.918 8.19189 162.49 7.5415C163.061 6.89111 163.764 6.38574 164.599 6.02539C165.434 5.65625 166.392 5.47168 167.473 5.47168C168.554 5.47168 169.517 5.65625 170.36 6.02539C171.204 6.38574 171.912 6.89111 172.483 7.5415C173.063 8.19189 173.502 8.96094 173.801 9.84863C174.1 10.7275 174.25 11.6899 174.25 12.7358V13.0127C174.25 14.0498 174.1 15.0122 173.801 15.8999C173.502 16.7788 173.063 17.5479 172.483 18.207C171.912 18.8574 171.208 19.3628 170.374 19.7231C169.539 20.0835 168.581 20.2637 167.5 20.2637C166.418 20.2637 165.456 20.0835 164.612 19.7231C163.777 19.3628 163.07 18.8574 162.49 18.207C161.918 17.5479 161.483 16.7788 161.185 15.8999C160.886 15.0122 160.736 14.0498 160.736 13.0127ZM164.533 12.7358V13.0127C164.533 13.6104 164.586 14.1685 164.691 14.687C164.797 15.2056 164.964 15.6626 165.192 16.0581C165.43 16.4448 165.737 16.748 166.115 16.9678C166.493 17.1875 166.955 17.2974 167.5 17.2974C168.027 17.2974 168.479 17.1875 168.857 16.9678C169.235 16.748 169.539 16.4448 169.767 16.0581C169.996 15.6626 170.163 15.2056 170.268 14.687C170.382 14.1685 170.439 13.6104 170.439 13.0127V12.7358C170.439 12.1558 170.382 11.6108 170.268 11.1011C170.163 10.5825 169.991 10.1255 169.754 9.72998C169.525 9.32568 169.222 9.00928 168.844 8.78076C168.466 8.55225 168.009 8.43799 167.473 8.43799C166.937 8.43799 166.48 8.55225 166.102 8.78076C165.733 9.00928 165.43 9.32568 165.192 9.72998C164.964 10.1255 164.797 10.5825 164.691 11.1011C164.586 11.6108 164.533 12.1558 164.533 12.7358ZM180.38 8.84668V20H176.583V5.73535H180.156L180.38 8.84668ZM184.678 5.64307L184.612 9.16309C184.427 9.13672 184.203 9.11475 183.939 9.09717C183.685 9.0708 183.452 9.05762 183.241 9.05762C182.705 9.05762 182.239 9.12793 181.843 9.26855C181.457 9.40039 181.131 9.59814 180.868 9.86182C180.613 10.1255 180.419 10.4463 180.288 10.8242C180.165 11.2021 180.094 11.6328 180.077 12.1162L179.312 11.8789C179.312 10.9561 179.404 10.1079 179.589 9.33447C179.773 8.55225 180.042 7.87109 180.393 7.29102C180.753 6.71094 181.193 6.2627 181.711 5.94629C182.23 5.62988 182.823 5.47168 183.491 5.47168C183.702 5.47168 183.917 5.48926 184.137 5.52441C184.357 5.55078 184.537 5.59033 184.678 5.64307ZM194.117 5.73535V8.4248H185.812V5.73535H194.117ZM187.868 2.21533H191.665V15.7021C191.665 16.1152 191.718 16.4316 191.823 16.6514C191.938 16.8711 192.104 17.0249 192.324 17.1128C192.544 17.1919 192.821 17.2314 193.155 17.2314C193.392 17.2314 193.603 17.2227 193.788 17.2051C193.981 17.1787 194.144 17.1523 194.275 17.126L194.289 19.9209C193.963 20.0264 193.612 20.1099 193.234 20.1714C192.856 20.2329 192.438 20.2637 191.981 20.2637C191.146 20.2637 190.417 20.1274 189.793 19.855C189.178 19.5737 188.703 19.1255 188.369 18.5103C188.035 17.895 187.868 17.0864 187.868 16.0845V2.21533Z" fill="url(#paint0_linear_4900_6166)"/>
<defs>
<linearGradient id="paint0_linear_4900_6166" x1="-1" y1="10.5" x2="209" y2="10.5" gradientUnits="userSpaceOnUse">
<stop stop-color="#F6B101"/>
<stop offset="0.515" stop-color="#0D9488"/>
<stop offset="1" stop-color="white"/>
</linearGradient>
</defs>
</svg>
