<svg width="43" height="11" viewBox="0 0 43 11" fill="none" xmlns="http://www.w3.org/2000/svg">
<path d="M5.33887 0.046875V10H3.29492V0.046875H5.33887ZM8.40137 0.046875V1.65332H0.280273V0.046875H8.40137ZM12.4004 8.33203V5.03711C12.4004 4.80013 12.3617 4.59733 12.2842 4.42871C12.2067 4.25553 12.0859 4.12109 11.9219 4.02539C11.7624 3.92969 11.555 3.88184 11.2998 3.88184C11.0811 3.88184 10.8919 3.92057 10.7324 3.99805C10.5729 4.07096 10.4499 4.17806 10.3633 4.31934C10.2767 4.45605 10.2334 4.61784 10.2334 4.80469H8.26465C8.26465 4.49023 8.33757 4.19173 8.4834 3.90918C8.62923 3.62663 8.84115 3.37826 9.11914 3.16406C9.39714 2.94531 9.72754 2.77441 10.1104 2.65137C10.4977 2.52832 10.9307 2.4668 11.4092 2.4668C11.9834 2.4668 12.4938 2.5625 12.9404 2.75391C13.387 2.94531 13.738 3.23242 13.9932 3.61523C14.2529 3.99805 14.3828 4.47656 14.3828 5.05078V8.21582C14.3828 8.62142 14.4079 8.9541 14.458 9.21387C14.5081 9.46908 14.5811 9.69238 14.6768 9.88379V10H12.6875C12.5918 9.79948 12.5189 9.54883 12.4688 9.24805C12.4232 8.94271 12.4004 8.63737 12.4004 8.33203ZM12.6602 5.49512L12.6738 6.60938H11.5732C11.3135 6.60938 11.0879 6.639 10.8965 6.69824C10.7051 6.75749 10.5479 6.8418 10.4248 6.95117C10.3018 7.05599 10.2106 7.17904 10.1514 7.32031C10.0967 7.46159 10.0693 7.61654 10.0693 7.78516C10.0693 7.95378 10.1081 8.10645 10.1855 8.24316C10.263 8.37533 10.3747 8.48014 10.5205 8.55762C10.6663 8.63053 10.8372 8.66699 11.0332 8.66699C11.3294 8.66699 11.5869 8.60775 11.8057 8.48926C12.0244 8.37077 12.193 8.22493 12.3115 8.05176C12.4346 7.87858 12.4984 7.71452 12.5029 7.55957L13.0225 8.39355C12.9495 8.5804 12.8493 8.77409 12.7217 8.97461C12.5986 9.17513 12.4414 9.36426 12.25 9.54199C12.0586 9.71517 11.8285 9.85872 11.5596 9.97266C11.2907 10.082 10.9717 10.1367 10.6025 10.1367C10.1331 10.1367 9.70703 10.0433 9.32422 9.85645C8.94596 9.66504 8.64518 9.40299 8.42188 9.07031C8.20312 8.73307 8.09375 8.35026 8.09375 7.92188C8.09375 7.53451 8.16667 7.19043 8.3125 6.88965C8.45833 6.58887 8.67253 6.33594 8.95508 6.13086C9.24219 5.92122 9.59993 5.764 10.0283 5.65918C10.4567 5.5498 10.9535 5.49512 11.5186 5.49512H12.6602ZM17.4863 2.60352L18.71 4.85254L19.9678 2.60352H22.0664L19.9746 6.21973L22.1621 10H20.0566L18.7236 7.62109L17.3906 10H15.2852L17.4727 6.21973L15.3809 2.60352H17.4863ZM27.5967 0.046875V10H25.5527V0.046875H27.5967ZM30.6592 0.046875V1.65332H22.5381V0.046875H30.6592ZM30.2012 6.37695V6.2334C30.2012 5.69108 30.2786 5.19206 30.4336 4.73633C30.5885 4.27604 30.8141 3.87728 31.1104 3.54004C31.4066 3.2028 31.7712 2.94076 32.2041 2.75391C32.637 2.5625 33.1338 2.4668 33.6943 2.4668C34.2549 2.4668 34.7539 2.5625 35.1914 2.75391C35.6289 2.94076 35.9958 3.2028 36.292 3.54004C36.5928 3.87728 36.8206 4.27604 36.9756 4.73633C37.1305 5.19206 37.208 5.69108 37.208 6.2334V6.37695C37.208 6.91471 37.1305 7.41374 36.9756 7.87402C36.8206 8.32975 36.5928 8.72852 36.292 9.07031C35.9958 9.40755 35.6312 9.6696 35.1982 9.85645C34.7653 10.0433 34.2686 10.1367 33.708 10.1367C33.1475 10.1367 32.6484 10.0433 32.2109 9.85645C31.778 9.6696 31.4111 9.40755 31.1104 9.07031C30.8141 8.72852 30.5885 8.32975 30.4336 7.87402C30.2786 7.41374 30.2012 6.91471 30.2012 6.37695ZM32.1699 6.2334V6.37695C32.1699 6.68685 32.1973 6.97624 32.252 7.24512C32.3066 7.514 32.3932 7.75098 32.5117 7.95605C32.6348 8.15658 32.7943 8.3138 32.9902 8.42773C33.1862 8.54167 33.4255 8.59863 33.708 8.59863C33.9814 8.59863 34.2161 8.54167 34.4121 8.42773C34.6081 8.3138 34.7653 8.15658 34.8838 7.95605C35.0023 7.75098 35.0889 7.514 35.1436 7.24512C35.2028 6.97624 35.2324 6.68685 35.2324 6.37695V6.2334C35.2324 5.93262 35.2028 5.65007 35.1436 5.38574C35.0889 5.11686 35 4.87988 34.877 4.6748C34.7585 4.46517 34.6012 4.30111 34.4053 4.18262C34.2093 4.06413 33.9723 4.00488 33.6943 4.00488C33.4163 4.00488 33.1794 4.06413 32.9834 4.18262C32.792 4.30111 32.6348 4.46517 32.5117 4.6748C32.3932 4.87988 32.3066 5.11686 32.252 5.38574C32.1973 5.65007 32.1699 5.93262 32.1699 6.2334ZM42.041 2.60352V3.99805H37.7344V2.60352H42.041ZM38.8008 0.77832H40.7695V7.77148C40.7695 7.98568 40.7969 8.14974 40.8516 8.26367C40.9108 8.3776 40.9974 8.45736 41.1113 8.50293C41.2253 8.54395 41.3688 8.56445 41.542 8.56445C41.665 8.56445 41.7744 8.5599 41.8701 8.55078C41.9704 8.53711 42.0547 8.52344 42.123 8.50977L42.1299 9.95898C41.9613 10.0137 41.779 10.057 41.583 10.0889C41.387 10.1208 41.1706 10.1367 40.9336 10.1367C40.5007 10.1367 40.1224 10.0661 39.7988 9.9248C39.4798 9.77897 39.2337 9.54655 39.0605 9.22754C38.8874 8.90853 38.8008 8.48926 38.8008 7.96973V0.77832Z" fill="url(#paint0_linear_4895_6168)"/>
<defs>
<linearGradient id="paint0_linear_4895_6168" x1="0" y1="5" x2="210" y2="5" gradientUnits="userSpaceOnUse">
<stop stop-color="#F6B101"/>
<stop offset="0.515" stop-color="#04FFE9"/>
<stop offset="1" stop-color="white"/>
</linearGradient>
</defs>
</svg>
