<svg width="18" height="12" viewBox="0 0 18 12" fill="none" xmlns="http://www.w3.org/2000/svg">
<path d="M14.58 0H8.64V1.27278L7.39422 1.89H8.64V3.78H7.39422L8.64 4.42665V5.67H8.58816L5.13 3.95577V5.67H3.51V3.95577L0.06318 5.67H0V8.91C0 10.5503 0.91071 11.88 2.7 11.88H14.58C16.3693 11.88 17.28 10.5503 17.28 8.91V2.97C17.28 1.32975 16.3693 0 14.58 0Z" fill="#2B3990"/>
<path d="M8.63996 0.632874V0.625854L6.16406 1.88999L8.63996 0.632874Z" fill="#4189DD"/>
<path d="M0 3.78V4.43664L1.26522 3.78H0ZM0.32724 1.4256C0.255423 1.57528 0.196003 1.7306 0.14958 1.89H1.26522L0.32724 1.4256ZM8.64 0.00270006V0H5.13V1.80873L8.64 0.00270006ZM3.51 1.80873V0H2.7C1.9926 0 1.42479 0.21006 0.99414 0.56295L3.51 1.80873Z" fill="#2B3990"/>
<path d="M8.64 2.16V1.89H7.39422L8.64 1.27278V0.63288L6.1641 1.89H5.34384L8.64 0.20709V0.00270006L5.13 1.80873V0H4.86V2.16H8.64ZM4.86 5.67H5.13V3.95577L8.58816 5.67H8.64V5.0544L6.1641 3.78H6.98463L8.64 4.6359V4.42665L7.39422 3.78H8.64V3.51H4.86V5.67ZM3.51 3.95577V5.67H3.78V3.51H0V3.78H1.26522L0 4.43664V5.0571L2.49534 3.78H3.31614L0 5.4756V5.67H0.06318L3.51 3.95577ZM0.99414 0.5643C0.85212 0.68067 0.72549 0.8127 0.61371 0.95823L2.49534 1.89135H1.67481L0.40716 1.26981C0.378962 1.32138 0.352311 1.37379 0.32724 1.42695L1.26522 1.89135H0.14958C0.12366 1.97937 0.10125 2.06928 0.08235 2.16135H3.78V0.00135003H3.51V1.81008L0.99414 0.5643Z" fill="white"/>
<path d="M3.78 5.67H4.86V3.51H8.64V2.24991L4.86 2.43V0H3.78V2.43L0.06156 2.27043C0.0207728 2.50139 0.000175016 2.73547 0 2.97L0 3.51H3.78V5.67Z" fill="#FF0000"/>
<path d="M4.86094 2.43006L8.64094 2.24997V2.16006H4.86094V2.43006ZM0.0625 2.27049L3.78094 2.43006V2.16006H0.08329C0.07546 2.19651 0.06898 2.23323 0.0625 2.27049ZM2.49628 1.89006L0.61276 0.959103C0.537264 1.0573 0.468785 1.1607 0.40783 1.26852L1.67575 1.89006H2.49628ZM0.61438 0.956943L0.61303 0.959103L2.49628 1.89006L0.61438 0.956943ZM6.16504 1.89006L8.64094 0.625923V0.207153L5.34478 1.89006H6.16504ZM6.16504 3.78006L8.64094 5.0442V4.63596L6.98557 3.78006H6.16504Z" fill="#FF0000"/>
<path d="M8.64 5.05443V5.04417L6.1641 3.78003L8.64 5.05443ZM2.49534 3.78003L0 5.06334V5.47563L3.31614 3.78003H2.49534Z" fill="#FF0000"/>
<path d="M0 5.05713V5.06334L2.49534 3.78003L0 5.05713Z" fill="#FF0000"/>
<path d="M3.97862 8.19718L4.31801 7.16065L4.64984 8.19718L5.65802 7.80838L5.06213 8.71018L6.00011 9.26368L4.91471 9.35818L5.0624 10.4368L4.31828 9.64978L3.56957 10.4368L3.71429 9.35818L2.63672 9.26908L3.5666 8.71288L2.96747 7.80838L3.97862 8.19718ZM12.6764 8.56087L12.8095 8.15128L12.9413 8.56087L13.3387 8.40778L13.1043 8.76418L13.4748 8.98288L13.0471 9.02068L13.1043 9.44593L12.8095 9.13516L12.5152 9.44593L12.5716 9.02068L12.1458 8.98288L12.5125 8.76418L12.2776 8.40778L12.6764 8.56087ZM10.3922 4.95637L10.5261 4.54705L10.6573 4.95637L11.0556 4.80301L10.8196 5.15968L11.1906 5.37838L10.7618 5.41618L10.8196 5.8417L10.5261 5.53066L10.2302 5.8417L10.2877 5.41618L9.86165 5.37946L10.2294 5.15968L9.99341 4.80301L10.3922 4.95637ZM14.7076 4.35238L14.841 3.94279L14.9722 4.35238L15.3705 4.19875L15.1342 4.55542L15.5068 4.77412L15.0767 4.81111L15.1342 5.23717L14.841 4.92748L14.5451 5.23717L14.6023 4.81111L14.1757 4.7752L14.544 4.5565L14.3072 4.19875L14.7076 4.35238ZM13.7896 6.10306L13.8544 5.89867L13.9208 6.10306L14.119 6.02638L14.0024 6.20458L14.1865 6.31393L13.9735 6.33229L14.0024 6.54478L13.8544 6.39007L13.7078 6.54478L13.7364 6.33229L13.5223 6.31447L13.7073 6.20512L13.5898 6.02638L13.7896 6.10306ZM12.6764 2.47048L12.8095 2.06116L12.9413 2.47048L13.3387 2.31712L13.1043 2.67379L13.4748 2.89249L13.0471 2.92948L13.1043 3.35581L12.8095 3.04477L12.5152 3.35581L12.5716 2.92948L12.1458 2.89357L12.5125 2.67487L12.2776 2.31712L12.6764 2.47048Z" fill="white"/>
</svg>
