<svg width="18" height="12" viewBox="0 0 18 12" fill="none" xmlns="http://www.w3.org/2000/svg">
<path d="M4.32031 0H12.9603V11.88H4.32031V0Z" fill="#E6E7E8"/>
<path d="M2.7 0C0.91071 0 0 1.32975 0 2.97V8.91C0 10.5503 0.91071 11.88 2.7 11.88H4.32V0H2.7ZM14.58 0H12.96V11.88H14.58C16.3693 11.88 17.28 10.5503 17.28 8.91V2.97C17.28 1.32975 16.3693 0 14.58 0Z" fill="#EC1C24"/>
<path fill-rule="evenodd" clip-rule="evenodd" d="M11.9502 5.84309C11.8269 5.7872 11.8061 5.74778 11.8428 5.61143C11.9343 5.27042 12.0285 4.93076 12.1212 4.59029C12.129 4.56248 12.136 4.53386 12.1465 4.49309C12.0321 4.51604 11.9251 4.53656 11.8182 4.55978C11.6019 4.60568 11.387 4.65239 11.1713 4.69802C11.0304 4.72745 10.9658 4.68803 10.9259 4.54871C10.8883 4.41695 10.8513 4.28492 10.7911 4.13426C10.7774 4.15694 10.7674 4.18313 10.7498 4.2023C10.5028 4.48121 10.2544 4.75931 10.0057 5.03822C9.92876 5.123 9.84317 5.15999 9.78269 5.12651C9.69386 5.07629 9.6971 4.98746 9.71168 4.90457C9.77729 4.5425 9.84533 4.18124 9.91283 3.81917C9.96224 3.55646 10.0116 3.2951 10.0624 3.02132C10.0368 3.03104 10.0195 3.0359 10.0041 3.04346C9.86423 3.11582 9.72599 3.18953 9.58586 3.26027C9.41414 3.3464 9.32774 3.31805 9.2381 3.152C9.04829 2.80019 8.8601 2.44784 8.67083 2.09576C8.66111 2.07848 8.65463 2.0612 8.63978 2.03906L8.60873 2.09576C8.42 2.44784 8.23154 2.80019 8.042 3.152C7.95209 3.31805 7.86542 3.34667 7.6937 3.26027C7.55357 3.18953 7.41533 3.11582 7.27547 3.04346C7.26008 3.0359 7.2428 3.03104 7.21715 3.02132C7.26791 3.2951 7.31732 3.55646 7.36673 3.81917C7.43423 4.18016 7.50254 4.54142 7.56761 4.90457C7.58273 4.98773 7.5857 5.07656 7.49687 5.12651C7.43612 5.15999 7.3508 5.123 7.27412 5.03822C7.02518 4.75931 6.77678 4.48121 6.52973 4.2023C6.51218 4.18313 6.50192 4.15694 6.48842 4.13426C6.42821 4.28519 6.39122 4.41695 6.35369 4.54871C6.31373 4.68803 6.24866 4.72745 6.10826 4.69802C5.89253 4.65239 5.67734 4.60568 5.46134 4.55978C5.35442 4.53656 5.2475 4.51604 5.13302 4.49309C5.14355 4.53386 5.1503 4.56275 5.1584 4.59029C5.25101 4.93076 5.34524 5.27069 5.43677 5.61143C5.47349 5.74805 5.4527 5.7872 5.32931 5.84309C5.2151 5.89493 5.10116 5.94974 4.98047 6.00617C5.00207 6.02561 5.01422 6.03722 5.02772 6.04829C5.315 6.28211 5.60228 6.51512 5.8901 6.74894C6.16847 6.9752 6.44576 7.20119 6.7244 7.42664C6.82187 7.50521 6.854 7.60079 6.81377 7.72013C6.79109 7.79033 6.77084 7.86053 6.74978 7.931C6.7244 8.01389 6.69956 8.09732 6.67148 8.19209C6.94769 8.15294 7.20851 8.11649 7.47122 8.08004C7.77929 8.03765 8.08709 7.99418 8.39597 7.9553C8.50181 7.94153 8.58038 8.02226 8.57606 8.12729C8.55284 8.6843 8.49911 9.31313 8.49533 9.84071H8.78423C8.78045 9.31313 8.72699 8.68457 8.70377 8.12729C8.69891 8.02226 8.77775 7.94153 8.88359 7.9553C9.19247 7.99418 9.50027 8.03765 9.80834 8.08004C10.071 8.11649 10.3319 8.15321 10.6081 8.19209C10.58 8.09732 10.5552 8.01389 10.5298 7.931C10.5087 7.86026 10.4885 7.79033 10.4658 7.72013C10.4256 7.60079 10.4577 7.50521 10.5552 7.42664C10.8341 7.20119 11.1111 6.9752 11.3895 6.74894C11.6773 6.51539 11.9646 6.28211 12.2518 6.04829C12.2653 6.03722 12.2775 6.02561 12.2991 6.00617C12.1781 5.94947 12.0647 5.89493 11.9502 5.84309Z" fill="#EC1C24"/>
</svg>
