<svg width="19" height="13" viewBox="0 0 19 13" fill="none" xmlns="http://www.w3.org/2000/svg">
<path d="M18.3709 9.4725C18.3709 11.2163 17.4027 12.63 15.5004 12.63H2.87045C0.968204 12.63 0 11.2163 0 9.4725V3.1575C0 1.4137 0.968204 0 2.87045 0H15.5004C17.4027 0 18.3709 1.4137 18.3709 3.1575V9.4725Z" fill="#EC1C24"/>
<path fill-rule="evenodd" clip-rule="evenodd" d="M10.4955 2.41891C10.5059 2.41283 10.5155 2.40501 10.5433 2.38473C10.4775 2.38155 10.4341 2.37691 10.3909 2.37749C9.61725 2.38589 9.00637 2.70393 8.5771 3.35045C8.0114 4.20203 8.14956 5.2755 8.90788 5.92954C9.04084 6.04425 9.19146 6.13636 9.33368 6.2389L9.35366 6.2163C9.07415 5.95706 8.92324 5.63409 8.88239 5.26073C8.84126 4.89026 8.91455 4.54209 9.12947 4.22839C9.1399 4.25099 9.14222 4.27474 9.13266 4.29067C9.01691 4.48849 8.94731 4.70988 8.92903 4.93834C8.89485 5.41106 9.03012 5.82324 9.37307 6.15982C9.38842 6.17459 9.40725 6.18531 9.42753 6.20008C9.43071 6.1885 9.43245 6.18473 9.43129 6.18357C9.41963 6.16285 9.40736 6.14246 9.39451 6.12245C9.28702 5.95504 9.24783 5.75278 9.28502 5.55734C9.34179 5.24161 9.53325 5.02842 9.80929 4.87664C9.91038 4.82161 10.0097 4.75499 10.0894 4.67302C10.3689 4.3851 10.5204 3.81129 10.2467 3.39505C10.0042 3.02719 10.1218 2.6573 10.4955 2.41891ZM9.69691 4.12267L9.67721 4.12093L9.49617 4.12528L9.35366 4.34339L9.33049 4.27735C9.32845 4.27591 9.32642 4.27446 9.32441 4.273C9.32447 4.26765 9.32398 4.26232 9.32296 4.25707L9.26764 4.09747L9.01621 4.02911L9.22361 3.87009L9.21086 3.60998L9.4255 3.75886L9.66881 3.66675L9.59408 3.91614L9.75744 4.11832L9.69488 4.12093C9.69604 4.12151 9.69604 4.12209 9.69691 4.12267Z" fill="white"/>
<path fill-rule="evenodd" clip-rule="evenodd" d="M13.5911 5.81882C13.2453 4.8282 12.2616 4.24309 11.2264 4.41051C10.4417 4.5368 9.83776 5.12162 9.65122 5.937C9.63963 5.98798 9.63181 6.03896 9.62109 6.08994C10.0095 5.27369 10.9532 5.07296 11.4613 5.26529C11.4425 5.26934 11.4222 5.27774 11.4045 5.27398C11.196 5.23227 10.9877 5.2256 10.7797 5.26963C10.3015 5.37043 9.93392 5.62388 9.70625 6.06503C9.69032 6.09544 9.68018 6.12817 9.66599 6.16004C9.77345 6.03317 9.89221 5.92918 10.0428 5.86517C10.3814 5.72265 10.7907 5.80752 11.0592 6.11137C11.3663 6.46012 12.2173 6.55542 12.5695 6.07922C12.5947 6.04591 12.6271 6.01695 12.659 5.98856C12.9487 5.73279 13.2936 5.72932 13.5897 5.979C13.6059 5.99117 13.6215 6.00159 13.6563 6.02766C13.6305 5.94366 13.6131 5.88081 13.5911 5.81882ZM11.901 5.58825L11.7573 5.80666L11.7376 5.75046C11.7371 5.75108 11.7367 5.75176 11.7365 5.75249C11.7333 5.74467 11.7321 5.73656 11.7304 5.72845L11.671 5.56074L11.4201 5.49209L11.627 5.33394L11.6142 5.07411L11.8286 5.22213L12.0722 5.12973L11.9974 5.37999L12.1611 5.58217L11.901 5.58825Z" fill="white"/>
<path fill-rule="evenodd" clip-rule="evenodd" d="M11.8945 7.22686C11.5452 6.63538 11.0169 6.32719 10.3362 6.27881C10.1792 6.2681 10.0193 6.28403 9.86029 6.28663L9.85971 6.31068C9.87999 6.3156 9.89911 6.3211 9.91967 6.32545C9.94285 6.32979 9.96747 6.33037 9.99006 6.33587C10.5381 6.46709 10.9091 6.80367 11.1186 7.31955C11.1724 7.45221 11.1892 7.60022 11.2205 7.74216C11.2237 7.75577 11.2057 7.77257 11.1988 7.7885C11.1901 7.77431 11.1805 7.76156 11.1736 7.74766C11.1698 7.741 11.173 7.73144 11.1719 7.72362C11.0789 7.11621 10.7588 6.68144 10.1847 6.44942C10.0674 6.40105 9.93734 6.38367 9.8125 6.3521C9.81366 6.35789 9.81424 6.3631 9.81482 6.36803C9.9188 6.43465 10.0344 6.48736 10.1247 6.56789C10.4179 6.83003 10.4851 7.27002 10.2838 7.65033C10.1479 7.90726 10.1366 8.16621 10.2105 8.43675C10.2956 8.74437 10.4631 8.98217 10.773 9.10267C10.8408 9.12903 10.9071 9.169 10.965 9.21361C11.1736 9.37118 11.2761 9.57973 11.2324 9.84448C11.2182 9.92964 11.1878 10.0113 11.1632 10.104C11.1901 10.0881 11.2115 10.0759 11.233 10.0617C12.1631 9.44939 12.4608 8.1862 11.8945 7.22686ZM11.2457 8.35304L11.0931 8.56449L11.0183 8.31509L10.7701 8.23486L10.9842 8.08627L10.9836 7.82587L11.1907 7.98373L11.4389 7.90291L11.3529 8.14912L11.5061 8.35941L11.2457 8.35304Z" fill="white"/>
<path fill-rule="evenodd" clip-rule="evenodd" d="M9.72806 6.60115C9.72429 6.59333 9.71647 6.58754 9.70489 6.57479C9.86999 7.47794 9.24868 8.16211 8.72817 8.33909C8.72208 8.33185 8.716 8.3249 8.70992 8.31707C8.73019 8.3023 8.74989 8.28434 8.7719 8.27305C9.32833 7.99411 9.63653 7.54717 9.68258 6.92354C9.69255 6.79753 9.67476 6.67087 9.63045 6.55249C9.62089 6.60376 9.61886 6.65416 9.6122 6.7034C9.54326 7.18713 9.07054 7.48837 8.59695 7.41016C8.29137 7.35976 8.02343 7.42233 7.77375 7.59351C7.58142 7.72704 7.42848 7.89389 7.36678 8.1259C7.34419 8.21512 7.33985 8.30925 7.32507 8.40079C7.27293 8.7307 7.05714 8.95113 6.73997 8.994C6.66524 9.00385 6.58848 8.99545 6.51172 8.99545C6.51433 9.00675 6.51375 9.0137 6.51693 9.01659C6.53518 9.03224 6.55227 9.04788 6.57168 9.06178C6.89841 9.3077 7.26106 9.47048 7.67266 9.50177C8.49702 9.56404 9.167 9.26628 9.63421 8.58501C10.0672 7.95327 10.042 7.27866 9.72835 6.60115M8.43677 8.57458L8.2847 8.78574L8.20997 8.53692L7.96174 8.45698L8.17637 8.30839L8.17434 8.04769L8.38261 8.20556L8.62997 8.12445L8.54366 8.37095L8.69717 8.58095L8.43677 8.57458Z" fill="white"/>
<path fill-rule="evenodd" clip-rule="evenodd" d="M9.39575 6.53121C9.06322 6.71717 8.70955 6.76149 8.3414 6.68647C7.97383 6.61174 7.66795 6.43128 7.43304 6.13294C7.44458 6.13174 7.45623 6.13287 7.46733 6.13625C7.47842 6.13964 7.48873 6.14521 7.49763 6.15263C7.57671 6.22273 7.64854 6.30354 7.73515 6.36379C8.22988 6.70443 8.75416 6.77163 9.30827 6.5176C9.33985 6.50225 9.36939 6.48139 9.40849 6.45764C9.28684 6.46952 9.17793 6.49443 9.07278 6.48661C8.71593 6.45764 8.47319 6.26039 8.33532 5.93742C8.28897 5.82677 8.26986 5.70367 8.24668 5.58462C8.17195 5.19155 7.59901 4.65019 7.01941 4.80921C6.58898 4.9271 6.22054 4.70667 6.13219 4.26987C6.13046 4.25944 6.12003 4.25104 6.11134 4.23743C6.1041 4.25104 6.09975 4.2577 6.09599 4.26465C6.0899 4.27943 6.08527 4.2942 6.07948 4.30926C5.86542 4.92681 5.90221 5.52611 6.22807 6.09702C6.779 7.06215 8.01641 7.51778 9.06322 6.81942C9.1843 6.73861 9.29437 6.64157 9.40936 6.55294C9.40522 6.54546 9.40068 6.5382 9.39575 6.53121ZM7.19668 6.1929L7.12195 5.94408L6.87371 5.86414L7.08835 5.71554L7.08719 5.45485L7.29516 5.61271L7.54253 5.53219L7.45621 5.77811L7.60973 5.98869L7.34933 5.9826L7.19668 6.1929Z" fill="white"/>
</svg>
