<svg width="18" height="12" viewBox="0 0 18 12" fill="none" xmlns="http://www.w3.org/2000/svg">
<path d="M0 3.23999H17.28V8.63999H0V3.23999Z" fill="#2B3990"/>
<path d="M2.69886 11.88H14.5789C15.9521 11.88 16.8055 11.0957 17.1293 9.99H0.148438C0.472168 11.0957 1.32564 11.88 2.69886 11.88ZM14.5789 0H2.69886C1.32564 0 0.472168 0.78435 0.148438 1.89H17.1295C16.8055 0.78435 15.9521 0 14.5789 0Z" fill="#EC1C24"/>
<path d="M17.2801 8.64002H4.60204e-05V8.91002C4.60204e-05 9.29153 0.0513461 9.65495 0.149626 9.99002H17.1307C17.2288 9.65495 17.2801 9.29153 17.2801 8.91002V8.64002ZM17.2801 2.97002C17.2801 2.5885 17.2288 2.22508 17.1305 1.89001H0.149626C0.0486253 2.24106 -0.00174279 2.60473 4.60204e-05 2.97002V3.24002H17.2801V2.97002Z" fill="#E6E7E8"/>
</svg>
